G04 #@! TF.FileFunction,Soldermask,Bot*
%FSLAX46Y46*%
G04 Gerber Fmt 4.6, Leading zero omitted, Abs format (unit mm)*
G04 Created by KiCad (PCBNEW 4.0.2+dfsg1-stable) date Thu 08 Aug 2019 19:13:25 BST*
%MOMM*%
G01*
G04 APERTURE LIST*
%ADD10C,0.100000*%
%ADD11O,2.000000X2.700000*%
%ADD12C,1.924000*%
%ADD13C,5.200600*%
%ADD14R,5.200600X5.200600*%
%ADD15C,2.398980*%
%ADD16R,2.127200X2.432000*%
%ADD17O,2.127200X2.432000*%
%ADD18O,2.127200X3.448000*%
%ADD19O,2.100000X3.400000*%
%ADD20C,2.300000*%
%ADD21R,2.400000X2.400000*%
%ADD22C,2.400000*%
G04 APERTURE END LIST*
D10*
D11*
X139700000Y-114300000D03*
X142240000Y-114300000D03*
X144780000Y-114300000D03*
X147320000Y-114300000D03*
X147320000Y-106680000D03*
X144780000Y-106680000D03*
X142240000Y-106680000D03*
X139700000Y-106680000D03*
D12*
X142240000Y-101600000D03*
X144780000Y-101600000D03*
X139700000Y-101600000D03*
D13*
X158496000Y-93980000D03*
D14*
X152400000Y-93980000D03*
D13*
X156210000Y-88900000D03*
D15*
X154940000Y-119380000D03*
X154940000Y-127000000D03*
X152400000Y-119380000D03*
X152400000Y-127000000D03*
X147320000Y-119380000D03*
X147320000Y-127000000D03*
X144780000Y-119380000D03*
X144780000Y-127000000D03*
X142240000Y-119380000D03*
X142240000Y-127000000D03*
X139700000Y-96520000D03*
X147320000Y-96520000D03*
X162560000Y-127000000D03*
X162560000Y-119380000D03*
D16*
X162560000Y-132080000D03*
D17*
X160020000Y-132080000D03*
X157480000Y-132080000D03*
X154940000Y-132080000D03*
X152400000Y-132080000D03*
X149860000Y-132080000D03*
X147320000Y-132080000D03*
X144780000Y-132080000D03*
X142240000Y-132080000D03*
X139700000Y-132080000D03*
D18*
X160020000Y-114300000D03*
X155020000Y-114300000D03*
X160020000Y-101800000D03*
X155020000Y-101800000D03*
D19*
X164270000Y-108050000D03*
X150770000Y-108050000D03*
D20*
X162020000Y-108050000D03*
X153020000Y-108050000D03*
D21*
X158750000Y-124460000D03*
D22*
X158750000Y-121920000D03*
M02*
