G04 #@! TF.FileFunction,Legend,Top*
%FSLAX46Y46*%
G04 Gerber Fmt 4.6, Leading zero omitted, Abs format (unit mm)*
G04 Created by KiCad (PCBNEW 4.0.2+dfsg1-stable) date Thu 08 Aug 2019 19:13:25 BST*
%MOMM*%
G01*
G04 APERTURE LIST*
%ADD10C,0.100000*%
%ADD11C,0.300000*%
%ADD12C,0.250000*%
%ADD13C,0.150000*%
G04 APERTURE END LIST*
D10*
D11*
X140128572Y-117772571D02*
X139271429Y-117772571D01*
X139700001Y-117772571D02*
X139700001Y-116272571D01*
X139557144Y-116486857D01*
X139414286Y-116629714D01*
X139271429Y-116701143D01*
X162774429Y-87419571D02*
X161917286Y-87419571D01*
X162345858Y-87419571D02*
X162345858Y-85919571D01*
X162203001Y-86133857D01*
X162060143Y-86276714D01*
X161917286Y-86348143D01*
X163345857Y-86062429D02*
X163417286Y-85991000D01*
X163560143Y-85919571D01*
X163917286Y-85919571D01*
X164060143Y-85991000D01*
X164131572Y-86062429D01*
X164203000Y-86205286D01*
X164203000Y-86348143D01*
X164131572Y-86562429D01*
X163274429Y-87419571D01*
X164203000Y-87419571D01*
X164631571Y-85919571D02*
X165131571Y-87419571D01*
X165631571Y-85919571D01*
D12*
X136668428Y-89173857D02*
X137001762Y-89173857D01*
X137144619Y-89959571D02*
X136668428Y-89959571D01*
X136668428Y-88459571D01*
X137144619Y-88459571D01*
X137477952Y-88959571D02*
X137668428Y-89959571D01*
X137858905Y-89245286D01*
X138049381Y-89959571D01*
X138239857Y-88959571D01*
X139049381Y-89959571D02*
X139049381Y-89173857D01*
X139001762Y-89031000D01*
X138906524Y-88959571D01*
X138716047Y-88959571D01*
X138620809Y-89031000D01*
X139049381Y-89888143D02*
X138954143Y-89959571D01*
X138716047Y-89959571D01*
X138620809Y-89888143D01*
X138573190Y-89745286D01*
X138573190Y-89602429D01*
X138620809Y-89459571D01*
X138716047Y-89388143D01*
X138954143Y-89388143D01*
X139049381Y-89316714D01*
X139525571Y-88959571D02*
X139525571Y-89959571D01*
X139525571Y-89102429D02*
X139573190Y-89031000D01*
X139668428Y-88959571D01*
X139811286Y-88959571D01*
X139906524Y-89031000D01*
X139954143Y-89173857D01*
X139954143Y-89959571D01*
X141192238Y-89959571D02*
X141192238Y-88459571D01*
X141573191Y-88459571D01*
X141668429Y-88531000D01*
X141716048Y-88602429D01*
X141763667Y-88745286D01*
X141763667Y-88959571D01*
X141716048Y-89102429D01*
X141668429Y-89173857D01*
X141573191Y-89245286D01*
X141192238Y-89245286D01*
X142620810Y-89959571D02*
X142620810Y-89173857D01*
X142573191Y-89031000D01*
X142477953Y-88959571D01*
X142287476Y-88959571D01*
X142192238Y-89031000D01*
X142620810Y-89888143D02*
X142525572Y-89959571D01*
X142287476Y-89959571D01*
X142192238Y-89888143D01*
X142144619Y-89745286D01*
X142144619Y-89602429D01*
X142192238Y-89459571D01*
X142287476Y-89388143D01*
X142525572Y-89388143D01*
X142620810Y-89316714D01*
X143097000Y-89959571D02*
X143097000Y-88959571D01*
X143097000Y-89245286D02*
X143144619Y-89102429D01*
X143192238Y-89031000D01*
X143287476Y-88959571D01*
X143382715Y-88959571D01*
X143716048Y-89959571D02*
X143716048Y-88459571D01*
X143811286Y-89388143D02*
X144097001Y-89959571D01*
X144097001Y-88959571D02*
X143716048Y-89531000D01*
X144906525Y-89888143D02*
X144811287Y-89959571D01*
X144620810Y-89959571D01*
X144525572Y-89888143D01*
X144477953Y-89745286D01*
X144477953Y-89173857D01*
X144525572Y-89031000D01*
X144620810Y-88959571D01*
X144811287Y-88959571D01*
X144906525Y-89031000D01*
X144954144Y-89173857D01*
X144954144Y-89316714D01*
X144477953Y-89459571D01*
X145382715Y-89959571D02*
X145382715Y-88959571D01*
X145382715Y-89245286D02*
X145430334Y-89102429D01*
X145477953Y-89031000D01*
X145573191Y-88959571D01*
X145668430Y-88959571D01*
D11*
X136791667Y-86991000D02*
X137458333Y-86991000D01*
X136658333Y-87419571D02*
X137125000Y-85919571D01*
X137591667Y-87419571D01*
X137858333Y-85919571D02*
X138325000Y-87419571D01*
X138791667Y-85919571D01*
X140058333Y-87419571D02*
X139591667Y-86705286D01*
X139258333Y-87419571D02*
X139258333Y-85919571D01*
X139791667Y-85919571D01*
X139925000Y-85991000D01*
X139991667Y-86062429D01*
X140058333Y-86205286D01*
X140058333Y-86419571D01*
X139991667Y-86562429D01*
X139925000Y-86633857D01*
X139791667Y-86705286D01*
X139258333Y-86705286D01*
X141725000Y-87419571D02*
X141725000Y-85919571D01*
X141725000Y-86633857D02*
X142525000Y-86633857D01*
X142525000Y-87419571D02*
X142525000Y-85919571D01*
X142991667Y-85919571D02*
X143458334Y-87419571D01*
X143925001Y-85919571D01*
X144325001Y-87348143D02*
X144525001Y-87419571D01*
X144858334Y-87419571D01*
X144991667Y-87348143D01*
X145058334Y-87276714D01*
X145125001Y-87133857D01*
X145125001Y-86991000D01*
X145058334Y-86848143D01*
X144991667Y-86776714D01*
X144858334Y-86705286D01*
X144591667Y-86633857D01*
X144458334Y-86562429D01*
X144391667Y-86491000D01*
X144325001Y-86348143D01*
X144325001Y-86205286D01*
X144391667Y-86062429D01*
X144458334Y-85991000D01*
X144591667Y-85919571D01*
X144925001Y-85919571D01*
X145125001Y-85991000D01*
X145725000Y-87419571D02*
X145725000Y-85919571D01*
X146258334Y-85919571D01*
X146391667Y-85991000D01*
X146458334Y-86062429D01*
X146525000Y-86205286D01*
X146525000Y-86419571D01*
X146458334Y-86562429D01*
X146391667Y-86633857D01*
X146258334Y-86705286D01*
X145725000Y-86705286D01*
X148458334Y-85919571D02*
X148591667Y-85919571D01*
X148725001Y-85991000D01*
X148791667Y-86062429D01*
X148858334Y-86205286D01*
X148925001Y-86491000D01*
X148925001Y-86848143D01*
X148858334Y-87133857D01*
X148791667Y-87276714D01*
X148725001Y-87348143D01*
X148591667Y-87419571D01*
X148458334Y-87419571D01*
X148325001Y-87348143D01*
X148258334Y-87276714D01*
X148191667Y-87133857D01*
X148125001Y-86848143D01*
X148125001Y-86491000D01*
X148191667Y-86205286D01*
X148258334Y-86062429D01*
X148325001Y-85991000D01*
X148458334Y-85919571D01*
X149525000Y-87276714D02*
X149591667Y-87348143D01*
X149525000Y-87419571D01*
X149458334Y-87348143D01*
X149525000Y-87276714D01*
X149525000Y-87419571D01*
X150925001Y-87419571D02*
X150125001Y-87419571D01*
X150525001Y-87419571D02*
X150525001Y-85919571D01*
X150391667Y-86133857D01*
X150258334Y-86276714D01*
X150125001Y-86348143D01*
D12*
X158004523Y-128718571D02*
X158004523Y-129932857D01*
X158052142Y-130075714D01*
X158099761Y-130147143D01*
X158194999Y-130218571D01*
X158385476Y-130218571D01*
X158480714Y-130147143D01*
X158528333Y-130075714D01*
X158575952Y-129932857D01*
X158575952Y-128718571D01*
X159052142Y-129218571D02*
X159052142Y-130218571D01*
X159052142Y-129361429D02*
X159099761Y-129290000D01*
X159194999Y-129218571D01*
X159337857Y-129218571D01*
X159433095Y-129290000D01*
X159480714Y-129432857D01*
X159480714Y-130218571D01*
X160099761Y-130218571D02*
X160004523Y-130147143D01*
X159956904Y-130075714D01*
X159909285Y-129932857D01*
X159909285Y-129504286D01*
X159956904Y-129361429D01*
X160004523Y-129290000D01*
X160099761Y-129218571D01*
X160242619Y-129218571D01*
X160337857Y-129290000D01*
X160385476Y-129361429D01*
X160433095Y-129504286D01*
X160433095Y-129932857D01*
X160385476Y-130075714D01*
X160337857Y-130147143D01*
X160242619Y-130218571D01*
X160099761Y-130218571D01*
X161575952Y-129790000D02*
X162052143Y-129790000D01*
X161480714Y-130218571D02*
X161814047Y-128718571D01*
X162147381Y-130218571D01*
X162956905Y-128718571D02*
X162480714Y-128718571D01*
X162433095Y-129432857D01*
X162480714Y-129361429D01*
X162575952Y-129290000D01*
X162814048Y-129290000D01*
X162909286Y-129361429D01*
X162956905Y-129432857D01*
X163004524Y-129575714D01*
X163004524Y-129932857D01*
X162956905Y-130075714D01*
X162909286Y-130147143D01*
X162814048Y-130218571D01*
X162575952Y-130218571D01*
X162480714Y-130147143D01*
X162433095Y-130075714D01*
X139303095Y-130218571D02*
X139303095Y-128718571D01*
X139541190Y-128718571D01*
X139684048Y-128790000D01*
X139779286Y-128932857D01*
X139826905Y-129075714D01*
X139874524Y-129361429D01*
X139874524Y-129575714D01*
X139826905Y-129861429D01*
X139779286Y-130004286D01*
X139684048Y-130147143D01*
X139541190Y-130218571D01*
X139303095Y-130218571D01*
X140445952Y-129361429D02*
X140350714Y-129290000D01*
X140303095Y-129218571D01*
X140255476Y-129075714D01*
X140255476Y-129004286D01*
X140303095Y-128861429D01*
X140350714Y-128790000D01*
X140445952Y-128718571D01*
X140636429Y-128718571D01*
X140731667Y-128790000D01*
X140779286Y-128861429D01*
X140826905Y-129004286D01*
X140826905Y-129075714D01*
X140779286Y-129218571D01*
X140731667Y-129290000D01*
X140636429Y-129361429D01*
X140445952Y-129361429D01*
X140350714Y-129432857D01*
X140303095Y-129504286D01*
X140255476Y-129647143D01*
X140255476Y-129932857D01*
X140303095Y-130075714D01*
X140350714Y-130147143D01*
X140445952Y-130218571D01*
X140636429Y-130218571D01*
X140731667Y-130147143D01*
X140779286Y-130075714D01*
X140826905Y-129932857D01*
X140826905Y-129647143D01*
X140779286Y-129504286D01*
X140731667Y-129432857D01*
X140636429Y-129361429D01*
X142017381Y-128718571D02*
X142017381Y-129932857D01*
X142065000Y-130075714D01*
X142112619Y-130147143D01*
X142207857Y-130218571D01*
X142398334Y-130218571D01*
X142493572Y-130147143D01*
X142541191Y-130075714D01*
X142588810Y-129932857D01*
X142588810Y-128718571D01*
X143065000Y-129218571D02*
X143065000Y-130218571D01*
X143065000Y-129361429D02*
X143112619Y-129290000D01*
X143207857Y-129218571D01*
X143350715Y-129218571D01*
X143445953Y-129290000D01*
X143493572Y-129432857D01*
X143493572Y-130218571D01*
X144112619Y-130218571D02*
X144017381Y-130147143D01*
X143969762Y-130075714D01*
X143922143Y-129932857D01*
X143922143Y-129504286D01*
X143969762Y-129361429D01*
X144017381Y-129290000D01*
X144112619Y-129218571D01*
X144255477Y-129218571D01*
X144350715Y-129290000D01*
X144398334Y-129361429D01*
X144445953Y-129504286D01*
X144445953Y-129932857D01*
X144398334Y-130075714D01*
X144350715Y-130147143D01*
X144255477Y-130218571D01*
X144112619Y-130218571D01*
D13*
X137405000Y-114165000D02*
X138675000Y-114165000D01*
X137405000Y-106815000D02*
X138675000Y-106815000D01*
X149615000Y-106815000D02*
X148345000Y-106815000D01*
X149615000Y-114165000D02*
X148345000Y-114165000D01*
X137405000Y-114165000D02*
X137405000Y-106815000D01*
X149615000Y-114165000D02*
X149615000Y-106815000D01*
X138675000Y-114165000D02*
X138675000Y-115450000D01*
X140052305Y-102596990D02*
G75*
G03X140540000Y-103300000I2187695J996990D01*
G01*
X144427695Y-102596990D02*
G75*
G02X143940000Y-103300000I-2187695J996990D01*
G01*
X140540000Y-103300000D02*
X143940000Y-103300000D01*
X140055121Y-100606873D02*
G75*
G02X142240000Y-99200000I2184879J-993127D01*
G01*
X144424879Y-100606873D02*
G75*
G03X142240000Y-99200000I-2184879J-993127D01*
G01*
X165608000Y-98298000D02*
X166370000Y-98298000D01*
X166370000Y-98298000D02*
X166370000Y-89662000D01*
X166370000Y-89662000D02*
X165608000Y-89662000D01*
X162560000Y-98298000D02*
X162560000Y-89662000D01*
X152908000Y-98298000D02*
X152908000Y-89662000D01*
X165608000Y-89662000D02*
X152908000Y-89662000D01*
X165608000Y-98298000D02*
X152908000Y-98298000D01*
X156210000Y-120650000D02*
X156210000Y-125730000D01*
X156210000Y-125730000D02*
X153670000Y-125730000D01*
X153670000Y-125730000D02*
X153670000Y-120650000D01*
X153670000Y-120650000D02*
X156210000Y-120650000D01*
X153670000Y-120650000D02*
X153670000Y-125730000D01*
X153670000Y-125730000D02*
X151130000Y-125730000D01*
X151130000Y-125730000D02*
X151130000Y-120650000D01*
X151130000Y-120650000D02*
X153670000Y-120650000D01*
X148590000Y-120650000D02*
X148590000Y-125730000D01*
X148590000Y-125730000D02*
X146050000Y-125730000D01*
X146050000Y-125730000D02*
X146050000Y-120650000D01*
X146050000Y-120650000D02*
X148590000Y-120650000D01*
X146050000Y-120650000D02*
X146050000Y-125730000D01*
X146050000Y-125730000D02*
X143510000Y-125730000D01*
X143510000Y-125730000D02*
X143510000Y-120650000D01*
X143510000Y-120650000D02*
X146050000Y-120650000D01*
X143510000Y-120650000D02*
X143510000Y-125730000D01*
X143510000Y-125730000D02*
X140970000Y-125730000D01*
X140970000Y-125730000D02*
X140970000Y-120650000D01*
X140970000Y-120650000D02*
X143510000Y-120650000D01*
X140970000Y-95250000D02*
X146050000Y-95250000D01*
X146050000Y-95250000D02*
X146050000Y-97790000D01*
X146050000Y-97790000D02*
X140970000Y-97790000D01*
X140970000Y-97790000D02*
X140970000Y-95250000D01*
X161290000Y-125730000D02*
X161290000Y-120650000D01*
X161290000Y-120650000D02*
X163830000Y-120650000D01*
X163830000Y-120650000D02*
X163830000Y-125730000D01*
X163830000Y-125730000D02*
X161290000Y-125730000D01*
X164110000Y-130780000D02*
X162560000Y-130780000D01*
X164110000Y-132080000D02*
X164110000Y-130780000D01*
X162687000Y-136271000D02*
X162687000Y-142113000D01*
X162687000Y-142113000D02*
X162433000Y-142113000D01*
X162433000Y-142113000D02*
X162433000Y-136271000D01*
X162433000Y-136271000D02*
X162560000Y-136271000D01*
X162560000Y-136271000D02*
X162560000Y-142113000D01*
X145034000Y-133604000D02*
X145034000Y-133223000D01*
X144526000Y-133604000D02*
X144526000Y-133223000D01*
X142494000Y-133604000D02*
X142494000Y-133223000D01*
X141986000Y-133604000D02*
X141986000Y-133223000D01*
X139954000Y-133604000D02*
X139954000Y-133223000D01*
X139446000Y-133604000D02*
X139446000Y-133223000D01*
X162814000Y-133604000D02*
X162814000Y-133223000D01*
X162306000Y-133604000D02*
X162306000Y-133223000D01*
X160274000Y-133604000D02*
X160274000Y-133223000D01*
X159766000Y-133604000D02*
X159766000Y-133223000D01*
X157734000Y-133604000D02*
X157734000Y-133223000D01*
X157226000Y-133604000D02*
X157226000Y-133223000D01*
X147066000Y-133604000D02*
X147066000Y-133223000D01*
X147574000Y-133604000D02*
X147574000Y-133223000D01*
X149606000Y-133604000D02*
X149606000Y-133223000D01*
X150114000Y-133604000D02*
X150114000Y-133223000D01*
X152146000Y-133604000D02*
X152146000Y-133223000D01*
X152654000Y-133604000D02*
X152654000Y-133223000D01*
X154686000Y-133604000D02*
X154686000Y-133223000D01*
X155194000Y-133604000D02*
X155194000Y-133223000D01*
X148590000Y-133604000D02*
X148590000Y-136144000D01*
X148590000Y-133604000D02*
X146050000Y-133604000D01*
X146050000Y-133604000D02*
X146050000Y-136144000D01*
X147574000Y-136144000D02*
X147574000Y-142240000D01*
X147574000Y-142240000D02*
X147066000Y-142240000D01*
X147066000Y-142240000D02*
X147066000Y-136144000D01*
X146050000Y-136144000D02*
X148590000Y-136144000D01*
X143510000Y-136144000D02*
X146050000Y-136144000D01*
X144526000Y-142240000D02*
X144526000Y-136144000D01*
X145034000Y-142240000D02*
X144526000Y-142240000D01*
X145034000Y-136144000D02*
X145034000Y-142240000D01*
X143510000Y-133604000D02*
X143510000Y-136144000D01*
X146050000Y-133604000D02*
X143510000Y-133604000D01*
X146050000Y-133604000D02*
X146050000Y-136144000D01*
X140970000Y-133604000D02*
X140970000Y-136144000D01*
X140970000Y-133604000D02*
X138430000Y-133604000D01*
X139954000Y-136144000D02*
X139954000Y-142240000D01*
X139954000Y-142240000D02*
X139446000Y-142240000D01*
X139446000Y-142240000D02*
X139446000Y-136144000D01*
X138430000Y-136144000D02*
X140970000Y-136144000D01*
X140970000Y-136144000D02*
X143510000Y-136144000D01*
X141986000Y-142240000D02*
X141986000Y-136144000D01*
X142494000Y-142240000D02*
X141986000Y-142240000D01*
X142494000Y-136144000D02*
X142494000Y-142240000D01*
X140970000Y-133604000D02*
X140970000Y-136144000D01*
X143510000Y-133604000D02*
X140970000Y-133604000D01*
X143510000Y-133604000D02*
X143510000Y-136144000D01*
X138430000Y-133604000D02*
X138430000Y-136144000D01*
X163830000Y-133604000D02*
X163830000Y-136144000D01*
X161290000Y-133604000D02*
X161290000Y-136144000D01*
X161290000Y-133604000D02*
X158750000Y-133604000D01*
X158750000Y-133604000D02*
X158750000Y-136144000D01*
X160274000Y-136144000D02*
X160274000Y-142240000D01*
X160274000Y-142240000D02*
X159766000Y-142240000D01*
X159766000Y-142240000D02*
X159766000Y-136144000D01*
X158750000Y-136144000D02*
X161290000Y-136144000D01*
X161290000Y-136144000D02*
X163830000Y-136144000D01*
X162306000Y-142240000D02*
X162306000Y-136144000D01*
X162814000Y-142240000D02*
X162306000Y-142240000D01*
X162814000Y-136144000D02*
X162814000Y-142240000D01*
X161290000Y-133604000D02*
X161290000Y-136144000D01*
X163830000Y-133604000D02*
X161290000Y-133604000D01*
X153670000Y-133604000D02*
X153670000Y-136144000D01*
X153670000Y-133604000D02*
X151130000Y-133604000D01*
X151130000Y-133604000D02*
X151130000Y-136144000D01*
X152654000Y-136144000D02*
X152654000Y-142240000D01*
X152654000Y-142240000D02*
X152146000Y-142240000D01*
X152146000Y-142240000D02*
X152146000Y-136144000D01*
X151130000Y-136144000D02*
X153670000Y-136144000D01*
X148590000Y-136144000D02*
X151130000Y-136144000D01*
X149606000Y-142240000D02*
X149606000Y-136144000D01*
X150114000Y-142240000D02*
X149606000Y-142240000D01*
X150114000Y-136144000D02*
X150114000Y-142240000D01*
X148590000Y-133604000D02*
X148590000Y-136144000D01*
X151130000Y-133604000D02*
X148590000Y-133604000D01*
X151130000Y-133604000D02*
X151130000Y-136144000D01*
X156210000Y-133604000D02*
X156210000Y-136144000D01*
X156210000Y-133604000D02*
X153670000Y-133604000D01*
X153670000Y-133604000D02*
X153670000Y-136144000D01*
X155194000Y-136144000D02*
X155194000Y-142240000D01*
X155194000Y-142240000D02*
X154686000Y-142240000D01*
X154686000Y-142240000D02*
X154686000Y-136144000D01*
X153670000Y-136144000D02*
X156210000Y-136144000D01*
X156210000Y-136144000D02*
X158750000Y-136144000D01*
X157226000Y-142240000D02*
X157226000Y-136144000D01*
X157734000Y-142240000D02*
X157226000Y-142240000D01*
X157734000Y-136144000D02*
X157734000Y-142240000D01*
X156210000Y-133604000D02*
X156210000Y-136144000D01*
X158750000Y-133604000D02*
X156210000Y-133604000D01*
X158750000Y-133604000D02*
X158750000Y-136144000D01*
X151520000Y-102050000D02*
X153520000Y-102050000D01*
X163520000Y-114050000D02*
X161520000Y-114050000D01*
X156520000Y-105550000D02*
X156520000Y-106050000D01*
X157020000Y-105550000D02*
X156520000Y-105550000D01*
X157020000Y-105050000D02*
X157020000Y-105550000D01*
X157520000Y-105050000D02*
X157020000Y-105050000D01*
X157520000Y-106550000D02*
X156520000Y-105550000D01*
X158020000Y-106050000D02*
X157020000Y-105050000D01*
X163520000Y-112050000D02*
X163520000Y-114050000D01*
X163520000Y-102050000D02*
X163520000Y-104050000D01*
X154520000Y-108050000D02*
X156020000Y-108050000D01*
X160520000Y-108050000D02*
X159020000Y-108050000D01*
X156020000Y-106550000D02*
X156020000Y-109550000D01*
X156020000Y-108050000D02*
X159020000Y-106550000D01*
X159020000Y-109550000D02*
X156020000Y-108050000D01*
X159020000Y-106550000D02*
X159020000Y-109550000D01*
X161670000Y-108050000D02*
G75*
G03X161670000Y-108050000I-4150000J0D01*
G01*
X151520000Y-114050000D02*
X153520000Y-114050000D01*
X163520000Y-102050000D02*
X161520000Y-102050000D01*
X151520000Y-114050000D02*
X151520000Y-112050000D01*
X150015000Y-108950000D02*
X150015000Y-107150000D01*
X151520000Y-104050000D02*
X151520000Y-102050000D01*
X160064000Y-124659000D02*
X159864000Y-124659000D01*
X157470000Y-124659000D02*
X157650000Y-124659000D01*
X157780357Y-121431256D02*
G75*
G03X157464000Y-124659000I1003643J-1727744D01*
G01*
X157650932Y-122106994D02*
G75*
G03X157650000Y-124210000I1133068J-1052006D01*
G01*
X160090726Y-124646220D02*
G75*
G03X159744000Y-121409000I-1306726J1497220D01*
G01*
X159863253Y-124172889D02*
G75*
G03X159844000Y-122125000I-1079253J1013889D01*
G01*
X138247381Y-118197190D02*
X137247381Y-118197190D01*
X138152143Y-117149571D02*
X138199762Y-117197190D01*
X138247381Y-117340047D01*
X138247381Y-117435285D01*
X138199762Y-117578143D01*
X138104524Y-117673381D01*
X138009286Y-117721000D01*
X137818810Y-117768619D01*
X137675952Y-117768619D01*
X137485476Y-117721000D01*
X137390238Y-117673381D01*
X137295000Y-117578143D01*
X137247381Y-117435285D01*
X137247381Y-117340047D01*
X137295000Y-117197190D01*
X137342619Y-117149571D01*
X138247381Y-116197190D02*
X138247381Y-116768619D01*
X138247381Y-116482905D02*
X137247381Y-116482905D01*
X137390238Y-116578143D01*
X137485476Y-116673381D01*
X137533095Y-116768619D01*
X147224762Y-102147619D02*
X147129524Y-102100000D01*
X147034286Y-102004762D01*
X146891429Y-101861905D01*
X146796190Y-101814286D01*
X146700952Y-101814286D01*
X146748571Y-102052381D02*
X146653333Y-102004762D01*
X146558095Y-101909524D01*
X146510476Y-101719048D01*
X146510476Y-101385714D01*
X146558095Y-101195238D01*
X146653333Y-101100000D01*
X146748571Y-101052381D01*
X146939048Y-101052381D01*
X147034286Y-101100000D01*
X147129524Y-101195238D01*
X147177143Y-101385714D01*
X147177143Y-101719048D01*
X147129524Y-101909524D01*
X147034286Y-102004762D01*
X146939048Y-102052381D01*
X146748571Y-102052381D01*
X148129524Y-102052381D02*
X147558095Y-102052381D01*
X147843809Y-102052381D02*
X147843809Y-101052381D01*
X147748571Y-101195238D01*
X147653333Y-101290476D01*
X147558095Y-101338095D01*
X163044286Y-99623571D02*
X163187143Y-99671190D01*
X163234762Y-99718810D01*
X163282381Y-99814048D01*
X163282381Y-99956905D01*
X163234762Y-100052143D01*
X163187143Y-100099762D01*
X163091905Y-100147381D01*
X162710952Y-100147381D01*
X162710952Y-99147381D01*
X163044286Y-99147381D01*
X163139524Y-99195000D01*
X163187143Y-99242619D01*
X163234762Y-99337857D01*
X163234762Y-99433095D01*
X163187143Y-99528333D01*
X163139524Y-99575952D01*
X163044286Y-99623571D01*
X162710952Y-99623571D01*
X163568095Y-99147381D02*
X164139524Y-99147381D01*
X163853809Y-100147381D02*
X163853809Y-99147381D01*
X164996667Y-100147381D02*
X164425238Y-100147381D01*
X164710952Y-100147381D02*
X164710952Y-99147381D01*
X164615714Y-99290238D01*
X164520476Y-99385476D01*
X164425238Y-99433095D01*
X155392381Y-117006666D02*
X154916190Y-117340000D01*
X155392381Y-117578095D02*
X154392381Y-117578095D01*
X154392381Y-117197142D01*
X154440000Y-117101904D01*
X154487619Y-117054285D01*
X154582857Y-117006666D01*
X154725714Y-117006666D01*
X154820952Y-117054285D01*
X154868571Y-117101904D01*
X154916190Y-117197142D01*
X154916190Y-117578095D01*
X155392381Y-116054285D02*
X155392381Y-116625714D01*
X155392381Y-116340000D02*
X154392381Y-116340000D01*
X154535238Y-116435238D01*
X154630476Y-116530476D01*
X154678095Y-116625714D01*
X152852381Y-117006666D02*
X152376190Y-117340000D01*
X152852381Y-117578095D02*
X151852381Y-117578095D01*
X151852381Y-117197142D01*
X151900000Y-117101904D01*
X151947619Y-117054285D01*
X152042857Y-117006666D01*
X152185714Y-117006666D01*
X152280952Y-117054285D01*
X152328571Y-117101904D01*
X152376190Y-117197142D01*
X152376190Y-117578095D01*
X151947619Y-116625714D02*
X151900000Y-116578095D01*
X151852381Y-116482857D01*
X151852381Y-116244761D01*
X151900000Y-116149523D01*
X151947619Y-116101904D01*
X152042857Y-116054285D01*
X152138095Y-116054285D01*
X152280952Y-116101904D01*
X152852381Y-116673333D01*
X152852381Y-116054285D01*
X147772381Y-117006666D02*
X147296190Y-117340000D01*
X147772381Y-117578095D02*
X146772381Y-117578095D01*
X146772381Y-117197142D01*
X146820000Y-117101904D01*
X146867619Y-117054285D01*
X146962857Y-117006666D01*
X147105714Y-117006666D01*
X147200952Y-117054285D01*
X147248571Y-117101904D01*
X147296190Y-117197142D01*
X147296190Y-117578095D01*
X146772381Y-116673333D02*
X146772381Y-116054285D01*
X147153333Y-116387619D01*
X147153333Y-116244761D01*
X147200952Y-116149523D01*
X147248571Y-116101904D01*
X147343810Y-116054285D01*
X147581905Y-116054285D01*
X147677143Y-116101904D01*
X147724762Y-116149523D01*
X147772381Y-116244761D01*
X147772381Y-116530476D01*
X147724762Y-116625714D01*
X147677143Y-116673333D01*
X145232381Y-117006666D02*
X144756190Y-117340000D01*
X145232381Y-117578095D02*
X144232381Y-117578095D01*
X144232381Y-117197142D01*
X144280000Y-117101904D01*
X144327619Y-117054285D01*
X144422857Y-117006666D01*
X144565714Y-117006666D01*
X144660952Y-117054285D01*
X144708571Y-117101904D01*
X144756190Y-117197142D01*
X144756190Y-117578095D01*
X144565714Y-116149523D02*
X145232381Y-116149523D01*
X144184762Y-116387619D02*
X144899048Y-116625714D01*
X144899048Y-116006666D01*
X142692381Y-117006666D02*
X142216190Y-117340000D01*
X142692381Y-117578095D02*
X141692381Y-117578095D01*
X141692381Y-117197142D01*
X141740000Y-117101904D01*
X141787619Y-117054285D01*
X141882857Y-117006666D01*
X142025714Y-117006666D01*
X142120952Y-117054285D01*
X142168571Y-117101904D01*
X142216190Y-117197142D01*
X142216190Y-117578095D01*
X141692381Y-116101904D02*
X141692381Y-116578095D01*
X142168571Y-116625714D01*
X142120952Y-116578095D01*
X142073333Y-116482857D01*
X142073333Y-116244761D01*
X142120952Y-116149523D01*
X142168571Y-116101904D01*
X142263810Y-116054285D01*
X142501905Y-116054285D01*
X142597143Y-116101904D01*
X142644762Y-116149523D01*
X142692381Y-116244761D01*
X142692381Y-116482857D01*
X142644762Y-116578095D01*
X142597143Y-116625714D01*
X143343334Y-94432381D02*
X143010000Y-93956190D01*
X142771905Y-94432381D02*
X142771905Y-93432381D01*
X143152858Y-93432381D01*
X143248096Y-93480000D01*
X143295715Y-93527619D01*
X143343334Y-93622857D01*
X143343334Y-93765714D01*
X143295715Y-93860952D01*
X143248096Y-93908571D01*
X143152858Y-93956190D01*
X142771905Y-93956190D01*
X144200477Y-93432381D02*
X144010000Y-93432381D01*
X143914762Y-93480000D01*
X143867143Y-93527619D01*
X143771905Y-93670476D01*
X143724286Y-93860952D01*
X143724286Y-94241905D01*
X143771905Y-94337143D01*
X143819524Y-94384762D01*
X143914762Y-94432381D01*
X144105239Y-94432381D01*
X144200477Y-94384762D01*
X144248096Y-94337143D01*
X144295715Y-94241905D01*
X144295715Y-94003810D01*
X144248096Y-93908571D01*
X144200477Y-93860952D01*
X144105239Y-93813333D01*
X143914762Y-93813333D01*
X143819524Y-93860952D01*
X143771905Y-93908571D01*
X143724286Y-94003810D01*
X163012381Y-117006666D02*
X162536190Y-117340000D01*
X163012381Y-117578095D02*
X162012381Y-117578095D01*
X162012381Y-117197142D01*
X162060000Y-117101904D01*
X162107619Y-117054285D01*
X162202857Y-117006666D01*
X162345714Y-117006666D01*
X162440952Y-117054285D01*
X162488571Y-117101904D01*
X162536190Y-117197142D01*
X162536190Y-117578095D01*
X162012381Y-116673333D02*
X162012381Y-116006666D01*
X163012381Y-116435238D01*
X165552381Y-132818095D02*
X164552381Y-132818095D01*
X164552381Y-132437142D01*
X164600000Y-132341904D01*
X164647619Y-132294285D01*
X164742857Y-132246666D01*
X164885714Y-132246666D01*
X164980952Y-132294285D01*
X165028571Y-132341904D01*
X165076190Y-132437142D01*
X165076190Y-132818095D01*
X165552381Y-131294285D02*
X165552381Y-131865714D01*
X165552381Y-131580000D02*
X164552381Y-131580000D01*
X164695238Y-131675238D01*
X164790476Y-131770476D01*
X164838095Y-131865714D01*
X150899762Y-104838333D02*
X150947381Y-104695476D01*
X150947381Y-104457380D01*
X150899762Y-104362142D01*
X150852143Y-104314523D01*
X150756905Y-104266904D01*
X150661667Y-104266904D01*
X150566429Y-104314523D01*
X150518810Y-104362142D01*
X150471190Y-104457380D01*
X150423571Y-104647857D01*
X150375952Y-104743095D01*
X150328333Y-104790714D01*
X150233095Y-104838333D01*
X150137857Y-104838333D01*
X150042619Y-104790714D01*
X149995000Y-104743095D01*
X149947381Y-104647857D01*
X149947381Y-104409761D01*
X149995000Y-104266904D01*
X149947381Y-103933571D02*
X150947381Y-103695476D01*
X150233095Y-103504999D01*
X150947381Y-103314523D01*
X149947381Y-103076428D01*
X150947381Y-102171666D02*
X150947381Y-102743095D01*
X150947381Y-102457381D02*
X149947381Y-102457381D01*
X150090238Y-102552619D01*
X150185476Y-102647857D01*
X150233095Y-102743095D01*
X152972381Y-110311905D02*
X151972381Y-110311905D01*
X152972381Y-109740476D02*
X152400952Y-110169048D01*
X151972381Y-109740476D02*
X152543810Y-110311905D01*
X159202381Y-120118095D02*
X158202381Y-120118095D01*
X158202381Y-119880000D01*
X158250000Y-119737142D01*
X158345238Y-119641904D01*
X158440476Y-119594285D01*
X158630952Y-119546666D01*
X158773810Y-119546666D01*
X158964286Y-119594285D01*
X159059524Y-119641904D01*
X159154762Y-119737142D01*
X159202381Y-119880000D01*
X159202381Y-120118095D01*
X159202381Y-118594285D02*
X159202381Y-119165714D01*
X159202381Y-118880000D02*
X158202381Y-118880000D01*
X158345238Y-118975238D01*
X158440476Y-119070476D01*
X158488095Y-119165714D01*
X160942381Y-126411905D02*
X159942381Y-126411905D01*
X160942381Y-125840476D02*
X160370952Y-126269048D01*
X159942381Y-125840476D02*
X160513810Y-126411905D01*
M02*
