<?xml version="1.0" standalone="no"?>
 <!DOCTYPE svg PUBLIC "-//W3C//DTD SVG 1.1//EN" 
 "http://www.w3.org/Graphics/SVG/1.1/DTD/svg11.dtd"> 
<svg xmlns="http://www.w3.org/2000/svg" version="1.1" 
    width="29.7002cm" height="21.0007cm" viewBox="0 0 116930 82680 ">
<title>SVG Picture created as ATTINY85-HVP-Uno-B.Cu.svg date 2019/08/04 09:06:54 </title>
  <desc>Picture generated by PCBNEW </desc>
<g style="fill:#000000; fill-opacity:1;stroke:#000000; stroke-opacity:1;
stroke-linecap:round; stroke-linejoin:round; "
 transform="translate(0 0) scale(1 1)">
</g>
<g style="fill:#000000; fill-opacity:0.0; 
stroke:#000000; stroke-width:-0.000393701; stroke-opacity:1; 
stroke-linecap:round; stroke-linejoin:round;">
</g>
<g style="fill:#000000; fill-opacity:1.0; 
stroke:#000000; stroke-width:39.3701; stroke-opacity:1; 
stroke-linecap:round; stroke-linejoin:round;">
<rect x="51031.5" y="28409.4" width="22075.7" height="29840.6" rx="0" />
</g>
<g style="fill:#FFFFFF; fill-opacity:1.0; 
stroke:#FFFFFF; stroke-width:39.3701; stroke-opacity:1; 
stroke-linecap:round; stroke-linejoin:round;">
</g>
<g style="fill:#FFFFFF; fill-opacity:0.0; 
stroke:#FFFFFF; stroke-width:39.3701; stroke-opacity:1; 
stroke-linecap:round; stroke-linejoin:round;">
</g>
<g style="fill:#FFFFFF; fill-opacity:0.0; 
stroke:#FFFFFF; stroke-width:98.4252; stroke-opacity:1; 
stroke-linecap:round; stroke-linejoin:round;">
<path d="M57343 35107
L57212 35107
" />
<path d="M57156 35417
L57343 35417
L57343 34826
L57156 34826
" />
<path d="M57024 35023
L56949 35417
L56874 35135
L56799 35417
L56724 35023
" />
<path d="M56406 35417
L56406 35107
L56424 35051
L56462 35023
L56537 35023
L56574 35051
" />
<path d="M56406 35389
L56443 35417
L56537 35417
L56574 35389
L56593 35332
L56593 35276
L56574 35220
L56537 35192
L56443 35192
L56406 35164
" />
<path d="M56218 35023
L56218 35417
" />
<path d="M56218 35079
L56199 35051
L56162 35023
L56106 35023
L56068 35051
L56049 35107
L56049 35417
" />
<path d="M55562 35417
L55562 34826
L55412 34826
L55375 34854
L55356 34882
L55337 34939
L55337 35023
L55356 35079
L55375 35107
L55412 35135
L55562 35135
" />
<path d="M55000 35417
L55000 35107
L55018 35051
L55056 35023
L55131 35023
L55168 35051
" />
<path d="M55000 35389
L55037 35417
L55131 35417
L55168 35389
L55187 35332
L55187 35276
L55168 35220
L55131 35192
L55037 35192
L55000 35164
" />
<path d="M54812 35417
L54812 35023
" />
<path d="M54812 35135
L54793 35079
L54775 35051
L54737 35023
L54700 35023
" />
<path d="M54568 35417
L54568 34826
" />
<path d="M54531 35192
L54418 35417
" />
<path d="M54418 35023
L54568 35248
" />
<path d="M54100 35389
L54137 35417
L54212 35417
L54250 35389
L54268 35332
L54268 35107
L54250 35051
L54212 35023
L54137 35023
L54100 35051
L54081 35107
L54081 35164
L54268 35220
" />
<path d="M53912 35417
L53912 35023
" />
<path d="M53912 35135
L53893 35079
L53875 35051
L53837 35023
L53800 35023
" />
</g>
<g style="fill:#FFFFFF; fill-opacity:0.0; 
stroke:#FFFFFF; stroke-width:118.11; stroke-opacity:1; 
stroke-linecap:round; stroke-linejoin:round;">
<path d="M59345 34248
L59082 34248
" />
<path d="M59397 34417
L59213 33826
L59030 34417
" />
<path d="M58925 33826
L58741 34417
L58557 33826
" />
<path d="M58058 34417
L58242 34135
" />
<path d="M58373 34417
L58373 33826
L58163 33826
L58111 33854
L58085 33882
L58058 33939
L58058 34023
L58085 34079
L58111 34107
L58163 34135
L58373 34135
" />
<path d="M57402 34417
L57402 33826
" />
<path d="M57402 34107
L57087 34107
" />
<path d="M57087 34417
L57087 33826
" />
<path d="M56904 33826
L56720 34417
L56536 33826
" />
<path d="M56379 34389
L56300 34417
L56169 34417
L56116 34389
L56090 34360
L56064 34304
L56064 34248
L56090 34192
L56116 34164
L56169 34135
L56274 34107
L56326 34079
L56352 34051
L56379 33995
L56379 33939
L56352 33882
L56326 33854
L56274 33826
L56142 33826
L56064 33854
" />
<path d="M55827 34417
L55827 33826
L55617 33826
L55565 33854
L55539 33882
L55512 33939
L55512 34023
L55539 34079
L55565 34107
L55617 34135
L55827 34135
" />
<path d="M54751 33826
L54699 33826
L54646 33854
L54620 33882
L54594 33939
L54568 34051
L54568 34192
L54594 34304
L54620 34360
L54646 34389
L54699 34417
L54751 34417
L54804 34389
L54830 34360
L54856 34304
L54883 34192
L54883 34051
L54856 33939
L54830 33882
L54804 33854
L54751 33826
" />
<path d="M54331 34360
L54305 34389
L54331 34417
L54358 34389
L54331 34360
L54331 34417
" />
<path d="M53780 34417
L54095 34417
" />
<path d="M53938 34417
L53938 33826
L53990 33910
L54043 33967
L54095 33995
" />
<path d="M64865 34417
L65203 34417
" />
<path d="M65034 34417
L65034 33826
L65090 33910
L65146 33967
L65203 33995
" />
<path d="M64640 33882
L64612 33854
L64556 33826
L64415 33826
L64359 33854
L64331 33882
L64303 33939
L64303 33995
L64331 34079
L64668 34417
L64303 34417
" />
<path d="M64134 33826
L63937 34417
L63740 33826
" />
<path d="M54831 46367
L55168 46367
" />
<path d="M54999 46367
L54999 45776
L55056 45860
L55112 45917
L55168 45945
" />
<path d="M64471 48648
L64190 48648
" />
<path d="M64528 48817
L64331 48226
L64134 48817
" />
<path d="M63656 48226
L63937 48226
L63965 48507
L63937 48479
L63881 48451
L63740 48451
L63684 48479
L63656 48507
L63628 48564
L63628 48704
L63656 48760
L63684 48789
L63740 48817
L63881 48817
L63937 48789
L63965 48760
" />
<path d="M57717 48817
L57717 48226
L57576 48226
L57492 48254
L57435 48310
L57407 48367
L57379 48479
L57379 48564
L57407 48676
L57435 48732
L57492 48789
L57576 48817
L57717 48817
" />
<path d="M56817 48817
L57154 48817
" />
<path d="M56985 48817
L56985 48226
L57042 48310
L57098 48367
L57154 48395
" />
<path d="M56451 48226
L56395 48226
L56339 48254
L56311 48282
L56282 48339
L56254 48451
L56254 48592
L56282 48704
L56311 48760
L56339 48789
L56395 48817
L56451 48817
L56507 48789
L56535 48760
L56564 48704
L56592 48592
L56592 48451
L56564 48339
L56535 48282
L56507 48254
L56451 48226
" />
</g>
<g style="fill:#FFFFFF; fill-opacity:0.0; 
stroke:#FFFFFF; stroke-width:150; stroke-opacity:1; 
stroke-linecap:round; stroke-linejoin:round;">
<path d="M64100 35900
L64650 36650
" />
<path d="M64650 36650
L64150 36650
" />
<path d="M64750 37400
L64800 37800
" />
<path d="M64800 37800
L64500 37550
" />
<path d="M64500 37550
L64700 37650
" />
<path d="M64700 37650
L64000 36550
" />
<path d="M64000 36550
L64500 36550
" />
<path d="M64500 36550
L63800 35750
" />
<path d="M63800 35750
L64100 35950
" />
<path d="M64100 35950
L64150 35750
" />
<path d="M64200 35800
L64800 36700
" />
<path d="M64800 36700
L64250 36700
" />
<path d="M64250 36700
L64700 37600
" />
<path d="M64700 37600
L64750 37400
" />
</g>
<g style="fill:#FFFFFF; fill-opacity:0.0; 
stroke:#FFFFFF; stroke-width:629.921; stroke-opacity:1; 
stroke-linecap:round; stroke-linejoin:round;">
<path d="M55000 45137
L55000 44862
" />
<path d="M56000 45137
L56000 44862
" />
<path d="M57000 45137
L57000 44862
" />
<path d="M58000 45137
L58000 44862
" />
<path d="M58000 42137
L58000 41862
" />
<path d="M57000 42137
L57000 41862
" />
<path d="M56000 42137
L56000 41862
" />
<path d="M55000 42137
L55000 41862
" />
</g>
<g style="fill:#FFFFFF; fill-opacity:1.0; 
stroke:#FFFFFF; stroke-width:0; stroke-opacity:1; 
stroke-linecap:round; stroke-linejoin:round;">
<circle cx="56000" cy="40000" r="300" /> 
</g>
<g style="fill:#FFFFFF; fill-opacity:1.0; 
stroke:#FFFFFF; stroke-width:39.3701; stroke-opacity:1; 
stroke-linecap:round; stroke-linejoin:round;">
</g>
<g style="fill:#FFFFFF; fill-opacity:1.0; 
stroke:#FFFFFF; stroke-width:0; stroke-opacity:1; 
stroke-linecap:round; stroke-linejoin:round;">
<circle cx="57000" cy="40000" r="300" /> 
</g>
<g style="fill:#FFFFFF; fill-opacity:1.0; 
stroke:#FFFFFF; stroke-width:39.3701; stroke-opacity:1; 
stroke-linecap:round; stroke-linejoin:round;">
</g>
<g style="fill:#FFFFFF; fill-opacity:1.0; 
stroke:#FFFFFF; stroke-width:0; stroke-opacity:1; 
stroke-linecap:round; stroke-linejoin:round;">
<circle cx="55000" cy="40000" r="300" /> 
</g>
<g style="fill:#FFFFFF; fill-opacity:1.0; 
stroke:#FFFFFF; stroke-width:39.3701; stroke-opacity:1; 
stroke-linecap:round; stroke-linejoin:round;">
</g>
<g style="fill:#FFFFFF; fill-opacity:1.0; 
stroke:#FFFFFF; stroke-width:0; stroke-opacity:1; 
stroke-linecap:round; stroke-linejoin:round;">
<circle cx="62400" cy="37000" r="945" /> 
</g>
<g style="fill:#FFFFFF; fill-opacity:1.0; 
stroke:#FFFFFF; stroke-width:39.3701; stroke-opacity:1; 
stroke-linecap:round; stroke-linejoin:round;">
</g>
<g style="fill:#FFFFFF; fill-opacity:1.0; 
stroke:#FFFFFF; stroke-width:0; stroke-opacity:1; 
stroke-linecap:round; stroke-linejoin:round;">
<polyline style="fill-rule:evenodd;"
points="60945,36055
60945,37945
59055,37945
59055,36055
60945,36055
" /> 
<circle cx="61500" cy="35000" r="945" /> 
</g>
<g style="fill:#FFFFFF; fill-opacity:1.0; 
stroke:#FFFFFF; stroke-width:39.3701; stroke-opacity:1; 
stroke-linecap:round; stroke-linejoin:round;">
</g>
<g style="fill:#FFFFFF; fill-opacity:1.0; 
stroke:#FFFFFF; stroke-width:0; stroke-opacity:1; 
stroke-linecap:round; stroke-linejoin:round;">
<circle cx="61000" cy="47000" r="393.5" /> 
</g>
<g style="fill:#FFFFFF; fill-opacity:1.0; 
stroke:#FFFFFF; stroke-width:39.3701; stroke-opacity:1; 
stroke-linecap:round; stroke-linejoin:round;">
</g>
<g style="fill:#FFFFFF; fill-opacity:1.0; 
stroke:#FFFFFF; stroke-width:0; stroke-opacity:1; 
stroke-linecap:round; stroke-linejoin:round;">
<circle cx="61000" cy="50000" r="393.5" /> 
</g>
<g style="fill:#FFFFFF; fill-opacity:1.0; 
stroke:#FFFFFF; stroke-width:39.3701; stroke-opacity:1; 
stroke-linecap:round; stroke-linejoin:round;">
</g>
<g style="fill:#FFFFFF; fill-opacity:1.0; 
stroke:#FFFFFF; stroke-width:0; stroke-opacity:1; 
stroke-linecap:round; stroke-linejoin:round;">
<circle cx="60000" cy="47000" r="393.5" /> 
</g>
<g style="fill:#FFFFFF; fill-opacity:1.0; 
stroke:#FFFFFF; stroke-width:39.3701; stroke-opacity:1; 
stroke-linecap:round; stroke-linejoin:round;">
</g>
<g style="fill:#FFFFFF; fill-opacity:1.0; 
stroke:#FFFFFF; stroke-width:0; stroke-opacity:1; 
stroke-linecap:round; stroke-linejoin:round;">
<circle cx="60000" cy="50000" r="393.5" /> 
</g>
<g style="fill:#FFFFFF; fill-opacity:1.0; 
stroke:#FFFFFF; stroke-width:39.3701; stroke-opacity:1; 
stroke-linecap:round; stroke-linejoin:round;">
</g>
<g style="fill:#FFFFFF; fill-opacity:1.0; 
stroke:#FFFFFF; stroke-width:0; stroke-opacity:1; 
stroke-linecap:round; stroke-linejoin:round;">
<circle cx="58000" cy="47000" r="393.5" /> 
</g>
<g style="fill:#FFFFFF; fill-opacity:1.0; 
stroke:#FFFFFF; stroke-width:39.3701; stroke-opacity:1; 
stroke-linecap:round; stroke-linejoin:round;">
</g>
<g style="fill:#FFFFFF; fill-opacity:1.0; 
stroke:#FFFFFF; stroke-width:0; stroke-opacity:1; 
stroke-linecap:round; stroke-linejoin:round;">
<circle cx="58000" cy="50000" r="393.5" /> 
</g>
<g style="fill:#FFFFFF; fill-opacity:1.0; 
stroke:#FFFFFF; stroke-width:39.3701; stroke-opacity:1; 
stroke-linecap:round; stroke-linejoin:round;">
</g>
<g style="fill:#FFFFFF; fill-opacity:1.0; 
stroke:#FFFFFF; stroke-width:0; stroke-opacity:1; 
stroke-linecap:round; stroke-linejoin:round;">
<circle cx="57000" cy="47000" r="393.5" /> 
</g>
<g style="fill:#FFFFFF; fill-opacity:1.0; 
stroke:#FFFFFF; stroke-width:39.3701; stroke-opacity:1; 
stroke-linecap:round; stroke-linejoin:round;">
</g>
<g style="fill:#FFFFFF; fill-opacity:1.0; 
stroke:#FFFFFF; stroke-width:0; stroke-opacity:1; 
stroke-linecap:round; stroke-linejoin:round;">
<circle cx="57000" cy="50000" r="393.5" /> 
</g>
<g style="fill:#FFFFFF; fill-opacity:1.0; 
stroke:#FFFFFF; stroke-width:39.3701; stroke-opacity:1; 
stroke-linecap:round; stroke-linejoin:round;">
</g>
<g style="fill:#FFFFFF; fill-opacity:1.0; 
stroke:#FFFFFF; stroke-width:0; stroke-opacity:1; 
stroke-linecap:round; stroke-linejoin:round;">
<circle cx="56000" cy="47000" r="393.5" /> 
</g>
<g style="fill:#FFFFFF; fill-opacity:1.0; 
stroke:#FFFFFF; stroke-width:39.3701; stroke-opacity:1; 
stroke-linecap:round; stroke-linejoin:round;">
</g>
<g style="fill:#FFFFFF; fill-opacity:1.0; 
stroke:#FFFFFF; stroke-width:0; stroke-opacity:1; 
stroke-linecap:round; stroke-linejoin:round;">
<circle cx="56000" cy="50000" r="393.5" /> 
</g>
<g style="fill:#FFFFFF; fill-opacity:1.0; 
stroke:#FFFFFF; stroke-width:39.3701; stroke-opacity:1; 
stroke-linecap:round; stroke-linejoin:round;">
</g>
<g style="fill:#FFFFFF; fill-opacity:1.0; 
stroke:#FFFFFF; stroke-width:0; stroke-opacity:1; 
stroke-linecap:round; stroke-linejoin:round;">
<circle cx="55000" cy="38000" r="393.5" /> 
</g>
<g style="fill:#FFFFFF; fill-opacity:1.0; 
stroke:#FFFFFF; stroke-width:39.3701; stroke-opacity:1; 
stroke-linecap:round; stroke-linejoin:round;">
</g>
<g style="fill:#FFFFFF; fill-opacity:1.0; 
stroke:#FFFFFF; stroke-width:0; stroke-opacity:1; 
stroke-linecap:round; stroke-linejoin:round;">
<circle cx="58000" cy="38000" r="393.5" /> 
</g>
<g style="fill:#FFFFFF; fill-opacity:1.0; 
stroke:#FFFFFF; stroke-width:39.3701; stroke-opacity:1; 
stroke-linecap:round; stroke-linejoin:round;">
</g>
<g style="fill:#FFFFFF; fill-opacity:1.0; 
stroke:#FFFFFF; stroke-width:0; stroke-opacity:1; 
stroke-linecap:round; stroke-linejoin:round;">
<circle cx="64000" cy="50000" r="393.5" /> 
</g>
<g style="fill:#FFFFFF; fill-opacity:1.0; 
stroke:#FFFFFF; stroke-width:39.3701; stroke-opacity:1; 
stroke-linecap:round; stroke-linejoin:round;">
</g>
<g style="fill:#FFFFFF; fill-opacity:1.0; 
stroke:#FFFFFF; stroke-width:0; stroke-opacity:1; 
stroke-linecap:round; stroke-linejoin:round;">
<circle cx="64000" cy="47000" r="393.5" /> 
</g>
<g style="fill:#FFFFFF; fill-opacity:1.0; 
stroke:#FFFFFF; stroke-width:39.3701; stroke-opacity:1; 
stroke-linecap:round; stroke-linejoin:round;">
</g>
<g style="fill:#FFFFFF; fill-opacity:1.0; 
stroke:#FFFFFF; stroke-width:0; stroke-opacity:1; 
stroke-linecap:round; stroke-linejoin:round;">
<polyline style="fill-rule:evenodd;"
points="63660,51600
64340,51600
64340,52400
63660,52400
63660,51600
" /> 
</g>
<g style="fill:#FFFFFF; fill-opacity:1.0; 
stroke:#FFFFFF; stroke-width:680; stroke-opacity:1; 
stroke-linecap:round; stroke-linejoin:round;">
</g>
<g style="fill:#FFFFFF; fill-opacity:0.0; 
stroke:#FFFFFF; stroke-width:680; stroke-opacity:1; 
stroke-linecap:round; stroke-linejoin:round;">
<path d="M63000 51940
L63000 52060
" />
<path d="M62000 51940
L62000 52060
" />
<path d="M61000 51940
L61000 52060
" />
<path d="M60000 51940
L60000 52060
" />
<path d="M59000 51940
L59000 52060
" />
<path d="M58000 51940
L58000 52060
" />
<path d="M57000 51940
L57000 52060
" />
<path d="M56000 51940
L56000 52060
" />
<path d="M55000 51940
L55000 52060
" />
<path d="M63000 44740
L63000 45260
" />
<path d="M61031 44740
L61031 45260
" />
<path d="M63000 39818
L63000 40338
" />
<path d="M61031 39818
L61031 40338
" />
</g>
<g style="fill:#FFFFFF; fill-opacity:0.0; 
stroke:#FFFFFF; stroke-width:669.291; stroke-opacity:1; 
stroke-linecap:round; stroke-linejoin:round;">
<path d="M64673 42283
L64673 42795
" />
<path d="M59358 42283
L59358 42795
" />
</g>
<g style="fill:#FFFFFF; fill-opacity:0.0; 
stroke:#FFFFFF; stroke-width:0; stroke-opacity:1; 
stroke-linecap:round; stroke-linejoin:round;">
</g>
<g style="fill:#FFFFFF; fill-opacity:1.0; 
stroke:#FFFFFF; stroke-width:0; stroke-opacity:1; 
stroke-linecap:round; stroke-linejoin:round;">
<polyline style="fill-rule:evenodd;"
points="62893,48606
62893,49393
62106,49393
62106,48606
62893,48606
" /> 
<circle cx="62500" cy="48000" r="393.701" /> 
</g>
<g style="fill:#FFFFFF; fill-opacity:1.0; 
stroke:#FFFFFF; stroke-width:39.3701; stroke-opacity:1; 
stroke-linecap:round; stroke-linejoin:round;">
</g>
<g style="fill:#FFFFFF; fill-opacity:1.0; 
stroke:#FFFFFF; stroke-width:98.4252; stroke-opacity:1; 
stroke-linecap:round; stroke-linejoin:round;">
</g>
<g style="fill:#FFFFFF; fill-opacity:0.0; 
stroke:#FFFFFF; stroke-width:98.4252; stroke-opacity:1; 
stroke-linecap:round; stroke-linejoin:round;">
<path d="M59000 37000
L60000 37000
" />
<path d="M58000 38000
L59000 37000
" />
<path d="M55000 40000
L56062 41062
" />
<path d="M56062 41062
L57062 41062
" />
<path d="M57062 41062
L57500 41500
" />
<path d="M57500 41500
L57500 43000
" />
<path d="M57500 43000
L58000 43500
" />
<path d="M58000 43500
L58000 44448
" />
<path d="M58000 44448
L58000 45000
" />
<path d="M62968 47401
L62968 45000
" />
<path d="M63237 47670
L62968 47401
" />
<path d="M63237 49613
L63237 47670
" />
<path d="M63000 49851
L63237 49613
" />
<path d="M63000 52000
L63000 49851
" />
<path d="M54488 43532
L54488 38511
" />
<path d="M54488 38511
L55000 38000
" />
<path d="M57000 40000
L55000 38000
" />
<path d="M55000 45000
L55000 44043
" />
<path d="M55000 44043
L54488 43532
" />
<path d="M56000 47000
L56000 45000
" />
<path d="M60000 47000
L60000 46035
" />
<path d="M60000 46035
L59501 45536
" />
<path d="M59501 45536
L59501 45006
" />
<path d="M59501 45006
L58374 43879
" />
<path d="M58374 43879
L58374 42925
" />
<path d="M58374 42925
L58000 42551
" />
<path d="M58000 42551
L58000 42000
" />
<path d="M58000 47000
L57499 46499
" />
<path d="M57499 46499
L57499 43840
" />
<path d="M57499 43840
L57000 43341
" />
<path d="M57000 43341
L57000 42000
" />
<path d="M57000 47000
L56500 46500
" />
<path d="M56500 46500
L56500 43657
" />
<path d="M56500 43657
L56000 43157
" />
<path d="M56000 43157
L56000 42000
" />
<path d="M55000 52000
L55000 47000
" />
<path d="M55000 47000
L55501 46499
" />
<path d="M55501 46499
L55501 43687
" />
<path d="M55501 43687
L55000 43186
" />
<path d="M55000 43186
L55000 42000
" />
<path d="M56000 52000
L56000 50000
" />
<path d="M57000 52000
L57000 50000
" />
<path d="M58000 52000
L58000 50000
" />
<path d="M59000 52000
L59000 51000
" />
<path d="M59000 51000
L60000 50000
" />
<path d="M60000 52000
L60000 51000
" />
<path d="M60000 51000
L61000 50000
" />
<path d="M64000 52000
L64000 50000
" />
<path d="M61000 47000
L61000 46522
" />
<path d="M61000 46522
L59828 45350
" />
<path d="M59828 45350
L59828 44899
" />
<path d="M59828 44899
L58706 43777
" />
<path d="M58706 41706
L57716 40716
" />
<path d="M58706 43777
L58706 41706
" />
<path d="M57716 40716
L56716 40716
" />
<path d="M56716 40716
L56000 40000
" />
<path d="M63963 43504
L64000 43468
" />
<path d="M62250 44500
L63245 43504
" />
<path d="M63245 43504
L63963 43504
" />
<path d="M62250 45500
L62250 44500
" />
<path d="M62500 45750
L62250 45500
" />
<path d="M62500 48000
L62500 45750
" />
<path d="M64000 43468
L64673 42795
" />
<path d="M64000 47000
L64000 43468
" />
<path d="M64673 42795
L64673 42539
" />
<path d="M64644 42542
L64641 42539
" />
<path d="M64644 42919
L64644 42542
" />
</g>
<g style="fill:#FFFFFF; fill-opacity:1.0; 
stroke:#FFFFFF; stroke-width:100; stroke-opacity:1; 
stroke-linecap:round; stroke-linejoin:round;">
<polyline style="fill-rule:evenodd;"
points="63375,34872
65220,34872
65220,42078
65213,42056
65160,41955
65088,41867
65000,41794
64899,41740
64790,41706
64677,41694
64563,41705
64454,41737
64353,41790
64264,41861
64190,41949
64146,42029
64085,41987
63972,41940
63852,41915
63730,41914
63610,41937
63496,41983
63394,42050
63307,42136
63237,42237
63189,42349
63164,42469
63162,42591
63184,42712
63229,42825
63295,42928
63381,43016
63481,43086
63593,43135
63713,43161
63835,43164
63890,43154
63839,43205
63245,43205
63217,43208
63190,43210
63188,43211
63187,43211
63160,43219
63134,43226
63132,43227
63131,43228
63106,43241
63082,43253
63081,43254
63079,43255
63058,43272
63036,43290
63034,43292
63034,43292
63034,43292
63033,43293
62038,44288
62020,44309
62003,44330
62002,44332
62001,44333
61988,44357
61974,44382
61974,44383
61973,44385
61965,44411
61957,44437
61957,44439
61956,44440
61953,44468
61950,44495
61950,44498
61950,44498
61950,44499
61950,44500
61950,45500
61953,45527
61955,45555
61956,45556
61956,45558
61964,45584
61972,45611
61972,45612
61973,45614
61986,45638
61999,45662
62000,45664
62000,45665
62018,45687
62035,45708
62037,45710
62037,45710
62037,45710
62038,45711
62200,45873
62200,47426
62200,47426
62094,47495
62004,47584
61933,47688
61883,47804
61857,47927
61855,48054
61878,48178
61924,48295
61983,48387
61946,48412
61912,48446
61884,48487
61865,48533
61856,48581
61856,48887
61918,48950
62450,48950
62450,48942
62550,48942
62550,48950
62557,48950
62557,49050
62550,49050
62550,49581
62612,49643
62785,49643
62770,49661
62753,49682
62752,49684
62751,49685
62738,49709
62724,49733
62724,49735
62723,49736
62715,49763
62707,49789
62707,49791
62706,49792
62703,49820
62700,49847
62700,49850
62700,49850
62700,49850
62700,49851
62700,51430
62676,51443
62587,51515
62513,51603
62500,51627
62491,51610
62418,51521
62329,51447
62228,51392
62118,51358
62004,51346
61889,51357
61778,51389
61676,51443
61587,51515
61513,51603
61499,51627
61440,51546
61355,51468
61256,51407
61147,51368
61141,51367
61050,51414
61050,51950
61057,51950
61057,52050
61050,52050
61050,52585
61141,52632
61147,52631
61256,52592
61355,52531
61440,52453
61499,52372
61508,52389
61581,52478
61670,52552
61771,52607
61881,52641
61995,52653
62110,52642
62221,52610
62323,52556
62412,52484
62486,52396
62499,52372
62508,52389
62581,52478
62670,52552
62771,52607
62881,52641
62995,52653
63110,52642
63221,52610
63323,52556
63412,52484
63422,52473
63432,52507
63471,52566
63525,52612
63590,52641
63660,52651
64340,52651
64379,52648
64447,52627
64506,52588
64552,52534
64581,52469
64591,52400
64591,51600
64588,51560
64567,51492
64528,51433
64474,51387
64409,51358
64340,51348
64299,51348
64299,50572
64398,50509
64489,50422
64562,50319
64613,50204
64641,50081
64643,49936
64619,49813
64570,49696
64501,49591
64412,49501
64307,49431
64191,49382
64067,49356
63941,49356
63817,49379
63700,49426
63594,49496
63537,49552
63537,49272
64893,49272
64893,47709
63537,47709
63537,47670
63534,47643
63532,47615
63531,47614
63531,47612
63523,47586
63515,47559
63515,47558
63514,47556
63501,47532
63488,47507
63487,47506
63487,47505
63469,47483
63452,47462
63450,47459
63450,47459
63450,47459
63449,47459
63267,47277
63267,45786
63323,45757
63412,45685
63486,45597
63542,45496
63577,45386
63589,45272
63590,45264
63590,44735
63578,44621
63545,44511
63491,44409
63418,44320
63329,44246
63228,44191
63118,44157
63025,44148
63369,43803
63700,43803
63700,46426
63700,46426
63594,46496
63504,46584
63433,46688
63383,46804
63357,46927
63355,47054
63378,47178
63424,47295
63493,47401
63580,47492
63684,47564
63800,47614
63923,47642
64049,47644
64173,47622
64291,47577
64398,47509
64489,47422
64562,47319
64613,47204
64641,47081
64643,46936
64619,46813
64570,46696
64501,46591
64412,46501
64307,46431
64299,46427
64299,43592
64528,43363
64555,43372
64669,43383
64782,43373
64892,43341
64993,43288
65082,43217
65155,43129
65210,43029
65220,42998
65220,52720
53779,52720
53779,38511
54189,38511
54189,43532
54192,43559
54194,43587
54195,43588
54195,43590
54203,43616
54211,43643
54211,43644
54212,43646
54225,43670
54237,43695
54238,43696
54239,43697
54257,43719
54274,43740
54276,43742
54276,43742
54276,43742
54277,43743
54700,44167
54700,44380
54690,44386
54604,44455
54533,44539
54480,44636
54447,44741
54435,44850
54435,44858
54435,45141
54445,45250
54448,45259
54409,45259
54409,46822
54760,46822
54753,46831
54752,46833
54751,46834
54738,46858
54724,46882
54724,46884
54723,46885
54715,46912
54707,46938
54707,46940
54706,46941
54703,46969
54700,46996
54700,46999
54700,46999
54700,46999
54700,47000
54700,51430
54676,51443
54587,51515
54513,51603
54457,51704
54422,51814
54410,51928
54410,51936
54410,52063
54421,52177
54454,52287
54508,52389
54581,52478
54670,52552
54771,52607
54881,52641
54995,52653
55110,52642
55221,52610
55323,52556
55412,52484
55486,52396
55499,52372
55508,52389
55581,52478
55670,52552
55771,52607
55881,52641
55995,52653
56110,52642
56221,52610
56323,52556
56412,52484
56486,52396
56499,52372
56508,52389
56581,52478
56670,52552
56771,52607
56881,52641
56995,52653
57110,52642
57221,52610
57323,52556
57412,52484
57486,52396
57499,52372
57508,52389
57581,52478
57670,52552
57771,52607
57881,52641
57995,52653
58110,52642
58221,52610
58323,52556
58412,52484
58486,52396
58499,52372
58508,52389
58581,52478
58670,52552
58771,52607
58881,52641
58995,52653
59110,52642
59221,52610
59323,52556
59412,52484
59486,52396
59499,52372
59508,52389
59581,52478
59670,52552
59771,52607
59881,52641
59995,52653
60110,52642
60221,52610
60323,52556
60412,52484
60486,52396
60500,52372
60559,52453
60644,52531
60743,52592
60852,52631
60858,52632
60950,52585
60950,52050
60942,52050
60942,51950
60950,51950
60950,51414
60858,51367
60852,51368
60743,51407
60644,51468
60559,51546
60500,51627
60491,51610
60418,51521
60329,51447
60299,51431
60299,51123
60806,50616
60923,50642
61049,50644
61173,50622
61291,50577
61398,50509
61489,50422
61562,50319
61613,50204
61641,50081
61643,49936
61619,49813
61570,49696
61501,49591
61412,49501
61307,49431
61191,49382
61067,49356
60941,49356
60817,49379
60700,49426
60594,49496
60504,49584
60500,49590
60412,49501
60307,49431
60191,49382
60067,49356
59941,49356
59817,49379
59700,49426
59594,49496
59504,49584
59433,49688
59383,49804
59357,49927
59355,50054
59378,50178
59384,50192
58788,50788
58770,50809
58753,50830
58752,50832
58751,50833
58738,50857
58724,50882
58724,50883
58723,50885
58715,50911
58707,50937
58707,50939
58706,50940
58703,50968
58700,50995
58700,50998
58700,50998
58700,50999
58700,51000
58700,51430
58676,51443
58587,51515
58513,51603
58500,51627
58491,51610
58418,51521
58329,51447
58299,51431
58299,50572
58398,50509
58489,50422
58562,50319
58613,50204
58641,50081
58643,49936
58619,49813
58570,49696
58501,49591
58412,49501
58307,49431
58191,49382
58067,49356
57941,49356
57817,49379
57700,49426
57594,49496
57504,49584
57500,49590
57412,49501
57307,49431
57191,49382
57067,49356
56941,49356
56817,49379
56700,49426
56594,49496
56504,49584
56500,49590
56412,49501
56307,49431
56191,49382
56067,49356
55941,49356
55817,49379
55700,49426
55594,49496
55504,49584
55433,49688
55383,49804
55357,49927
55355,50054
55378,50178
55424,50295
55493,50401
55580,50492
55684,50564
55700,50571
55700,51430
55676,51443
55587,51515
55513,51603
55500,51627
55491,51610
55418,51521
55329,51447
55299,51431
55299,47709
55833,47709
55833,49272
58166,49272
58166,49112
61856,49112
61856,49418
61865,49466
61884,49512
61912,49553
61946,49587
61987,49615
62033,49634
62081,49643
62387,49643
62450,49581
62450,49050
61918,49050
61856,49112
58166,49112
58166,47709
55833,47709
55299,47709
55299,47124
55357,47066
55378,47178
55424,47295
55493,47401
55580,47492
55684,47564
55800,47614
55923,47642
56049,47644
56173,47622
56291,47577
56398,47509
56489,47422
56499,47408
56580,47492
56684,47564
56800,47614
56923,47642
57049,47644
57173,47622
57291,47577
57398,47509
57489,47422
57499,47408
57580,47492
57684,47564
57800,47614
57923,47642
58049,47644
58173,47622
58291,47577
58398,47509
58489,47422
58562,47319
58613,47204
58641,47081
58643,46936
58619,46813
58570,46696
58501,46591
58412,46501
58307,46431
58191,46382
58067,46356
57941,46356
57817,46379
57807,46383
57798,46375
57798,45665
57829,45678
57862,45685
57950,45637
57950,45050
58050,45050
58050,45637
58137,45685
58170,45678
58272,45635
58364,45572
58441,45493
58502,45400
58544,45297
58564,45187
58564,45050
58050,45050
57950,45050
57942,45050
57942,44950
57950,44950
57950,44362
58050,44362
58050,44950
58564,44950
58564,44812
58544,44702
58502,44599
58441,44506
58364,44427
58272,44364
58170,44321
58137,44314
58050,44362
57950,44362
57862,44314
57829,44321
57798,44334
57798,43840
57795,43812
57793,43785
57793,43783
57792,43782
57784,43755
57777,43729
57776,43727
57776,43726
57763,43702
57750,43677
57749,43676
57748,43674
57731,43653
57713,43631
57711,43629
57711,43629
57711,43629
57710,43628
57299,43217
57299,42619
57309,42613
57395,42544
57466,42460
57500,42398
57529,42453
57599,42539
57684,42609
57710,42624
57714,42635
57722,42662
57722,42663
57723,42665
57736,42689
57749,42714
57750,42715
57750,42716
57768,42738
57785,42759
57787,42761
57787,42762
57787,42762
57788,42762
58075,43049
58075,43879
58078,43906
58080,43934
58080,43935
58081,43937
58089,43963
58096,43990
58097,43991
58097,43993
58110,44017
58123,44042
58124,44043
58125,44044
58142,44066
58160,44087
58162,44090
58162,44090
58162,44090
58163,44090
59202,45130
59202,45536
59204,45564
59207,45591
59207,45593
59207,45594
59215,45621
59223,45647
59224,45649
59224,45650
59237,45675
59250,45699
59251,45700
59252,45702
59269,45723
59286,45745
59289,45747
59289,45747
59289,45747
59289,45748
59700,46159
59700,46426
59700,46426
59594,46496
59504,46584
59433,46688
59383,46804
59357,46927
59355,47054
59378,47178
59424,47295
59493,47401
59580,47492
59684,47564
59800,47614
59923,47642
60049,47644
60173,47622
60291,47577
60398,47509
60489,47422
60499,47408
60580,47492
60684,47564
60800,47614
60923,47642
61049,47644
61173,47622
61291,47577
61398,47509
61489,47422
61562,47319
61613,47204
61641,47081
61643,46936
61619,46813
61570,46696
61501,46591
61412,46501
61307,46431
61280,46419
61277,46411
61277,46409
61276,46408
61263,46383
61250,46359
61249,46357
61249,46356
61231,46335
61214,46313
61212,46311
61212,46311
61212,46311
61211,46310
60127,45226
60127,45050
60441,45050
60441,45310
60462,45424
60505,45531
60568,45629
60649,45712
60745,45778
60851,45824
60890,45832
60981,45785
60981,45050
61081,45050
61081,45785
61172,45832
61211,45824
61317,45778
61413,45712
61494,45629
61557,45531
61600,45424
61621,45310
61621,45050
61081,45050
60981,45050
60441,45050
60127,45050
60127,44899
60124,44872
60122,44844
60122,44843
60121,44841
60113,44815
60106,44788
60105,44787
60105,44785
60092,44761
60079,44736
60078,44735
60077,44734
60060,44712
60042,44691
60041,44690
60441,44690
60441,44950
60981,44950
60981,44214
61081,44214
61081,44950
61621,44950
61621,44690
61600,44575
61557,44468
61494,44370
61413,44287
61317,44221
61211,44175
61172,44167
61081,44214
60981,44214
60890,44167
60851,44175
60745,44221
60649,44287
60568,44370
60505,44468
60462,44575
60441,44690
60041,44690
60040,44689
60040,44689
60040,44689
60039,44688
59005,43653
59005,43261
59075,43309
59180,43354
59217,43362
59308,43315
59308,42589
59300,42589
59300,42489
59308,42489
59308,41763
59408,41763
59408,42489
59416,42489
59416,42589
59408,42589
59408,43315
59498,43362
59535,43354
59641,43309
59736,43244
59816,43161
59879,43065
59885,43049
59938,43086
60050,43135
60169,43161
60292,43164
60412,43143
60526,43099
60630,43033
60718,42949
60789,42849
60839,42737
60866,42617
60868,42478
60844,42358
60797,42244
60730,42143
60643,42056
60542,41987
60429,41940
60309,41915
60187,41914
60067,41937
59953,41983
59885,42028
59879,42013
59816,41917
59736,41834
59641,41769
59535,41724
59498,41715
59408,41763
59308,41763
59217,41715
59180,41724
59075,41769
59005,41817
59005,41706
59002,41678
59000,41651
58999,41649
58999,41648
58991,41621
58984,41595
58983,41593
58982,41592
58969,41567
58957,41543
58956,41542
58955,41540
58938,41519
58920,41497
58918,41495
58918,41495
58918,41495
58917,41494
57927,40504
57906,40487
57885,40469
57883,40468
57882,40467
57858,40454
57834,40441
57832,40440
57831,40440
57804,40431
57778,40423
57776,40423
57775,40422
57747,40420
57720,40417
57717,40417
57717,40417
57717,40417
57716,40417
57359,40417
57418,40361
57480,40272
57524,40174
57534,40128
60441,40128
60441,40388
60462,40502
60505,40610
60568,40708
60649,40791
60745,40857
60851,40902
60890,40911
60981,40863
60981,40128
61081,40128
61081,40863
61172,40911
61211,40902
61317,40857
61413,40791
61494,40708
61557,40610
61600,40502
61621,40388
61621,40128
61081,40128
60981,40128
60441,40128
57534,40128
57548,40069
57550,39946
57529,39840
57499,39768
60441,39768
60441,40028
60981,40028
60981,39293
61081,39293
61081,40028
61621,40028
61621,39814
62410,39814
62410,40342
62421,40457
62454,40567
62508,40669
62581,40758
62670,40831
62771,40886
62881,40920
62995,40932
63110,40922
63221,40889
63323,40836
63412,40764
63486,40676
63542,40575
63577,40465
63589,40351
63590,40342
63590,39814
63578,39700
63545,39589
63491,39488
63418,39398
63329,39325
63228,39270
63118,39236
63004,39224
62889,39235
62778,39267
62676,39320
62587,39393
62513,39481
62457,39582
62422,39691
62410,39806
62410,39814
61621,39814
61621,39768
61600,39654
61557,39546
61494,39449
61413,39366
61317,39300
61211,39254
61172,39245
61081,39293
60981,39293
60890,39245
60851,39254
60745,39300
60649,39366
60568,39449
60505,39546
60462,39654
60441,39768
57499,39768
57487,39740
57428,39650
57352,39574
57262,39513
57163,39472
57057,39450
56949,39449
56885,39461
55616,38192
55641,38081
55641,38054
57355,38054
57378,38178
57424,38295
57493,38401
57580,38492
57684,38564
57800,38614
57923,38642
58049,38644
58173,38622
58291,38577
58398,38509
58489,38422
58562,38319
58613,38204
58641,38081
58643,37936
58619,37813
58616,37806
58803,37619
58803,37945
58806,37984
58827,38052
58866,38111
58920,38157
58985,38186
59055,38196
60945,38196
60984,38193
61052,38172
61111,38133
61157,38079
61186,38014
61196,37945
61196,37839
61631,37839
61735,38000
61943,38110
62168,38178
62402,38200
62637,38177
62862,38108
63064,38000
63168,37839
62400,37070
61631,37839
61196,37839
61196,36156
61357,36192
61525,36195
61560,36231
61400,36335
61289,36543
61221,36768
61199,37002
61222,37237
61291,37462
61400,37664
61560,37768
62329,37000
62470,37000
63239,37768
63400,37664
63510,37456
63578,37231
63600,36997
63577,36762
63508,36537
63400,36335
63239,36231
62470,37000
62329,37000
62323,36994
62394,36923
62400,36929
63168,36160
63064,36000
62856,35889
62631,35821
62397,35799
62393,35799
62408,35784
62435,35747
63475,35747
63476,35767
63477,35788
63479,35799
63480,35810
63486,35830
63490,35850
63495,35860
63498,35871
63508,35889
63516,35908
63522,35917
63527,35927
63540,35943
63552,35960
63555,35964
63827,36274
63823,36277
63820,36279
63798,36296
63777,36313
63774,36316
63770,36319
63753,36340
63735,36361
63733,36364
63730,36368
63717,36392
63703,36416
63702,36420
63700,36424
63692,36450
63683,36476
63682,36480
63681,36484
63678,36511
63675,36539
63675,36543
63675,36547
63677,36575
63679,36602
63680,36606
63680,36610
63688,36637
63695,36663
63697,36667
63698,36671
63711,36696
63723,36720
63725,36724
64189,37453
64189,37456
64187,37461
64182,37487
64177,37512
64177,37518
64176,37524
64176,37550
64176,37576
64177,37581
64177,37587
64182,37612
64187,37638
64189,37643
64190,37649
64200,37673
64210,37697
64213,37702
64215,37707
64230,37729
64244,37750
64248,37755
64251,37759
64270,37778
64288,37796
64291,37799
64591,38049
64596,38052
64599,38055
64622,38070
64644,38085
64648,38087
64653,38089
64678,38099
64702,38110
64707,38111
64712,38112
64738,38117
64764,38123
64769,38123
64774,38124
64801,38123
64828,38123
64833,38122
64838,38122
64864,38117
64890,38112
64895,38110
64900,38109
64924,38098
64949,38088
64953,38085
64958,38083
64980,38068
65002,38054
65006,38050
65010,38047
65028,38028
65048,38009
65051,38005
65054,38002
65068,37979
65084,37957
65086,37953
65088,37948
65098,37924
65109,37899
65110,37894
65112,37889
65117,37863
65122,37837
65122,37832
65123,37827
65123,37800
65123,37773
65123,37769
65123,37764
65122,37759
65072,37359
65071,37356
65071,37352
65064,37325
65058,37297
65057,37294
65056,37291
65044,37265
65032,37239
65030,37236
65029,37233
65012,37211
64996,37187
64993,37185
64991,37182
64970,37163
64950,37144
64947,37142
64944,37139
64920,37125
64896,37110
64893,37108
64890,37106
64864,37097
64837,37087
64834,37086
64831,37085
64803,37081
64775,37025
64800,37025
64830,37021
64861,37019
64862,37018
64863,37018
64892,37009
64922,37001
64923,37000
64923,37000
64951,36985
64978,36971
64979,36971
64979,36970
65003,36951
65027,36931
65028,36931
65029,36930
65048,36906
65068,36883
65068,36882
65069,36881
65084,36854
65098,36827
65099,36826
65099,36825
65108,36796
65118,36767
65118,36766
65118,36765
65121,36734
65124,36704
65124,36703
65124,36702
65122,36671
65119,36640
65119,36639
65119,36639
65110,36609
65101,36579
65101,36579
65101,36578
65087,36550
65072,36523
65071,36522
65071,36522
65071,36521
65070,36519
64470,35619
64430,35570
64403,35548
64391,35532
64344,35489
64290,35456
64231,35435
64168,35425
64104,35428
64043,35443
63985,35469
63975,35477
63962,35469
63944,35458
63934,35454
63924,35449
63904,35443
63885,35436
63874,35434
63863,35431
63843,35429
63822,35425
63811,35426
63800,35425
63779,35426
63759,35427
63748,35430
63737,35431
63717,35437
63697,35441
63687,35446
63676,35449
63658,35458
63639,35467
63630,35473
63620,35479
63604,35492
63587,35503
63580,35511
63571,35519
63558,35534
63543,35549
63537,35559
63530,35567
63521,35585
63509,35603
63505,35613
63500,35623
63494,35643
63486,35662
63485,35673
63481,35684
63479,35704
63475,35724
63476,35736
63475,35747
62435,35747
62544,35593
62639,35379
62691,35150
62695,34882
62649,34652
62560,34436
62430,34241
62265,34074
62071,33943
61855,33852
61625,33805
61391,33804
61160,33848
60943,33935
60747,34064
60580,34228
60447,34421
60355,34636
60306,34866
60303,35100
60345,35330
60432,35548
60558,35745
60614,35803
59055,35803
59015,35806
58947,35827
58888,35866
58842,35920
58813,35985
58803,36055
58803,36775
58791,36785
58789,36787
58789,36787
58789,36787
58788,36788
58193,37383
58191,37382
58067,37356
57941,37356
57817,37379
57700,37426
57594,37496
57504,37584
57433,37688
57383,37804
57357,37927
57355,38054
55641,38054
55643,37936
55619,37813
55570,37696
55501,37591
55412,37501
55307,37431
55191,37382
55067,37356
54941,37356
54817,37379
54700,37426
54594,37496
54504,37584
54433,37688
54383,37804
54357,37927
54355,38054
54378,38178
54384,38192
54277,38299
54259,38320
54241,38342
54241,38343
54240,38344
54227,38369
54213,38393
54213,38394
54212,38396
54204,38422
54196,38448
54195,38450
54195,38452
54192,38479
54189,38506
54189,38510
54189,38510
54189,38510
54189,38511
53779,38511
53779,35862
57736,35862
57736,34872
59759,34872
59759,33779
63375,33779
63375,34872
" /> 
<polyline style="fill-rule:evenodd;"
points="56027,39450
55949,39449
55843,39469
55743,39510
55653,39569
55576,39644
55515,39733
55501,39768
55499,39762
55474,39716
55380,39690
55070,40000
55380,40309
55474,40283
55499,40230
55508,40252
55566,40343
55641,40420
55730,40482
55829,40525
55934,40548
56042,40551
56115,40538
56504,40927
56526,40945
56547,40963
56548,40963
56549,40964
56574,40977
56598,40991
56599,40991
56601,40992
56627,41000
56654,41008
56655,41009
56657,41009
56684,41012
56712,41015
56715,41015
56715,41015
56715,41015
56716,41015
57592,41015
57883,41306
57788,41334
57690,41386
57604,41455
57533,41539
57499,41601
57470,41546
57400,41460
57315,41390
57218,41337
57113,41305
57003,41293
56894,41303
56788,41334
56690,41386
56604,41455
56533,41539
56499,41601
56470,41546
56400,41460
56315,41390
56218,41337
56113,41305
56003,41293
55894,41303
55788,41334
55690,41386
55604,41455
55533,41539
55499,41601
55470,41546
55400,41460
55315,41390
55218,41337
55113,41305
55003,41293
54894,41303
54788,41334
54788,41335
54788,40508
54814,40520
54920,40546
55028,40551
55135,40535
55237,40499
55283,40474
55309,40380
55000,40070
54994,40076
54923,40005
54929,40000
54923,39994
54994,39923
55000,39929
55309,39619
55283,39525
55185,39479
55079,39453
54971,39448
54864,39464
54788,39491
54788,38635
54806,38616
54923,38642
55049,38644
55173,38622
55192,38615
56027,39450
" /> 
</g>
<g style="fill:#000000; fill-opacity:1.0; 
stroke:#000000; stroke-width:100; stroke-opacity:1; 
stroke-linecap:round; stroke-linejoin:round;">
</g>
<g style="fill:#000000; fill-opacity:1.0; 
stroke:#000000; stroke-width:0; stroke-opacity:1; 
stroke-linecap:round; stroke-linejoin:round;">
<circle cx="55000" cy="45000" r="68.8976" /> 
</g>
<g style="fill:#000000; fill-opacity:1.0; 
stroke:#000000; stroke-width:39.3701; stroke-opacity:1; 
stroke-linecap:round; stroke-linejoin:round;">
</g>
<g style="fill:#000000; fill-opacity:1.0; 
stroke:#000000; stroke-width:0; stroke-opacity:1; 
stroke-linecap:round; stroke-linejoin:round;">
<circle cx="56000" cy="45000" r="68.8976" /> 
</g>
<g style="fill:#000000; fill-opacity:1.0; 
stroke:#000000; stroke-width:39.3701; stroke-opacity:1; 
stroke-linecap:round; stroke-linejoin:round;">
</g>
<g style="fill:#000000; fill-opacity:1.0; 
stroke:#000000; stroke-width:0; stroke-opacity:1; 
stroke-linecap:round; stroke-linejoin:round;">
<circle cx="57000" cy="45000" r="68.8976" /> 
</g>
<g style="fill:#000000; fill-opacity:1.0; 
stroke:#000000; stroke-width:39.3701; stroke-opacity:1; 
stroke-linecap:round; stroke-linejoin:round;">
</g>
<g style="fill:#000000; fill-opacity:1.0; 
stroke:#000000; stroke-width:0; stroke-opacity:1; 
stroke-linecap:round; stroke-linejoin:round;">
<circle cx="58000" cy="45000" r="68.8976" /> 
</g>
<g style="fill:#000000; fill-opacity:1.0; 
stroke:#000000; stroke-width:39.3701; stroke-opacity:1; 
stroke-linecap:round; stroke-linejoin:round;">
</g>
<g style="fill:#000000; fill-opacity:1.0; 
stroke:#000000; stroke-width:0; stroke-opacity:1; 
stroke-linecap:round; stroke-linejoin:round;">
<circle cx="58000" cy="42000" r="68.8976" /> 
</g>
<g style="fill:#000000; fill-opacity:1.0; 
stroke:#000000; stroke-width:39.3701; stroke-opacity:1; 
stroke-linecap:round; stroke-linejoin:round;">
</g>
<g style="fill:#000000; fill-opacity:1.0; 
stroke:#000000; stroke-width:0; stroke-opacity:1; 
stroke-linecap:round; stroke-linejoin:round;">
<circle cx="57000" cy="42000" r="68.8976" /> 
</g>
<g style="fill:#000000; fill-opacity:1.0; 
stroke:#000000; stroke-width:39.3701; stroke-opacity:1; 
stroke-linecap:round; stroke-linejoin:round;">
</g>
<g style="fill:#000000; fill-opacity:1.0; 
stroke:#000000; stroke-width:0; stroke-opacity:1; 
stroke-linecap:round; stroke-linejoin:round;">
<circle cx="56000" cy="42000" r="68.8976" /> 
</g>
<g style="fill:#000000; fill-opacity:1.0; 
stroke:#000000; stroke-width:39.3701; stroke-opacity:1; 
stroke-linecap:round; stroke-linejoin:round;">
</g>
<g style="fill:#000000; fill-opacity:1.0; 
stroke:#000000; stroke-width:0; stroke-opacity:1; 
stroke-linecap:round; stroke-linejoin:round;">
<circle cx="55000" cy="42000" r="68.8976" /> 
</g>
<g style="fill:#000000; fill-opacity:1.0; 
stroke:#000000; stroke-width:39.3701; stroke-opacity:1; 
stroke-linecap:round; stroke-linejoin:round;">
</g>
<g style="fill:#000000; fill-opacity:1.0; 
stroke:#000000; stroke-width:0; stroke-opacity:1; 
stroke-linecap:round; stroke-linejoin:round;">
<circle cx="56000" cy="40000" r="68.8976" /> 
</g>
<g style="fill:#000000; fill-opacity:1.0; 
stroke:#000000; stroke-width:39.3701; stroke-opacity:1; 
stroke-linecap:round; stroke-linejoin:round;">
</g>
<g style="fill:#000000; fill-opacity:1.0; 
stroke:#000000; stroke-width:0; stroke-opacity:1; 
stroke-linecap:round; stroke-linejoin:round;">
<circle cx="57000" cy="40000" r="68.8976" /> 
</g>
<g style="fill:#000000; fill-opacity:1.0; 
stroke:#000000; stroke-width:39.3701; stroke-opacity:1; 
stroke-linecap:round; stroke-linejoin:round;">
</g>
<g style="fill:#000000; fill-opacity:1.0; 
stroke:#000000; stroke-width:0; stroke-opacity:1; 
stroke-linecap:round; stroke-linejoin:round;">
<circle cx="55000" cy="40000" r="68.8976" /> 
</g>
<g style="fill:#000000; fill-opacity:1.0; 
stroke:#000000; stroke-width:39.3701; stroke-opacity:1; 
stroke-linecap:round; stroke-linejoin:round;">
</g>
<g style="fill:#000000; fill-opacity:1.0; 
stroke:#000000; stroke-width:400; stroke-opacity:1; 
stroke-linecap:round; stroke-linejoin:round;">
</g>
<g style="fill:#000000; fill-opacity:0.0; 
stroke:#000000; stroke-width:400; stroke-opacity:1; 
stroke-linecap:round; stroke-linejoin:round;">
<path d="M62400 37300
L62400 36700
" />
<path d="M60000 37300
L60000 36700
" />
<path d="M61800 35000
L61200 35000
" />
</g>
<g style="fill:#000000; fill-opacity:1.0; 
stroke:#000000; stroke-width:0; stroke-opacity:1; 
stroke-linecap:round; stroke-linejoin:round;">
<circle cx="61000" cy="47000" r="68.8976" /> 
</g>
<g style="fill:#000000; fill-opacity:1.0; 
stroke:#000000; stroke-width:39.3701; stroke-opacity:1; 
stroke-linecap:round; stroke-linejoin:round;">
</g>
<g style="fill:#000000; fill-opacity:1.0; 
stroke:#000000; stroke-width:0; stroke-opacity:1; 
stroke-linecap:round; stroke-linejoin:round;">
<circle cx="61000" cy="50000" r="68.8976" /> 
</g>
<g style="fill:#000000; fill-opacity:1.0; 
stroke:#000000; stroke-width:39.3701; stroke-opacity:1; 
stroke-linecap:round; stroke-linejoin:round;">
</g>
<g style="fill:#000000; fill-opacity:1.0; 
stroke:#000000; stroke-width:0; stroke-opacity:1; 
stroke-linecap:round; stroke-linejoin:round;">
<circle cx="60000" cy="47000" r="68.8976" /> 
</g>
<g style="fill:#000000; fill-opacity:1.0; 
stroke:#000000; stroke-width:39.3701; stroke-opacity:1; 
stroke-linecap:round; stroke-linejoin:round;">
</g>
<g style="fill:#000000; fill-opacity:1.0; 
stroke:#000000; stroke-width:0; stroke-opacity:1; 
stroke-linecap:round; stroke-linejoin:round;">
<circle cx="60000" cy="50000" r="68.8976" /> 
</g>
<g style="fill:#000000; fill-opacity:1.0; 
stroke:#000000; stroke-width:39.3701; stroke-opacity:1; 
stroke-linecap:round; stroke-linejoin:round;">
</g>
<g style="fill:#000000; fill-opacity:1.0; 
stroke:#000000; stroke-width:0; stroke-opacity:1; 
stroke-linecap:round; stroke-linejoin:round;">
<circle cx="58000" cy="47000" r="68.8976" /> 
</g>
<g style="fill:#000000; fill-opacity:1.0; 
stroke:#000000; stroke-width:39.3701; stroke-opacity:1; 
stroke-linecap:round; stroke-linejoin:round;">
</g>
<g style="fill:#000000; fill-opacity:1.0; 
stroke:#000000; stroke-width:0; stroke-opacity:1; 
stroke-linecap:round; stroke-linejoin:round;">
<circle cx="58000" cy="50000" r="68.8976" /> 
</g>
<g style="fill:#000000; fill-opacity:1.0; 
stroke:#000000; stroke-width:39.3701; stroke-opacity:1; 
stroke-linecap:round; stroke-linejoin:round;">
</g>
<g style="fill:#000000; fill-opacity:1.0; 
stroke:#000000; stroke-width:0; stroke-opacity:1; 
stroke-linecap:round; stroke-linejoin:round;">
<circle cx="57000" cy="47000" r="68.8976" /> 
</g>
<g style="fill:#000000; fill-opacity:1.0; 
stroke:#000000; stroke-width:39.3701; stroke-opacity:1; 
stroke-linecap:round; stroke-linejoin:round;">
</g>
<g style="fill:#000000; fill-opacity:1.0; 
stroke:#000000; stroke-width:0; stroke-opacity:1; 
stroke-linecap:round; stroke-linejoin:round;">
<circle cx="57000" cy="50000" r="68.8976" /> 
</g>
<g style="fill:#000000; fill-opacity:1.0; 
stroke:#000000; stroke-width:39.3701; stroke-opacity:1; 
stroke-linecap:round; stroke-linejoin:round;">
</g>
<g style="fill:#000000; fill-opacity:1.0; 
stroke:#000000; stroke-width:0; stroke-opacity:1; 
stroke-linecap:round; stroke-linejoin:round;">
<circle cx="56000" cy="47000" r="68.8976" /> 
</g>
<g style="fill:#000000; fill-opacity:1.0; 
stroke:#000000; stroke-width:39.3701; stroke-opacity:1; 
stroke-linecap:round; stroke-linejoin:round;">
</g>
<g style="fill:#000000; fill-opacity:1.0; 
stroke:#000000; stroke-width:0; stroke-opacity:1; 
stroke-linecap:round; stroke-linejoin:round;">
<circle cx="56000" cy="50000" r="68.8976" /> 
</g>
<g style="fill:#000000; fill-opacity:1.0; 
stroke:#000000; stroke-width:39.3701; stroke-opacity:1; 
stroke-linecap:round; stroke-linejoin:round;">
</g>
<g style="fill:#000000; fill-opacity:1.0; 
stroke:#000000; stroke-width:0; stroke-opacity:1; 
stroke-linecap:round; stroke-linejoin:round;">
<circle cx="55000" cy="38000" r="68.8976" /> 
</g>
<g style="fill:#000000; fill-opacity:1.0; 
stroke:#000000; stroke-width:39.3701; stroke-opacity:1; 
stroke-linecap:round; stroke-linejoin:round;">
</g>
<g style="fill:#000000; fill-opacity:1.0; 
stroke:#000000; stroke-width:0; stroke-opacity:1; 
stroke-linecap:round; stroke-linejoin:round;">
<circle cx="58000" cy="38000" r="68.8976" /> 
</g>
<g style="fill:#000000; fill-opacity:1.0; 
stroke:#000000; stroke-width:39.3701; stroke-opacity:1; 
stroke-linecap:round; stroke-linejoin:round;">
</g>
<g style="fill:#000000; fill-opacity:1.0; 
stroke:#000000; stroke-width:0; stroke-opacity:1; 
stroke-linecap:round; stroke-linejoin:round;">
<circle cx="64000" cy="50000" r="68.8976" /> 
</g>
<g style="fill:#000000; fill-opacity:1.0; 
stroke:#000000; stroke-width:39.3701; stroke-opacity:1; 
stroke-linecap:round; stroke-linejoin:round;">
</g>
<g style="fill:#000000; fill-opacity:1.0; 
stroke:#000000; stroke-width:0; stroke-opacity:1; 
stroke-linecap:round; stroke-linejoin:round;">
<circle cx="64000" cy="47000" r="68.8976" /> 
</g>
<g style="fill:#000000; fill-opacity:1.0; 
stroke:#000000; stroke-width:39.3701; stroke-opacity:1; 
stroke-linecap:round; stroke-linejoin:round;">
</g>
<g style="fill:#000000; fill-opacity:1.0; 
stroke:#000000; stroke-width:0; stroke-opacity:1; 
stroke-linecap:round; stroke-linejoin:round;">
<circle cx="64000" cy="52000" r="68.8976" /> 
</g>
<g style="fill:#000000; fill-opacity:1.0; 
stroke:#000000; stroke-width:39.3701; stroke-opacity:1; 
stroke-linecap:round; stroke-linejoin:round;">
</g>
<g style="fill:#000000; fill-opacity:1.0; 
stroke:#000000; stroke-width:0; stroke-opacity:1; 
stroke-linecap:round; stroke-linejoin:round;">
<circle cx="63000" cy="52000" r="68.8976" /> 
</g>
<g style="fill:#000000; fill-opacity:1.0; 
stroke:#000000; stroke-width:39.3701; stroke-opacity:1; 
stroke-linecap:round; stroke-linejoin:round;">
</g>
<g style="fill:#000000; fill-opacity:1.0; 
stroke:#000000; stroke-width:0; stroke-opacity:1; 
stroke-linecap:round; stroke-linejoin:round;">
<circle cx="62000" cy="52000" r="68.8976" /> 
</g>
<g style="fill:#000000; fill-opacity:1.0; 
stroke:#000000; stroke-width:39.3701; stroke-opacity:1; 
stroke-linecap:round; stroke-linejoin:round;">
</g>
<g style="fill:#000000; fill-opacity:1.0; 
stroke:#000000; stroke-width:0; stroke-opacity:1; 
stroke-linecap:round; stroke-linejoin:round;">
<circle cx="61000" cy="52000" r="68.8976" /> 
</g>
<g style="fill:#000000; fill-opacity:1.0; 
stroke:#000000; stroke-width:39.3701; stroke-opacity:1; 
stroke-linecap:round; stroke-linejoin:round;">
</g>
<g style="fill:#000000; fill-opacity:1.0; 
stroke:#000000; stroke-width:0; stroke-opacity:1; 
stroke-linecap:round; stroke-linejoin:round;">
<circle cx="60000" cy="52000" r="68.8976" /> 
</g>
<g style="fill:#000000; fill-opacity:1.0; 
stroke:#000000; stroke-width:39.3701; stroke-opacity:1; 
stroke-linecap:round; stroke-linejoin:round;">
</g>
<g style="fill:#000000; fill-opacity:1.0; 
stroke:#000000; stroke-width:0; stroke-opacity:1; 
stroke-linecap:round; stroke-linejoin:round;">
<circle cx="59000" cy="52000" r="68.8976" /> 
</g>
<g style="fill:#000000; fill-opacity:1.0; 
stroke:#000000; stroke-width:39.3701; stroke-opacity:1; 
stroke-linecap:round; stroke-linejoin:round;">
</g>
<g style="fill:#000000; fill-opacity:1.0; 
stroke:#000000; stroke-width:0; stroke-opacity:1; 
stroke-linecap:round; stroke-linejoin:round;">
<circle cx="58000" cy="52000" r="68.8976" /> 
</g>
<g style="fill:#000000; fill-opacity:1.0; 
stroke:#000000; stroke-width:39.3701; stroke-opacity:1; 
stroke-linecap:round; stroke-linejoin:round;">
</g>
<g style="fill:#000000; fill-opacity:1.0; 
stroke:#000000; stroke-width:0; stroke-opacity:1; 
stroke-linecap:round; stroke-linejoin:round;">
<circle cx="57000" cy="52000" r="68.8976" /> 
</g>
<g style="fill:#000000; fill-opacity:1.0; 
stroke:#000000; stroke-width:39.3701; stroke-opacity:1; 
stroke-linecap:round; stroke-linejoin:round;">
</g>
<g style="fill:#000000; fill-opacity:1.0; 
stroke:#000000; stroke-width:0; stroke-opacity:1; 
stroke-linecap:round; stroke-linejoin:round;">
<circle cx="56000" cy="52000" r="68.8976" /> 
</g>
<g style="fill:#000000; fill-opacity:1.0; 
stroke:#000000; stroke-width:39.3701; stroke-opacity:1; 
stroke-linecap:round; stroke-linejoin:round;">
</g>
<g style="fill:#000000; fill-opacity:1.0; 
stroke:#000000; stroke-width:0; stroke-opacity:1; 
stroke-linecap:round; stroke-linejoin:round;">
<circle cx="55000" cy="52000" r="68.8976" /> 
</g>
<g style="fill:#000000; fill-opacity:1.0; 
stroke:#000000; stroke-width:39.3701; stroke-opacity:1; 
stroke-linecap:round; stroke-linejoin:round;">
</g>
<g style="fill:#000000; fill-opacity:1.0; 
stroke:#000000; stroke-width:0; stroke-opacity:1; 
stroke-linecap:round; stroke-linejoin:round;">
<circle cx="63000" cy="45000" r="68.8976" /> 
</g>
<g style="fill:#000000; fill-opacity:1.0; 
stroke:#000000; stroke-width:39.3701; stroke-opacity:1; 
stroke-linecap:round; stroke-linejoin:round;">
</g>
<g style="fill:#000000; fill-opacity:1.0; 
stroke:#000000; stroke-width:0; stroke-opacity:1; 
stroke-linecap:round; stroke-linejoin:round;">
<circle cx="61031.5" cy="45000" r="68.8976" /> 
</g>
<g style="fill:#000000; fill-opacity:1.0; 
stroke:#000000; stroke-width:39.3701; stroke-opacity:1; 
stroke-linecap:round; stroke-linejoin:round;">
</g>
<g style="fill:#000000; fill-opacity:1.0; 
stroke:#000000; stroke-width:0; stroke-opacity:1; 
stroke-linecap:round; stroke-linejoin:round;">
<circle cx="63000" cy="40078.7" r="68.8976" /> 
</g>
<g style="fill:#000000; fill-opacity:1.0; 
stroke:#000000; stroke-width:39.3701; stroke-opacity:1; 
stroke-linecap:round; stroke-linejoin:round;">
</g>
<g style="fill:#000000; fill-opacity:1.0; 
stroke:#000000; stroke-width:0; stroke-opacity:1; 
stroke-linecap:round; stroke-linejoin:round;">
<circle cx="61031.5" cy="40078.7" r="68.8976" /> 
</g>
<g style="fill:#000000; fill-opacity:1.0; 
stroke:#000000; stroke-width:39.3701; stroke-opacity:1; 
stroke-linecap:round; stroke-linejoin:round;">
</g>
<g style="fill:#000000; fill-opacity:1.0; 
stroke:#000000; stroke-width:0; stroke-opacity:1; 
stroke-linecap:round; stroke-linejoin:round;">
<circle cx="64673.2" cy="42539.4" r="68.8976" /> 
</g>
<g style="fill:#000000; fill-opacity:1.0; 
stroke:#000000; stroke-width:39.3701; stroke-opacity:1; 
stroke-linecap:round; stroke-linejoin:round;">
</g>
<g style="fill:#000000; fill-opacity:1.0; 
stroke:#000000; stroke-width:0; stroke-opacity:1; 
stroke-linecap:round; stroke-linejoin:round;">
<circle cx="59358.3" cy="42539.4" r="68.8976" /> 
</g>
<g style="fill:#000000; fill-opacity:1.0; 
stroke:#000000; stroke-width:39.3701; stroke-opacity:1; 
stroke-linecap:round; stroke-linejoin:round;">
</g>
<g style="fill:#000000; fill-opacity:1.0; 
stroke:#000000; stroke-width:0; stroke-opacity:1; 
stroke-linecap:round; stroke-linejoin:round;">
<circle cx="63787.4" cy="42539.4" r="68.8976" /> 
</g>
<g style="fill:#000000; fill-opacity:1.0; 
stroke:#000000; stroke-width:39.3701; stroke-opacity:1; 
stroke-linecap:round; stroke-linejoin:round;">
</g>
<g style="fill:#000000; fill-opacity:1.0; 
stroke:#000000; stroke-width:0; stroke-opacity:1; 
stroke-linecap:round; stroke-linejoin:round;">
<circle cx="60244.1" cy="42539.4" r="68.8976" /> 
</g>
<g style="fill:#000000; fill-opacity:1.0; 
stroke:#000000; stroke-width:39.3701; stroke-opacity:1; 
stroke-linecap:round; stroke-linejoin:round;">
</g>
<g style="fill:#000000; fill-opacity:1.0; 
stroke:#000000; stroke-width:0; stroke-opacity:1; 
stroke-linecap:round; stroke-linejoin:round;">
<circle cx="62500" cy="49000" r="68.8976" /> 
</g>
<g style="fill:#000000; fill-opacity:1.0; 
stroke:#000000; stroke-width:39.3701; stroke-opacity:1; 
stroke-linecap:round; stroke-linejoin:round;">
</g>
<g style="fill:#000000; fill-opacity:1.0; 
stroke:#000000; stroke-width:0; stroke-opacity:1; 
stroke-linecap:round; stroke-linejoin:round;">
<circle cx="62500" cy="48000" r="68.8976" /> 
</g>
<g style="fill:#000000; fill-opacity:1.0; 
stroke:#000000; stroke-width:39.3701; stroke-opacity:1; 
stroke-linecap:round; stroke-linejoin:round;">
</g>
<g style="fill:#FFFFFF; fill-opacity:1.0; 
stroke:#FFFFFF; stroke-width:39.3701; stroke-opacity:1; 
stroke-linecap:round; stroke-linejoin:round;">
</g> 
</svg>
