M48
INCH,TZ
T1C0.031
T2C0.032
T3C0.039
T4C0.040
%
G90
G05
T1
X55000Y-40000
X55000Y-42000
X55000Y-45000
X56000Y-40000
X56000Y-42000
X56000Y-45000
X57000Y-40000
X57000Y-42000
X57000Y-45000
X58000Y-42000
X58000Y-45000
X59358Y-42539
X64673Y-42539
T2
X61031Y-40079
X61031Y-45000
X63000Y-40079
X63000Y-45000
T3
X55000Y-38000
X56000Y-47000
X56000Y-50000
X57000Y-47000
X57000Y-50000
X58000Y-38000
X58000Y-47000
X58000Y-50000
X60000Y-47000
X60000Y-50000
X61000Y-47000
X61000Y-50000
X62500Y-48000
X62500Y-49000
X64000Y-47000
X64000Y-50000
T4
X55000Y-52000
X56000Y-52000
X57000Y-52000
X58000Y-52000
X59000Y-52000
X60000Y-52000
X61000Y-52000
X62000Y-52000
X63000Y-52000
X64000Y-52000
T4
X60000Y-37300G85X60000Y-36700
G05
X61800Y-35000G85X61200Y-35000
G05
X62400Y-37300G85X62400Y-36700
G05
T0
M30
