G04 #@! TF.FileFunction,Copper,L2,Bot,Signal*
%FSLAX46Y46*%
G04 Gerber Fmt 4.6, Leading zero omitted, Abs format (unit mm)*
G04 Created by KiCad (PCBNEW 4.0.2+dfsg1-stable) date Thu 08 Aug 2019 19:13:25 BST*
%MOMM*%
G01*
G04 APERTURE LIST*
%ADD10C,0.100000*%
%ADD11C,0.250000*%
%ADD12C,0.300000*%
%ADD13C,0.381000*%
%ADD14O,1.600000X2.300000*%
%ADD15C,1.524000*%
%ADD16C,4.800600*%
%ADD17R,4.800600X4.800600*%
%ADD18C,1.998980*%
%ADD19R,1.727200X2.032000*%
%ADD20O,1.727200X2.032000*%
%ADD21O,1.727200X3.048000*%
%ADD22O,1.700000X3.000000*%
%ADD23R,2.000000X2.000000*%
%ADD24C,2.000000*%
%ADD25C,0.254000*%
G04 APERTURE END LIST*
D10*
D11*
X145652572Y-89173857D02*
X145319238Y-89173857D01*
X145176381Y-89959571D02*
X145652572Y-89959571D01*
X145652572Y-88459571D01*
X145176381Y-88459571D01*
X144843048Y-88959571D02*
X144652572Y-89959571D01*
X144462095Y-89245286D01*
X144271619Y-89959571D01*
X144081143Y-88959571D01*
X143271619Y-89959571D02*
X143271619Y-89173857D01*
X143319238Y-89031000D01*
X143414476Y-88959571D01*
X143604953Y-88959571D01*
X143700191Y-89031000D01*
X143271619Y-89888143D02*
X143366857Y-89959571D01*
X143604953Y-89959571D01*
X143700191Y-89888143D01*
X143747810Y-89745286D01*
X143747810Y-89602429D01*
X143700191Y-89459571D01*
X143604953Y-89388143D01*
X143366857Y-89388143D01*
X143271619Y-89316714D01*
X142795429Y-88959571D02*
X142795429Y-89959571D01*
X142795429Y-89102429D02*
X142747810Y-89031000D01*
X142652572Y-88959571D01*
X142509714Y-88959571D01*
X142414476Y-89031000D01*
X142366857Y-89173857D01*
X142366857Y-89959571D01*
X141128762Y-89959571D02*
X141128762Y-88459571D01*
X140747809Y-88459571D01*
X140652571Y-88531000D01*
X140604952Y-88602429D01*
X140557333Y-88745286D01*
X140557333Y-88959571D01*
X140604952Y-89102429D01*
X140652571Y-89173857D01*
X140747809Y-89245286D01*
X141128762Y-89245286D01*
X139700190Y-89959571D02*
X139700190Y-89173857D01*
X139747809Y-89031000D01*
X139843047Y-88959571D01*
X140033524Y-88959571D01*
X140128762Y-89031000D01*
X139700190Y-89888143D02*
X139795428Y-89959571D01*
X140033524Y-89959571D01*
X140128762Y-89888143D01*
X140176381Y-89745286D01*
X140176381Y-89602429D01*
X140128762Y-89459571D01*
X140033524Y-89388143D01*
X139795428Y-89388143D01*
X139700190Y-89316714D01*
X139224000Y-89959571D02*
X139224000Y-88959571D01*
X139224000Y-89245286D02*
X139176381Y-89102429D01*
X139128762Y-89031000D01*
X139033524Y-88959571D01*
X138938285Y-88959571D01*
X138604952Y-89959571D02*
X138604952Y-88459571D01*
X138509714Y-89388143D02*
X138223999Y-89959571D01*
X138223999Y-88959571D02*
X138604952Y-89531000D01*
X137414475Y-89888143D02*
X137509713Y-89959571D01*
X137700190Y-89959571D01*
X137795428Y-89888143D01*
X137843047Y-89745286D01*
X137843047Y-89173857D01*
X137795428Y-89031000D01*
X137700190Y-88959571D01*
X137509713Y-88959571D01*
X137414475Y-89031000D01*
X137366856Y-89173857D01*
X137366856Y-89316714D01*
X137843047Y-89459571D01*
X136938285Y-89959571D02*
X136938285Y-88959571D01*
X136938285Y-89245286D02*
X136890666Y-89102429D01*
X136843047Y-89031000D01*
X136747809Y-88959571D01*
X136652570Y-88959571D01*
D12*
X150736333Y-86991000D02*
X150069667Y-86991000D01*
X150869667Y-87419571D02*
X150403000Y-85919571D01*
X149936333Y-87419571D01*
X149669667Y-85919571D02*
X149203000Y-87419571D01*
X148736333Y-85919571D01*
X147469667Y-87419571D02*
X147936333Y-86705286D01*
X148269667Y-87419571D02*
X148269667Y-85919571D01*
X147736333Y-85919571D01*
X147603000Y-85991000D01*
X147536333Y-86062429D01*
X147469667Y-86205286D01*
X147469667Y-86419571D01*
X147536333Y-86562429D01*
X147603000Y-86633857D01*
X147736333Y-86705286D01*
X148269667Y-86705286D01*
X145803000Y-87419571D02*
X145803000Y-85919571D01*
X145803000Y-86633857D02*
X145003000Y-86633857D01*
X145003000Y-87419571D02*
X145003000Y-85919571D01*
X144536333Y-85919571D02*
X144069666Y-87419571D01*
X143602999Y-85919571D01*
X143202999Y-87348143D02*
X143002999Y-87419571D01*
X142669666Y-87419571D01*
X142536333Y-87348143D01*
X142469666Y-87276714D01*
X142402999Y-87133857D01*
X142402999Y-86991000D01*
X142469666Y-86848143D01*
X142536333Y-86776714D01*
X142669666Y-86705286D01*
X142936333Y-86633857D01*
X143069666Y-86562429D01*
X143136333Y-86491000D01*
X143202999Y-86348143D01*
X143202999Y-86205286D01*
X143136333Y-86062429D01*
X143069666Y-85991000D01*
X142936333Y-85919571D01*
X142602999Y-85919571D01*
X142402999Y-85991000D01*
X141803000Y-87419571D02*
X141803000Y-85919571D01*
X141269666Y-85919571D01*
X141136333Y-85991000D01*
X141069666Y-86062429D01*
X141003000Y-86205286D01*
X141003000Y-86419571D01*
X141069666Y-86562429D01*
X141136333Y-86633857D01*
X141269666Y-86705286D01*
X141803000Y-86705286D01*
X139069666Y-85919571D02*
X138936333Y-85919571D01*
X138802999Y-85991000D01*
X138736333Y-86062429D01*
X138669666Y-86205286D01*
X138602999Y-86491000D01*
X138602999Y-86848143D01*
X138669666Y-87133857D01*
X138736333Y-87276714D01*
X138802999Y-87348143D01*
X138936333Y-87419571D01*
X139069666Y-87419571D01*
X139202999Y-87348143D01*
X139269666Y-87276714D01*
X139336333Y-87133857D01*
X139402999Y-86848143D01*
X139402999Y-86491000D01*
X139336333Y-86205286D01*
X139269666Y-86062429D01*
X139202999Y-85991000D01*
X139069666Y-85919571D01*
X138003000Y-87276714D02*
X137936333Y-87348143D01*
X138003000Y-87419571D01*
X138069666Y-87348143D01*
X138003000Y-87276714D01*
X138003000Y-87419571D01*
X136602999Y-87419571D02*
X137402999Y-87419571D01*
X137002999Y-87419571D02*
X137002999Y-85919571D01*
X137136333Y-86133857D01*
X137269666Y-86276714D01*
X137402999Y-86348143D01*
X164758571Y-87419571D02*
X165615714Y-87419571D01*
X165187142Y-87419571D02*
X165187142Y-85919571D01*
X165329999Y-86133857D01*
X165472857Y-86276714D01*
X165615714Y-86348143D01*
X164187143Y-86062429D02*
X164115714Y-85991000D01*
X163972857Y-85919571D01*
X163615714Y-85919571D01*
X163472857Y-85991000D01*
X163401428Y-86062429D01*
X163330000Y-86205286D01*
X163330000Y-86348143D01*
X163401428Y-86562429D01*
X164258571Y-87419571D01*
X163330000Y-87419571D01*
X162901429Y-85919571D02*
X162401429Y-87419571D01*
X161901429Y-85919571D01*
X139271428Y-117772571D02*
X140128571Y-117772571D01*
X139699999Y-117772571D02*
X139699999Y-116272571D01*
X139842856Y-116486857D01*
X139985714Y-116629714D01*
X140128571Y-116701143D01*
X163758428Y-123567000D02*
X163044142Y-123567000D01*
X163901285Y-123995571D02*
X163401285Y-122495571D01*
X162901285Y-123995571D01*
X161686999Y-122495571D02*
X162401285Y-122495571D01*
X162472714Y-123209857D01*
X162401285Y-123138429D01*
X162258428Y-123067000D01*
X161901285Y-123067000D01*
X161758428Y-123138429D01*
X161686999Y-123209857D01*
X161615571Y-123352714D01*
X161615571Y-123709857D01*
X161686999Y-123852714D01*
X161758428Y-123924143D01*
X161901285Y-123995571D01*
X162258428Y-123995571D01*
X162401285Y-123924143D01*
X162472714Y-123852714D01*
X146601428Y-123995571D02*
X146601428Y-122495571D01*
X146244285Y-122495571D01*
X146030000Y-122567000D01*
X145887142Y-122709857D01*
X145815714Y-122852714D01*
X145744285Y-123138429D01*
X145744285Y-123352714D01*
X145815714Y-123638429D01*
X145887142Y-123781286D01*
X146030000Y-123924143D01*
X146244285Y-123995571D01*
X146601428Y-123995571D01*
X144315714Y-123995571D02*
X145172857Y-123995571D01*
X144744285Y-123995571D02*
X144744285Y-122495571D01*
X144887142Y-122709857D01*
X145030000Y-122852714D01*
X145172857Y-122924143D01*
X143387143Y-122495571D02*
X143244286Y-122495571D01*
X143101429Y-122567000D01*
X143030000Y-122638429D01*
X142958571Y-122781286D01*
X142887143Y-123067000D01*
X142887143Y-123424143D01*
X142958571Y-123709857D01*
X143030000Y-123852714D01*
X143101429Y-123924143D01*
X143244286Y-123995571D01*
X143387143Y-123995571D01*
X143530000Y-123924143D01*
X143601429Y-123852714D01*
X143672857Y-123709857D01*
X143744286Y-123424143D01*
X143744286Y-123067000D01*
X143672857Y-122781286D01*
X143601429Y-122638429D01*
X143530000Y-122567000D01*
X143387143Y-122495571D01*
D13*
X162814000Y-91186000D02*
X164211000Y-93091000D01*
X164211000Y-93091000D02*
X162941000Y-93091000D01*
X164465000Y-94996000D02*
X164592000Y-96012000D01*
X164592000Y-96012000D02*
X163830000Y-95377000D01*
X163830000Y-95377000D02*
X164338000Y-95631000D01*
X164338000Y-95631000D02*
X162560000Y-92837000D01*
X162560000Y-92837000D02*
X163830000Y-92837000D01*
X163830000Y-92837000D02*
X162052000Y-90805000D01*
X162052000Y-90805000D02*
X162814000Y-91313000D01*
X162814000Y-91313000D02*
X162941000Y-90805000D01*
X163068000Y-90932000D02*
X164592000Y-93218000D01*
X164592000Y-93218000D02*
X163195000Y-93218000D01*
X163195000Y-93218000D02*
X164338000Y-95504000D01*
X164338000Y-95504000D02*
X164465000Y-94996000D01*
D14*
X139700000Y-114300000D03*
X142240000Y-114300000D03*
X144780000Y-114300000D03*
X147320000Y-114300000D03*
X147320000Y-106680000D03*
X144780000Y-106680000D03*
X142240000Y-106680000D03*
X139700000Y-106680000D03*
D15*
X142240000Y-101600000D03*
X144780000Y-101600000D03*
X139700000Y-101600000D03*
D16*
X158496000Y-93980000D03*
D17*
X152400000Y-93980000D03*
D16*
X156210000Y-88900000D03*
D18*
X154940000Y-119380000D03*
X154940000Y-127000000D03*
X152400000Y-119380000D03*
X152400000Y-127000000D03*
X147320000Y-119380000D03*
X147320000Y-127000000D03*
X144780000Y-119380000D03*
X144780000Y-127000000D03*
X142240000Y-119380000D03*
X142240000Y-127000000D03*
X139700000Y-96520000D03*
X147320000Y-96520000D03*
X162560000Y-127000000D03*
X162560000Y-119380000D03*
D19*
X162560000Y-132080000D03*
D20*
X160020000Y-132080000D03*
X157480000Y-132080000D03*
X154940000Y-132080000D03*
X152400000Y-132080000D03*
X149860000Y-132080000D03*
X147320000Y-132080000D03*
X144780000Y-132080000D03*
X142240000Y-132080000D03*
X139700000Y-132080000D03*
D21*
X160020000Y-114300000D03*
X155020000Y-114300000D03*
X160020000Y-101800000D03*
X155020000Y-101800000D03*
D22*
X164270000Y-108050000D03*
X150770000Y-108050000D03*
D23*
X158750000Y-124460000D03*
D24*
X158750000Y-121920000D03*
D11*
X149860000Y-93980000D02*
X152400000Y-93980000D01*
X147320000Y-96520000D02*
X149860000Y-93980000D01*
X139700000Y-101600000D02*
X142399690Y-104299690D01*
X142399690Y-104299690D02*
X144939690Y-104299690D01*
X144939690Y-104299690D02*
X146050008Y-105410008D01*
X146050008Y-105410008D02*
X146050008Y-109220008D01*
X146050008Y-109220008D02*
X147320000Y-110490000D01*
X147320000Y-110490000D02*
X147320000Y-112900000D01*
X147320000Y-112900000D02*
X147320000Y-114300000D01*
X159940000Y-120399264D02*
X159940000Y-114300000D01*
X160624325Y-121083589D02*
X159940000Y-120399264D01*
X160624325Y-126018921D02*
X160624325Y-121083589D01*
X160020000Y-126623246D02*
X160624325Y-126018921D01*
X160020000Y-132080000D02*
X160020000Y-126623246D01*
X138401623Y-110571578D02*
X138401623Y-97818377D01*
X138401623Y-97818377D02*
X139700000Y-96520000D01*
X144780000Y-101600000D02*
X139700000Y-96520000D01*
X139700000Y-114300000D02*
X139700000Y-111869955D01*
X139700000Y-111869955D02*
X138401623Y-110571578D01*
X142240000Y-119380000D02*
X142240000Y-114300000D01*
X152400000Y-119380000D02*
X152400000Y-116929776D01*
X152400000Y-116929776D02*
X151133642Y-115663418D01*
X151133642Y-115663418D02*
X151133642Y-114315590D01*
X151133642Y-114315590D02*
X148271455Y-111453403D01*
X148271455Y-111453403D02*
X148271455Y-109031455D01*
X148271455Y-109031455D02*
X147320000Y-108080000D01*
X147320000Y-108080000D02*
X147320000Y-106680000D01*
X147320000Y-119380000D02*
X146048449Y-118108449D01*
X146048449Y-118108449D02*
X146048449Y-111354771D01*
X146048449Y-111354771D02*
X144780000Y-110086322D01*
X144780000Y-110086322D02*
X144780000Y-106680000D01*
X144780000Y-119380000D02*
X143510000Y-118110000D01*
X143510000Y-118110000D02*
X143510000Y-110891212D01*
X143510000Y-110891212D02*
X142240000Y-109621212D01*
X142240000Y-109621212D02*
X142240000Y-106680000D01*
X139700000Y-132080000D02*
X139700000Y-119382151D01*
X139700000Y-119382151D02*
X140973347Y-118108804D01*
X140973347Y-118108804D02*
X140973347Y-110966601D01*
X140973347Y-110966601D02*
X139700000Y-109693254D01*
X139700000Y-109693254D02*
X139700000Y-106680000D01*
X142240000Y-132080000D02*
X142240000Y-127000000D01*
X144780000Y-132080000D02*
X144780000Y-127000000D01*
X147320000Y-132080000D02*
X147320000Y-127000000D01*
X149860000Y-132080000D02*
X149860000Y-129540000D01*
X149860000Y-129540000D02*
X152400000Y-127000000D01*
X152400000Y-132080000D02*
X152400000Y-129540000D01*
X152400000Y-129540000D02*
X154940000Y-127000000D01*
X162560000Y-132080000D02*
X162560000Y-127000000D01*
X154940000Y-119380000D02*
X154940000Y-118166358D01*
X154940000Y-118166358D02*
X151964139Y-115190497D01*
X151964139Y-115190497D02*
X151964139Y-114045855D01*
X151964139Y-114045855D02*
X149113971Y-111195687D01*
X149113971Y-105933971D02*
X146599328Y-103419328D01*
X149113971Y-111195687D02*
X149113971Y-105933971D01*
X146599328Y-103419328D02*
X144059328Y-103419328D01*
X144059328Y-103419328D02*
X142240000Y-101600000D01*
X162468089Y-110501911D02*
X162560000Y-110410000D01*
X158115000Y-113030000D02*
X160643089Y-110501911D01*
X160643089Y-110501911D02*
X162468089Y-110501911D01*
X158115000Y-115570000D02*
X158115000Y-113030000D01*
X158750000Y-116205000D02*
X158115000Y-115570000D01*
X158750000Y-121920000D02*
X158750000Y-116205000D01*
X162560000Y-110410000D02*
X164270000Y-108700000D01*
X162560000Y-119380000D02*
X162560000Y-110410000D01*
X164270000Y-108700000D02*
X164270000Y-108050000D01*
X164197005Y-108057005D02*
X164190000Y-108050000D01*
X164197005Y-109015360D02*
X164197005Y-108057005D01*
D25*
G36*
X160973572Y-88576000D02*
X165660000Y-88576000D01*
X165660000Y-106880249D01*
X165642951Y-106823780D01*
X165506888Y-106567884D01*
X165323713Y-106343288D01*
X165100401Y-106158549D01*
X164845461Y-106020703D01*
X164568601Y-105935001D01*
X164280367Y-105904706D01*
X163991739Y-105930973D01*
X163713709Y-106012802D01*
X163456869Y-106147075D01*
X163231000Y-106328678D01*
X163044706Y-106550694D01*
X162932999Y-106753888D01*
X162777512Y-106649011D01*
X162490965Y-106528558D01*
X162186479Y-106466056D01*
X161875652Y-106463886D01*
X161570324Y-106522130D01*
X161282123Y-106638571D01*
X161022028Y-106808773D01*
X160799945Y-107026252D01*
X160624334Y-107282726D01*
X160501883Y-107568425D01*
X160437257Y-107872467D01*
X160432917Y-108183271D01*
X160489028Y-108488999D01*
X160603454Y-108778006D01*
X160771836Y-109039283D01*
X160987760Y-109262878D01*
X161243001Y-109440276D01*
X161527838Y-109564718D01*
X161831422Y-109631465D01*
X162142188Y-109637975D01*
X162281849Y-109613349D01*
X162153287Y-109741911D01*
X160643089Y-109741911D01*
X160573208Y-109748763D01*
X160503286Y-109754880D01*
X160499448Y-109755995D01*
X160495471Y-109756385D01*
X160428301Y-109776665D01*
X160360850Y-109796261D01*
X160357299Y-109798102D01*
X160353476Y-109799256D01*
X160291515Y-109832201D01*
X160229164Y-109864521D01*
X160226041Y-109867014D01*
X160222511Y-109868891D01*
X160168102Y-109913266D01*
X160113243Y-109957059D01*
X160107683Y-109962542D01*
X160107567Y-109962637D01*
X160107478Y-109962745D01*
X160105688Y-109964510D01*
X157577599Y-112492599D01*
X157533032Y-112546855D01*
X157487914Y-112600625D01*
X157485989Y-112604126D01*
X157483452Y-112607215D01*
X157450287Y-112669067D01*
X157416457Y-112730604D01*
X157415248Y-112734416D01*
X157413361Y-112737935D01*
X157392848Y-112805031D01*
X157371608Y-112871987D01*
X157371162Y-112875959D01*
X157369994Y-112879781D01*
X157362897Y-112949649D01*
X157355074Y-113019389D01*
X157355020Y-113027194D01*
X157355004Y-113027347D01*
X157355018Y-113027490D01*
X157355000Y-113030000D01*
X157355000Y-115570000D01*
X157361851Y-115639877D01*
X157367969Y-115709803D01*
X157369084Y-115713641D01*
X157369474Y-115717618D01*
X157389764Y-115784821D01*
X157409351Y-115852240D01*
X157411190Y-115855788D01*
X157412345Y-115859613D01*
X157445299Y-115921591D01*
X157477610Y-115983925D01*
X157480103Y-115987048D01*
X157481980Y-115990578D01*
X157526355Y-116044987D01*
X157570148Y-116099846D01*
X157575631Y-116105406D01*
X157575726Y-116105522D01*
X157575834Y-116105611D01*
X157577599Y-116107401D01*
X157990000Y-116519802D01*
X157990000Y-120463580D01*
X157988846Y-120464046D01*
X157720546Y-120639617D01*
X157491457Y-120863957D01*
X157310306Y-121128522D01*
X157183993Y-121423233D01*
X157117328Y-121736866D01*
X157112851Y-122057475D01*
X157170733Y-122372848D01*
X157288768Y-122670971D01*
X157439004Y-122904093D01*
X157345211Y-122966763D01*
X157256763Y-123055211D01*
X157187270Y-123159215D01*
X157139403Y-123274777D01*
X157115000Y-123397458D01*
X157115000Y-124174250D01*
X157273750Y-124333000D01*
X158623000Y-124333000D01*
X158623000Y-124313000D01*
X158877000Y-124313000D01*
X158877000Y-124333000D01*
X158897000Y-124333000D01*
X158897000Y-124587000D01*
X158877000Y-124587000D01*
X158877000Y-125936250D01*
X159035750Y-126095000D01*
X159475079Y-126095000D01*
X159438032Y-126140101D01*
X159392914Y-126193871D01*
X159390989Y-126197372D01*
X159388452Y-126200461D01*
X159355287Y-126262313D01*
X159321457Y-126323850D01*
X159320248Y-126327662D01*
X159318361Y-126331181D01*
X159297848Y-126398277D01*
X159276608Y-126465233D01*
X159276162Y-126469205D01*
X159274994Y-126473027D01*
X159267897Y-126542895D01*
X159260074Y-126612635D01*
X159260020Y-126620440D01*
X159260004Y-126620593D01*
X159260018Y-126620736D01*
X159260000Y-126623246D01*
X159260000Y-130633968D01*
X159199422Y-130665637D01*
X158971485Y-130848903D01*
X158783485Y-131072952D01*
X158750701Y-131132587D01*
X158728216Y-131090299D01*
X158543363Y-130863647D01*
X158318006Y-130677216D01*
X158060731Y-130538108D01*
X157781335Y-130451621D01*
X157490462Y-130421049D01*
X157199190Y-130447556D01*
X156918615Y-130530134D01*
X156659422Y-130665637D01*
X156431485Y-130848903D01*
X156243485Y-131072952D01*
X156209444Y-131134872D01*
X156058486Y-130928271D01*
X155842035Y-130729267D01*
X155590919Y-130576314D01*
X155314789Y-130475291D01*
X155299026Y-130472642D01*
X155067000Y-130593783D01*
X155067000Y-131953000D01*
X155087000Y-131953000D01*
X155087000Y-132207000D01*
X155067000Y-132207000D01*
X155067000Y-133566217D01*
X155299026Y-133687358D01*
X155314789Y-133684709D01*
X155590919Y-133583686D01*
X155842035Y-133430733D01*
X156058486Y-133231729D01*
X156208657Y-133026205D01*
X156231784Y-133069701D01*
X156416637Y-133296353D01*
X156641994Y-133482784D01*
X156899269Y-133621892D01*
X157178665Y-133708379D01*
X157469538Y-133738951D01*
X157760810Y-133712444D01*
X158041385Y-133629866D01*
X158300578Y-133494363D01*
X158528515Y-133311097D01*
X158716515Y-133087048D01*
X158749299Y-133027413D01*
X158771784Y-133069701D01*
X158956637Y-133296353D01*
X159181994Y-133482784D01*
X159439269Y-133621892D01*
X159718665Y-133708379D01*
X160009538Y-133738951D01*
X160300810Y-133712444D01*
X160581385Y-133629866D01*
X160840578Y-133494363D01*
X161068515Y-133311097D01*
X161092745Y-133282220D01*
X161119506Y-133368634D01*
X161218300Y-133518559D01*
X161354950Y-133635025D01*
X161518637Y-133708810D01*
X161696400Y-133734072D01*
X163423600Y-133734072D01*
X163524721Y-133726008D01*
X163696234Y-133672894D01*
X163846159Y-133574100D01*
X163962625Y-133437450D01*
X164036410Y-133273763D01*
X164061672Y-133096000D01*
X164061672Y-131064000D01*
X164053608Y-130962879D01*
X164000494Y-130791366D01*
X163901700Y-130641441D01*
X163765050Y-130524975D01*
X163601363Y-130451190D01*
X163423600Y-130425928D01*
X163320000Y-130425928D01*
X163320000Y-128453620D01*
X163571162Y-128294228D01*
X163803288Y-128073177D01*
X163988058Y-127811250D01*
X164118433Y-127518422D01*
X164189448Y-127205847D01*
X164194560Y-126839730D01*
X164132301Y-126525294D01*
X164010152Y-126228940D01*
X163832768Y-125961956D01*
X163606905Y-125734510D01*
X163341165Y-125555266D01*
X163045671Y-125431052D01*
X162731677Y-125366598D01*
X162411145Y-125364360D01*
X162096283Y-125424424D01*
X161799083Y-125544500D01*
X161530867Y-125720016D01*
X161384325Y-125863520D01*
X161384325Y-125152000D01*
X164829143Y-125152000D01*
X164829143Y-121182000D01*
X161384325Y-121182000D01*
X161384325Y-121083589D01*
X161377473Y-121013708D01*
X161371356Y-120943786D01*
X161370241Y-120939948D01*
X161369851Y-120935971D01*
X161349571Y-120868801D01*
X161329975Y-120801350D01*
X161328134Y-120797799D01*
X161326980Y-120793976D01*
X161294035Y-120732015D01*
X161261715Y-120669664D01*
X161259222Y-120666541D01*
X161257345Y-120663011D01*
X161212970Y-120608602D01*
X161169177Y-120553743D01*
X161163694Y-120548183D01*
X161163599Y-120548067D01*
X161163491Y-120547978D01*
X161161726Y-120546188D01*
X160700000Y-120084462D01*
X160700000Y-116298313D01*
X160840578Y-116224821D01*
X161068515Y-116041555D01*
X161256515Y-115817506D01*
X161397416Y-115561207D01*
X161485852Y-115282422D01*
X161518454Y-114991770D01*
X161518600Y-114970846D01*
X161518600Y-113629154D01*
X161490059Y-113338074D01*
X161405525Y-113058082D01*
X161268216Y-112799841D01*
X161083363Y-112573189D01*
X160858006Y-112386758D01*
X160600731Y-112247650D01*
X160321335Y-112161163D01*
X160083623Y-112136179D01*
X160957891Y-111261911D01*
X161800000Y-111261911D01*
X161800000Y-117924130D01*
X161799083Y-117924500D01*
X161530867Y-118100016D01*
X161301849Y-118324286D01*
X161120755Y-118588768D01*
X160994481Y-118883388D01*
X160927837Y-119196924D01*
X160923361Y-119517432D01*
X160981225Y-119832707D01*
X161099223Y-120130737D01*
X161272863Y-120400172D01*
X161495529Y-120630750D01*
X161758740Y-120813686D01*
X162052471Y-120942014D01*
X162365533Y-121010846D01*
X162686003Y-121017558D01*
X163001674Y-120961897D01*
X163300521Y-120845982D01*
X163571162Y-120674228D01*
X163803288Y-120453177D01*
X163988058Y-120191250D01*
X164118433Y-119898422D01*
X164189448Y-119585847D01*
X164194560Y-119219730D01*
X164132301Y-118905294D01*
X164010152Y-118608940D01*
X163832768Y-118341956D01*
X163606905Y-118114510D01*
X163341165Y-117935266D01*
X163320000Y-117926369D01*
X163320000Y-110724802D01*
X163901454Y-110143348D01*
X163971399Y-110164999D01*
X164259633Y-110195294D01*
X164548261Y-110169027D01*
X164826291Y-110087198D01*
X165083131Y-109952925D01*
X165309000Y-109771322D01*
X165495294Y-109549306D01*
X165634916Y-109295334D01*
X165660000Y-109216259D01*
X165660000Y-133910000D01*
X136600000Y-133910000D01*
X136600000Y-97818377D01*
X137641623Y-97818377D01*
X137641623Y-110571578D01*
X137648474Y-110641455D01*
X137654592Y-110711381D01*
X137655707Y-110715219D01*
X137656097Y-110719196D01*
X137676387Y-110786399D01*
X137695974Y-110853818D01*
X137697813Y-110857366D01*
X137698968Y-110861191D01*
X137731922Y-110923169D01*
X137764233Y-110985503D01*
X137766726Y-110988626D01*
X137768603Y-110992156D01*
X137812978Y-111046565D01*
X137856771Y-111101424D01*
X137862254Y-111106984D01*
X137862349Y-111107100D01*
X137862457Y-111107189D01*
X137864222Y-111108979D01*
X138940000Y-112184757D01*
X138940000Y-112727143D01*
X138914247Y-112740606D01*
X138695983Y-112916095D01*
X138515962Y-113130635D01*
X138381041Y-113376056D01*
X138296358Y-113643010D01*
X138265140Y-113921327D01*
X138265000Y-113941363D01*
X138265000Y-114658637D01*
X138292329Y-114937363D01*
X138298862Y-114959000D01*
X138200715Y-114959000D01*
X138200715Y-118929000D01*
X139092864Y-118929000D01*
X139072914Y-118952776D01*
X139070989Y-118956277D01*
X139068452Y-118959366D01*
X139035287Y-119021218D01*
X139001457Y-119082755D01*
X139000248Y-119086567D01*
X138998361Y-119090086D01*
X138977848Y-119157182D01*
X138956608Y-119224138D01*
X138956162Y-119228110D01*
X138954994Y-119231932D01*
X138947897Y-119301800D01*
X138940074Y-119371540D01*
X138940020Y-119379345D01*
X138940004Y-119379498D01*
X138940018Y-119379641D01*
X138940000Y-119382151D01*
X138940000Y-130633968D01*
X138879422Y-130665637D01*
X138651485Y-130848903D01*
X138463485Y-131072952D01*
X138322584Y-131329251D01*
X138234148Y-131608036D01*
X138201546Y-131898688D01*
X138201400Y-131919612D01*
X138201400Y-132240388D01*
X138229941Y-132531468D01*
X138314475Y-132811460D01*
X138451784Y-133069701D01*
X138636637Y-133296353D01*
X138861994Y-133482784D01*
X139119269Y-133621892D01*
X139398665Y-133708379D01*
X139689538Y-133738951D01*
X139980810Y-133712444D01*
X140261385Y-133629866D01*
X140520578Y-133494363D01*
X140748515Y-133311097D01*
X140936515Y-133087048D01*
X140969299Y-133027413D01*
X140991784Y-133069701D01*
X141176637Y-133296353D01*
X141401994Y-133482784D01*
X141659269Y-133621892D01*
X141938665Y-133708379D01*
X142229538Y-133738951D01*
X142520810Y-133712444D01*
X142801385Y-133629866D01*
X143060578Y-133494363D01*
X143288515Y-133311097D01*
X143476515Y-133087048D01*
X143509299Y-133027413D01*
X143531784Y-133069701D01*
X143716637Y-133296353D01*
X143941994Y-133482784D01*
X144199269Y-133621892D01*
X144478665Y-133708379D01*
X144769538Y-133738951D01*
X145060810Y-133712444D01*
X145341385Y-133629866D01*
X145600578Y-133494363D01*
X145828515Y-133311097D01*
X146016515Y-133087048D01*
X146049299Y-133027413D01*
X146071784Y-133069701D01*
X146256637Y-133296353D01*
X146481994Y-133482784D01*
X146739269Y-133621892D01*
X147018665Y-133708379D01*
X147309538Y-133738951D01*
X147600810Y-133712444D01*
X147881385Y-133629866D01*
X148140578Y-133494363D01*
X148368515Y-133311097D01*
X148556515Y-133087048D01*
X148589299Y-133027413D01*
X148611784Y-133069701D01*
X148796637Y-133296353D01*
X149021994Y-133482784D01*
X149279269Y-133621892D01*
X149558665Y-133708379D01*
X149849538Y-133738951D01*
X150140810Y-133712444D01*
X150421385Y-133629866D01*
X150680578Y-133494363D01*
X150908515Y-133311097D01*
X151096515Y-133087048D01*
X151129299Y-133027413D01*
X151151784Y-133069701D01*
X151336637Y-133296353D01*
X151561994Y-133482784D01*
X151819269Y-133621892D01*
X152098665Y-133708379D01*
X152389538Y-133738951D01*
X152680810Y-133712444D01*
X152961385Y-133629866D01*
X153220578Y-133494363D01*
X153448515Y-133311097D01*
X153636515Y-133087048D01*
X153670556Y-133025128D01*
X153821514Y-133231729D01*
X154037965Y-133430733D01*
X154289081Y-133583686D01*
X154565211Y-133684709D01*
X154580974Y-133687358D01*
X154813000Y-133566217D01*
X154813000Y-132207000D01*
X154793000Y-132207000D01*
X154793000Y-131953000D01*
X154813000Y-131953000D01*
X154813000Y-130593783D01*
X154580974Y-130472642D01*
X154565211Y-130475291D01*
X154289081Y-130576314D01*
X154037965Y-130729267D01*
X153821514Y-130928271D01*
X153671343Y-131133795D01*
X153648216Y-131090299D01*
X153463363Y-130863647D01*
X153238006Y-130677216D01*
X153160000Y-130635038D01*
X153160000Y-129854802D01*
X154449126Y-128565676D01*
X154745533Y-128630846D01*
X155066003Y-128637558D01*
X155381674Y-128581897D01*
X155680521Y-128465982D01*
X155951162Y-128294228D01*
X156183288Y-128073177D01*
X156368058Y-127811250D01*
X156498433Y-127518422D01*
X156569448Y-127205847D01*
X156574560Y-126839730D01*
X156512301Y-126525294D01*
X156390152Y-126228940D01*
X156212768Y-125961956D01*
X155986905Y-125734510D01*
X155721165Y-125555266D01*
X155425671Y-125431052D01*
X155111677Y-125366598D01*
X154791145Y-125364360D01*
X154476283Y-125424424D01*
X154179083Y-125544500D01*
X153910867Y-125720016D01*
X153681849Y-125944286D01*
X153670982Y-125960157D01*
X153446905Y-125734510D01*
X153181165Y-125555266D01*
X152885671Y-125431052D01*
X152571677Y-125366598D01*
X152251145Y-125364360D01*
X151936283Y-125424424D01*
X151639083Y-125544500D01*
X151370867Y-125720016D01*
X151141849Y-125944286D01*
X150960755Y-126208768D01*
X150834481Y-126503388D01*
X150767837Y-126816924D01*
X150763361Y-127137432D01*
X150821225Y-127452707D01*
X150835766Y-127489432D01*
X149322599Y-129002599D01*
X149278032Y-129056855D01*
X149232914Y-129110625D01*
X149230989Y-129114126D01*
X149228452Y-129117215D01*
X149195287Y-129179067D01*
X149161457Y-129240604D01*
X149160248Y-129244416D01*
X149158361Y-129247935D01*
X149137848Y-129315031D01*
X149116608Y-129381987D01*
X149116162Y-129385959D01*
X149114994Y-129389781D01*
X149107897Y-129459649D01*
X149100074Y-129529389D01*
X149100020Y-129537194D01*
X149100004Y-129537347D01*
X149100018Y-129537490D01*
X149100000Y-129540000D01*
X149100000Y-130633968D01*
X149039422Y-130665637D01*
X148811485Y-130848903D01*
X148623485Y-131072952D01*
X148590701Y-131132587D01*
X148568216Y-131090299D01*
X148383363Y-130863647D01*
X148158006Y-130677216D01*
X148080000Y-130635038D01*
X148080000Y-128453620D01*
X148331162Y-128294228D01*
X148563288Y-128073177D01*
X148748058Y-127811250D01*
X148878433Y-127518422D01*
X148949448Y-127205847D01*
X148954560Y-126839730D01*
X148892301Y-126525294D01*
X148770152Y-126228940D01*
X148592768Y-125961956D01*
X148366905Y-125734510D01*
X148101165Y-125555266D01*
X147805671Y-125431052D01*
X147491677Y-125366598D01*
X147171145Y-125364360D01*
X146856283Y-125424424D01*
X146559083Y-125544500D01*
X146290867Y-125720016D01*
X146061849Y-125944286D01*
X146050982Y-125960157D01*
X145826905Y-125734510D01*
X145561165Y-125555266D01*
X145265671Y-125431052D01*
X144951677Y-125366598D01*
X144631145Y-125364360D01*
X144316283Y-125424424D01*
X144019083Y-125544500D01*
X143750867Y-125720016D01*
X143521849Y-125944286D01*
X143510982Y-125960157D01*
X143286905Y-125734510D01*
X143021165Y-125555266D01*
X142725671Y-125431052D01*
X142411677Y-125366598D01*
X142091145Y-125364360D01*
X141776283Y-125424424D01*
X141479083Y-125544500D01*
X141210867Y-125720016D01*
X140981849Y-125944286D01*
X140800755Y-126208768D01*
X140674481Y-126503388D01*
X140607837Y-126816924D01*
X140603361Y-127137432D01*
X140661225Y-127452707D01*
X140779223Y-127750737D01*
X140952863Y-128020172D01*
X141175529Y-128250750D01*
X141438740Y-128433686D01*
X141480000Y-128451712D01*
X141480000Y-130633968D01*
X141419422Y-130665637D01*
X141191485Y-130848903D01*
X141003485Y-131072952D01*
X140970701Y-131132587D01*
X140948216Y-131090299D01*
X140763363Y-130863647D01*
X140538006Y-130677216D01*
X140460000Y-130635038D01*
X140460000Y-121182000D01*
X141816429Y-121182000D01*
X141816429Y-125152000D01*
X147743571Y-125152000D01*
X147743571Y-124745750D01*
X157115000Y-124745750D01*
X157115000Y-125522542D01*
X157139403Y-125645223D01*
X157187270Y-125760785D01*
X157256763Y-125864789D01*
X157345211Y-125953237D01*
X157449215Y-126022730D01*
X157564777Y-126070597D01*
X157687458Y-126095000D01*
X158464250Y-126095000D01*
X158623000Y-125936250D01*
X158623000Y-124587000D01*
X157273750Y-124587000D01*
X157115000Y-124745750D01*
X147743571Y-124745750D01*
X147743571Y-121182000D01*
X141816429Y-121182000D01*
X140460000Y-121182000D01*
X140460000Y-119696953D01*
X140608968Y-119547985D01*
X140661225Y-119832707D01*
X140779223Y-120130737D01*
X140952863Y-120400172D01*
X141175529Y-120630750D01*
X141438740Y-120813686D01*
X141732471Y-120942014D01*
X142045533Y-121010846D01*
X142366003Y-121017558D01*
X142681674Y-120961897D01*
X142980521Y-120845982D01*
X143251162Y-120674228D01*
X143483288Y-120453177D01*
X143508937Y-120416817D01*
X143715529Y-120630750D01*
X143978740Y-120813686D01*
X144272471Y-120942014D01*
X144585533Y-121010846D01*
X144906003Y-121017558D01*
X145221674Y-120961897D01*
X145520521Y-120845982D01*
X145791162Y-120674228D01*
X146023288Y-120453177D01*
X146048937Y-120416817D01*
X146255529Y-120630750D01*
X146518740Y-120813686D01*
X146812471Y-120942014D01*
X147125533Y-121010846D01*
X147446003Y-121017558D01*
X147761674Y-120961897D01*
X148060521Y-120845982D01*
X148331162Y-120674228D01*
X148563288Y-120453177D01*
X148748058Y-120191250D01*
X148878433Y-119898422D01*
X148949448Y-119585847D01*
X148954560Y-119219730D01*
X148892301Y-118905294D01*
X148770152Y-118608940D01*
X148592768Y-118341956D01*
X148366905Y-118114510D01*
X148101165Y-117935266D01*
X147805671Y-117811052D01*
X147491677Y-117746598D01*
X147171145Y-117744360D01*
X146856283Y-117804424D01*
X146829890Y-117815088D01*
X146808449Y-117793647D01*
X146808449Y-115990411D01*
X146888182Y-116024367D01*
X146970961Y-116041904D01*
X147193000Y-115919915D01*
X147193000Y-114427000D01*
X147447000Y-114427000D01*
X147447000Y-115919915D01*
X147669039Y-116041904D01*
X147751818Y-116024367D01*
X148011646Y-115913715D01*
X148244895Y-115754500D01*
X148442601Y-115552839D01*
X148597166Y-115316483D01*
X148702650Y-115054514D01*
X148755000Y-114777000D01*
X148755000Y-114427000D01*
X147447000Y-114427000D01*
X147193000Y-114427000D01*
X147173000Y-114427000D01*
X147173000Y-114173000D01*
X147193000Y-114173000D01*
X147193000Y-112680085D01*
X147447000Y-112680085D01*
X147447000Y-114173000D01*
X148755000Y-114173000D01*
X148755000Y-113823000D01*
X148702650Y-113545486D01*
X148597166Y-113283517D01*
X148442601Y-113047161D01*
X148244895Y-112845500D01*
X148011646Y-112686285D01*
X147751818Y-112575633D01*
X147669039Y-112558096D01*
X147447000Y-112680085D01*
X147193000Y-112680085D01*
X146970961Y-112558096D01*
X146888182Y-112575633D01*
X146808449Y-112609589D01*
X146808449Y-111354771D01*
X146801597Y-111284890D01*
X146795480Y-111214968D01*
X146794365Y-111211130D01*
X146793975Y-111207153D01*
X146773695Y-111139983D01*
X146754099Y-111072532D01*
X146752258Y-111068981D01*
X146751104Y-111065158D01*
X146718159Y-111003197D01*
X146685839Y-110940846D01*
X146683346Y-110937723D01*
X146681469Y-110934193D01*
X146637094Y-110879784D01*
X146593301Y-110824925D01*
X146587818Y-110819365D01*
X146587723Y-110819249D01*
X146587615Y-110819160D01*
X146585850Y-110817370D01*
X145540000Y-109771520D01*
X145540000Y-108252857D01*
X145565753Y-108239394D01*
X145784017Y-108063905D01*
X145964038Y-107849365D01*
X146050228Y-107692585D01*
X146124758Y-107832754D01*
X146301766Y-108049787D01*
X146517558Y-108228306D01*
X146585826Y-108265219D01*
X146594764Y-108294821D01*
X146614351Y-108362240D01*
X146616190Y-108365788D01*
X146617345Y-108369613D01*
X146650299Y-108431591D01*
X146682610Y-108493925D01*
X146685103Y-108497048D01*
X146686980Y-108500578D01*
X146731353Y-108554985D01*
X146775148Y-108609846D01*
X146780631Y-108615406D01*
X146780726Y-108615522D01*
X146780834Y-108615611D01*
X146782599Y-108617401D01*
X147511455Y-109346257D01*
X147511455Y-111453403D01*
X147518306Y-111523280D01*
X147524424Y-111593206D01*
X147525539Y-111597044D01*
X147525929Y-111601021D01*
X147546219Y-111668224D01*
X147565806Y-111735643D01*
X147567645Y-111739191D01*
X147568800Y-111743016D01*
X147601754Y-111804994D01*
X147634065Y-111867328D01*
X147636558Y-111870451D01*
X147638435Y-111873981D01*
X147682810Y-111928390D01*
X147726603Y-111983249D01*
X147732086Y-111988809D01*
X147732181Y-111988925D01*
X147732289Y-111989014D01*
X147734054Y-111990804D01*
X150373642Y-114630392D01*
X150373642Y-115663418D01*
X150380493Y-115733295D01*
X150386611Y-115803221D01*
X150387726Y-115807059D01*
X150388116Y-115811036D01*
X150408406Y-115878239D01*
X150427993Y-115945658D01*
X150429832Y-115949206D01*
X150430987Y-115953031D01*
X150463941Y-116015009D01*
X150496252Y-116077343D01*
X150498745Y-116080466D01*
X150500622Y-116083996D01*
X150544997Y-116138405D01*
X150588790Y-116193264D01*
X150594273Y-116198824D01*
X150594368Y-116198940D01*
X150594476Y-116199029D01*
X150596241Y-116200819D01*
X151640000Y-117244578D01*
X151640000Y-117924130D01*
X151639083Y-117924500D01*
X151370867Y-118100016D01*
X151141849Y-118324286D01*
X150960755Y-118588768D01*
X150834481Y-118883388D01*
X150767837Y-119196924D01*
X150763361Y-119517432D01*
X150821225Y-119832707D01*
X150939223Y-120130737D01*
X151112863Y-120400172D01*
X151335529Y-120630750D01*
X151598740Y-120813686D01*
X151892471Y-120942014D01*
X152205533Y-121010846D01*
X152526003Y-121017558D01*
X152841674Y-120961897D01*
X153140521Y-120845982D01*
X153411162Y-120674228D01*
X153643288Y-120453177D01*
X153668937Y-120416817D01*
X153875529Y-120630750D01*
X154138740Y-120813686D01*
X154432471Y-120942014D01*
X154745533Y-121010846D01*
X155066003Y-121017558D01*
X155381674Y-120961897D01*
X155680521Y-120845982D01*
X155951162Y-120674228D01*
X156183288Y-120453177D01*
X156368058Y-120191250D01*
X156498433Y-119898422D01*
X156569448Y-119585847D01*
X156574560Y-119219730D01*
X156512301Y-118905294D01*
X156390152Y-118608940D01*
X156212768Y-118341956D01*
X155986905Y-118114510D01*
X155721165Y-117935266D01*
X155652071Y-117906221D01*
X155645649Y-117884118D01*
X155643810Y-117880570D01*
X155642655Y-117876745D01*
X155609701Y-117814767D01*
X155577390Y-117752433D01*
X155574897Y-117749310D01*
X155573020Y-117745780D01*
X155528645Y-117691371D01*
X155484852Y-117636512D01*
X155479369Y-117630952D01*
X155479274Y-117630836D01*
X155479166Y-117630747D01*
X155477401Y-117628957D01*
X152724139Y-114875695D01*
X152724139Y-114427000D01*
X153521400Y-114427000D01*
X153521400Y-115087400D01*
X153574972Y-115377322D01*
X153684075Y-115651222D01*
X153844517Y-115898574D01*
X154050132Y-116109873D01*
X154293019Y-116276998D01*
X154563843Y-116393527D01*
X154660974Y-116415358D01*
X154893000Y-116294217D01*
X154893000Y-114427000D01*
X155147000Y-114427000D01*
X155147000Y-116294217D01*
X155379026Y-116415358D01*
X155476157Y-116393527D01*
X155746981Y-116276998D01*
X155989868Y-116109873D01*
X156195483Y-115898574D01*
X156355925Y-115651222D01*
X156465028Y-115377322D01*
X156518600Y-115087400D01*
X156518600Y-114427000D01*
X155147000Y-114427000D01*
X154893000Y-114427000D01*
X153521400Y-114427000D01*
X152724139Y-114427000D01*
X152724139Y-114045855D01*
X152717288Y-113975978D01*
X152711170Y-113906052D01*
X152710055Y-113902214D01*
X152709665Y-113898237D01*
X152689375Y-113831034D01*
X152669788Y-113763615D01*
X152667949Y-113760067D01*
X152666794Y-113756242D01*
X152633830Y-113694245D01*
X152601528Y-113631929D01*
X152599036Y-113628808D01*
X152597159Y-113625277D01*
X152552780Y-113570862D01*
X152508991Y-113516009D01*
X152505630Y-113512600D01*
X153521400Y-113512600D01*
X153521400Y-114173000D01*
X154893000Y-114173000D01*
X154893000Y-112305783D01*
X155147000Y-112305783D01*
X155147000Y-114173000D01*
X156518600Y-114173000D01*
X156518600Y-113512600D01*
X156465028Y-113222678D01*
X156355925Y-112948778D01*
X156195483Y-112701426D01*
X155989868Y-112490127D01*
X155746981Y-112323002D01*
X155476157Y-112206473D01*
X155379026Y-112184642D01*
X155147000Y-112305783D01*
X154893000Y-112305783D01*
X154660974Y-112184642D01*
X154563843Y-112206473D01*
X154293019Y-112323002D01*
X154050132Y-112490127D01*
X153844517Y-112701426D01*
X153684075Y-112948778D01*
X153574972Y-113222678D01*
X153521400Y-113512600D01*
X152505630Y-113512600D01*
X152503508Y-113510449D01*
X152503413Y-113510333D01*
X152503305Y-113510244D01*
X152501540Y-113508454D01*
X149873971Y-110880885D01*
X149873971Y-109883975D01*
X150050574Y-110005291D01*
X150319047Y-110120563D01*
X150413110Y-110141476D01*
X150643000Y-110020155D01*
X150643000Y-108177000D01*
X150623000Y-108177000D01*
X150623000Y-107923000D01*
X150643000Y-107923000D01*
X150643000Y-106079845D01*
X150897000Y-106079845D01*
X150897000Y-107923000D01*
X150917000Y-107923000D01*
X150917000Y-108177000D01*
X150897000Y-108177000D01*
X150897000Y-110020155D01*
X151126890Y-110141476D01*
X151220953Y-110120563D01*
X151489426Y-110005291D01*
X151730252Y-109839857D01*
X151934176Y-109630619D01*
X152093361Y-109385618D01*
X152108782Y-109346991D01*
X152243001Y-109440276D01*
X152527838Y-109564718D01*
X152831422Y-109631465D01*
X153142188Y-109637975D01*
X153448300Y-109583999D01*
X153738099Y-109471594D01*
X154000545Y-109305040D01*
X154225643Y-109090683D01*
X154404818Y-108836686D01*
X154531245Y-108552724D01*
X154600110Y-108249614D01*
X154605068Y-107894583D01*
X154544693Y-107589668D01*
X154426243Y-107302287D01*
X154254230Y-107043387D01*
X154035205Y-106822827D01*
X153777512Y-106649011D01*
X153490965Y-106528558D01*
X153186479Y-106466056D01*
X152875652Y-106463886D01*
X152570324Y-106522130D01*
X152282123Y-106638571D01*
X152108463Y-106752211D01*
X152093361Y-106714382D01*
X151934176Y-106469381D01*
X151730252Y-106260143D01*
X151489426Y-106094709D01*
X151220953Y-105979437D01*
X151126890Y-105958524D01*
X150897000Y-106079845D01*
X150643000Y-106079845D01*
X150413110Y-105958524D01*
X150319047Y-105979437D01*
X150050574Y-106094709D01*
X149873971Y-106216025D01*
X149873971Y-105933971D01*
X149867120Y-105864094D01*
X149861002Y-105794168D01*
X149859887Y-105790330D01*
X149859497Y-105786353D01*
X149839207Y-105719150D01*
X149819620Y-105651731D01*
X149817781Y-105648183D01*
X149816626Y-105644358D01*
X149783662Y-105582361D01*
X149751360Y-105520045D01*
X149748868Y-105516924D01*
X149746991Y-105513393D01*
X149702612Y-105458978D01*
X149658823Y-105404125D01*
X149653340Y-105398565D01*
X149653245Y-105398449D01*
X149653137Y-105398360D01*
X149651372Y-105396570D01*
X147136729Y-102881927D01*
X147082473Y-102837360D01*
X147028703Y-102792242D01*
X147025202Y-102790317D01*
X147022113Y-102787780D01*
X146960261Y-102754615D01*
X146898724Y-102720785D01*
X146894912Y-102719576D01*
X146891393Y-102717689D01*
X146824297Y-102697176D01*
X146757341Y-102675936D01*
X146753369Y-102675490D01*
X146749547Y-102674322D01*
X146679679Y-102667225D01*
X146609939Y-102659402D01*
X146602134Y-102659348D01*
X146601981Y-102659332D01*
X146601838Y-102659346D01*
X146599328Y-102659328D01*
X145693437Y-102659328D01*
X145842639Y-102517245D01*
X146000561Y-102293375D01*
X146111993Y-102043095D01*
X146138369Y-101927000D01*
X153521400Y-101927000D01*
X153521400Y-102587400D01*
X153574972Y-102877322D01*
X153684075Y-103151222D01*
X153844517Y-103398574D01*
X154050132Y-103609873D01*
X154293019Y-103776998D01*
X154563843Y-103893527D01*
X154660974Y-103915358D01*
X154893000Y-103794217D01*
X154893000Y-101927000D01*
X155147000Y-101927000D01*
X155147000Y-103794217D01*
X155379026Y-103915358D01*
X155476157Y-103893527D01*
X155746981Y-103776998D01*
X155989868Y-103609873D01*
X156195483Y-103398574D01*
X156355925Y-103151222D01*
X156465028Y-102877322D01*
X156518600Y-102587400D01*
X156518600Y-101927000D01*
X155147000Y-101927000D01*
X154893000Y-101927000D01*
X153521400Y-101927000D01*
X146138369Y-101927000D01*
X146172690Y-101775938D01*
X146177059Y-101463017D01*
X146123846Y-101194269D01*
X146048968Y-101012600D01*
X153521400Y-101012600D01*
X153521400Y-101673000D01*
X154893000Y-101673000D01*
X154893000Y-99805783D01*
X155147000Y-99805783D01*
X155147000Y-101673000D01*
X156518600Y-101673000D01*
X156518600Y-101129154D01*
X158521400Y-101129154D01*
X158521400Y-102470846D01*
X158549941Y-102761926D01*
X158634475Y-103041918D01*
X158771784Y-103300159D01*
X158956637Y-103526811D01*
X159181994Y-103713242D01*
X159439269Y-103852350D01*
X159718665Y-103938837D01*
X160009538Y-103969409D01*
X160300810Y-103942902D01*
X160581385Y-103860324D01*
X160840578Y-103724821D01*
X161068515Y-103541555D01*
X161256515Y-103317506D01*
X161397416Y-103061207D01*
X161485852Y-102782422D01*
X161518454Y-102491770D01*
X161518600Y-102470846D01*
X161518600Y-101129154D01*
X161490059Y-100838074D01*
X161405525Y-100558082D01*
X161268216Y-100299841D01*
X161083363Y-100073189D01*
X160858006Y-99886758D01*
X160600731Y-99747650D01*
X160321335Y-99661163D01*
X160030462Y-99630591D01*
X159739190Y-99657098D01*
X159458615Y-99739676D01*
X159199422Y-99875179D01*
X158971485Y-100058445D01*
X158783485Y-100282494D01*
X158642584Y-100538793D01*
X158554148Y-100817578D01*
X158521546Y-101108230D01*
X158521400Y-101129154D01*
X156518600Y-101129154D01*
X156518600Y-101012600D01*
X156465028Y-100722678D01*
X156355925Y-100448778D01*
X156195483Y-100201426D01*
X155989868Y-99990127D01*
X155746981Y-99823002D01*
X155476157Y-99706473D01*
X155379026Y-99684642D01*
X155147000Y-99805783D01*
X154893000Y-99805783D01*
X154660974Y-99684642D01*
X154563843Y-99706473D01*
X154293019Y-99823002D01*
X154050132Y-99990127D01*
X153844517Y-100201426D01*
X153684075Y-100448778D01*
X153574972Y-100722678D01*
X153521400Y-101012600D01*
X146048968Y-101012600D01*
X146019446Y-100940975D01*
X145867835Y-100712783D01*
X145674790Y-100518385D01*
X145447662Y-100365185D01*
X145195103Y-100259019D01*
X144926733Y-100203931D01*
X144652774Y-100202018D01*
X144488212Y-100233410D01*
X141264874Y-97010072D01*
X141329448Y-96725847D01*
X141330403Y-96657432D01*
X145683361Y-96657432D01*
X145741225Y-96972707D01*
X145859223Y-97270737D01*
X146032863Y-97540172D01*
X146255529Y-97770750D01*
X146518740Y-97953686D01*
X146812471Y-98082014D01*
X147125533Y-98150846D01*
X147446003Y-98157558D01*
X147761674Y-98101897D01*
X148060521Y-97985982D01*
X148331162Y-97814228D01*
X148563288Y-97593177D01*
X148748058Y-97331250D01*
X148878433Y-97038422D01*
X148949448Y-96725847D01*
X148954560Y-96359730D01*
X148892301Y-96045294D01*
X148885648Y-96029154D01*
X149361628Y-95553174D01*
X149361628Y-96380300D01*
X149369692Y-96481421D01*
X149422806Y-96652934D01*
X149521600Y-96802859D01*
X149658250Y-96919325D01*
X149821937Y-96993110D01*
X149999700Y-97018372D01*
X154800300Y-97018372D01*
X154901421Y-97010308D01*
X155072934Y-96957194D01*
X155222859Y-96858400D01*
X155339325Y-96721750D01*
X155413110Y-96558063D01*
X155438372Y-96380300D01*
X155438372Y-96112242D01*
X156543363Y-96112242D01*
X156807563Y-96520000D01*
X157335535Y-96800593D01*
X157908104Y-96972792D01*
X158503265Y-97029979D01*
X159098147Y-96969957D01*
X159669888Y-96795033D01*
X160184437Y-96520000D01*
X160448637Y-96112242D01*
X158496000Y-94159605D01*
X156543363Y-96112242D01*
X155438372Y-96112242D01*
X155438372Y-91838278D01*
X155848869Y-91928532D01*
X156273826Y-91937434D01*
X156363756Y-92027364D01*
X155956000Y-92291563D01*
X155675407Y-92819535D01*
X155503208Y-93392104D01*
X155446021Y-93987265D01*
X155506043Y-94582147D01*
X155680967Y-95153888D01*
X155956000Y-95668437D01*
X156363758Y-95932637D01*
X158316395Y-93980000D01*
X158675605Y-93980000D01*
X160628242Y-95932637D01*
X161036000Y-95668437D01*
X161316593Y-95140465D01*
X161488792Y-94567896D01*
X161545979Y-93972735D01*
X161485957Y-93377853D01*
X161311033Y-92806112D01*
X161036000Y-92291563D01*
X160628242Y-92027363D01*
X158675605Y-93980000D01*
X158316395Y-93980000D01*
X158302253Y-93965858D01*
X158481858Y-93786253D01*
X158496000Y-93800395D01*
X160448637Y-91847758D01*
X160184437Y-91440000D01*
X159656465Y-91159407D01*
X159083896Y-90987208D01*
X158488735Y-90930021D01*
X158478819Y-90931022D01*
X158518825Y-90892924D01*
X158585829Y-90797939D01*
X161226530Y-90797939D01*
X161231198Y-90850144D01*
X161232283Y-90902541D01*
X161238358Y-90930203D01*
X161240880Y-90958408D01*
X161255596Y-91008702D01*
X161266840Y-91059901D01*
X161278174Y-91085860D01*
X161286125Y-91113034D01*
X161310330Y-91159512D01*
X161331304Y-91207551D01*
X161347463Y-91230814D01*
X161360542Y-91255927D01*
X161393309Y-91296812D01*
X161423218Y-91339869D01*
X161430748Y-91348596D01*
X162121288Y-92137784D01*
X162112931Y-92144237D01*
X162103175Y-92149424D01*
X162049246Y-92193407D01*
X161994159Y-92235939D01*
X161986891Y-92244262D01*
X161978324Y-92251249D01*
X161933947Y-92304891D01*
X161888189Y-92357292D01*
X161882677Y-92366866D01*
X161875629Y-92375386D01*
X161842521Y-92436619D01*
X161807808Y-92496916D01*
X161804259Y-92507383D01*
X161799002Y-92517106D01*
X161778424Y-92583584D01*
X161756077Y-92649495D01*
X161754629Y-92660454D01*
X161751361Y-92671010D01*
X161744086Y-92740223D01*
X161734968Y-92809216D01*
X161735676Y-92820243D01*
X161734520Y-92831237D01*
X161740827Y-92900534D01*
X161745284Y-92969994D01*
X161748120Y-92980675D01*
X161749122Y-92991683D01*
X161768771Y-93058445D01*
X161786632Y-93125708D01*
X161791490Y-93135637D01*
X161794610Y-93146238D01*
X161826844Y-93207895D01*
X161857437Y-93270424D01*
X161863557Y-93280191D01*
X163042320Y-95132532D01*
X163040925Y-95138983D01*
X163035552Y-95152717D01*
X163023918Y-95217606D01*
X163009980Y-95282039D01*
X163009721Y-95296784D01*
X163007119Y-95311298D01*
X163008310Y-95377211D01*
X163007153Y-95443124D01*
X163009763Y-95457636D01*
X163010029Y-95472380D01*
X163024003Y-95536823D01*
X163035668Y-95601690D01*
X163041045Y-95615414D01*
X163044171Y-95629831D01*
X163070398Y-95690336D01*
X163094438Y-95751697D01*
X163102380Y-95764119D01*
X163108246Y-95777651D01*
X163145711Y-95831889D01*
X163181225Y-95887433D01*
X163191433Y-95898080D01*
X163199812Y-95910210D01*
X163247089Y-95956128D01*
X163292724Y-96003726D01*
X163301528Y-96011167D01*
X164063528Y-96646167D01*
X164073869Y-96653196D01*
X164082920Y-96661838D01*
X164140452Y-96698455D01*
X164196770Y-96736736D01*
X164208273Y-96741620D01*
X164218836Y-96748343D01*
X164282374Y-96773083D01*
X164345066Y-96799702D01*
X164357308Y-96802261D01*
X164368966Y-96806800D01*
X164436061Y-96818721D01*
X164502767Y-96832663D01*
X164515277Y-96832795D01*
X164527591Y-96834983D01*
X164595720Y-96833646D01*
X164663867Y-96834366D01*
X164676161Y-96832067D01*
X164688670Y-96831821D01*
X164755229Y-96817278D01*
X164822231Y-96804746D01*
X164833854Y-96800098D01*
X164846066Y-96797430D01*
X164908522Y-96770241D01*
X164971824Y-96744929D01*
X164982316Y-96738117D01*
X164993785Y-96733124D01*
X165049796Y-96694304D01*
X165106950Y-96657195D01*
X165115919Y-96648475D01*
X165126199Y-96641350D01*
X165173594Y-96592400D01*
X165222462Y-96544887D01*
X165229568Y-96534589D01*
X165238267Y-96525604D01*
X165275250Y-96468383D01*
X165313960Y-96412281D01*
X165318930Y-96400800D01*
X165325719Y-96390295D01*
X165350889Y-96326966D01*
X165377958Y-96264428D01*
X165380602Y-96252203D01*
X165385223Y-96240577D01*
X165397613Y-96173562D01*
X165412020Y-96106961D01*
X165412239Y-96094455D01*
X165414514Y-96082153D01*
X165413652Y-96013988D01*
X165414847Y-95945876D01*
X165412634Y-95933571D01*
X165412476Y-95921057D01*
X165411125Y-95909610D01*
X165284125Y-94893609D01*
X165282153Y-94884877D01*
X165281721Y-94875925D01*
X165264418Y-94806342D01*
X165248637Y-94736458D01*
X165245005Y-94728271D01*
X165242843Y-94719577D01*
X165212364Y-94654699D01*
X165183301Y-94589190D01*
X165178148Y-94581865D01*
X165174339Y-94573757D01*
X165131830Y-94516023D01*
X165090604Y-94457419D01*
X165084128Y-94451236D01*
X165078816Y-94444021D01*
X165025937Y-94395675D01*
X164974080Y-94346162D01*
X164966516Y-94341348D01*
X164959912Y-94335310D01*
X164898682Y-94298175D01*
X164838164Y-94259658D01*
X164829811Y-94256406D01*
X164822158Y-94251764D01*
X164754848Y-94227217D01*
X164688034Y-94201201D01*
X164679214Y-94199634D01*
X164670799Y-94196565D01*
X164601862Y-94185848D01*
X164530687Y-94043500D01*
X164592000Y-94043500D01*
X164669897Y-94035862D01*
X164747958Y-94028634D01*
X164750111Y-94027997D01*
X164752340Y-94027778D01*
X164827330Y-94005138D01*
X164902440Y-93982903D01*
X164904423Y-93981862D01*
X164906574Y-93981213D01*
X164975737Y-93944438D01*
X165045099Y-93908038D01*
X165046848Y-93906627D01*
X165048825Y-93905576D01*
X165109513Y-93856080D01*
X165170498Y-93806889D01*
X165171935Y-93805171D01*
X165173676Y-93803751D01*
X165223654Y-93743338D01*
X165273864Y-93683309D01*
X165274941Y-93681343D01*
X165276371Y-93679614D01*
X165313647Y-93610674D01*
X165351256Y-93542006D01*
X165351930Y-93539869D01*
X165352998Y-93537894D01*
X165376186Y-93462987D01*
X165399729Y-93388361D01*
X165399975Y-93386134D01*
X165400639Y-93383990D01*
X165408838Y-93305984D01*
X165417436Y-93228228D01*
X165417245Y-93225997D01*
X165417480Y-93223763D01*
X165410376Y-93145703D01*
X165403703Y-93067705D01*
X165403081Y-93065549D01*
X165402878Y-93063317D01*
X165380778Y-92988227D01*
X165359052Y-92912907D01*
X165358023Y-92910912D01*
X165357390Y-92908762D01*
X165321113Y-92839371D01*
X165285184Y-92769730D01*
X165282838Y-92766158D01*
X165282749Y-92765987D01*
X165282624Y-92765832D01*
X165278857Y-92760095D01*
X163754858Y-90474095D01*
X163652835Y-90349405D01*
X163583969Y-90292615D01*
X163554816Y-90253021D01*
X163435912Y-90144310D01*
X163298158Y-90060764D01*
X163146799Y-90005565D01*
X162987602Y-89980817D01*
X162826629Y-89987462D01*
X162670014Y-90025246D01*
X162523720Y-90092731D01*
X162497686Y-90111621D01*
X162463664Y-90093462D01*
X162419228Y-90065680D01*
X162392755Y-90055617D01*
X162367773Y-90042283D01*
X162317622Y-90027055D01*
X162268632Y-90008432D01*
X162240713Y-90003703D01*
X162213613Y-89995474D01*
X162161465Y-89990278D01*
X162109786Y-89981524D01*
X162081470Y-89982308D01*
X162053297Y-89979501D01*
X162001140Y-89984532D01*
X161948738Y-89985983D01*
X161921118Y-89992251D01*
X161892933Y-89994970D01*
X161842732Y-90010040D01*
X161791624Y-90021639D01*
X161765757Y-90033148D01*
X161738626Y-90041293D01*
X161692300Y-90065832D01*
X161644428Y-90087132D01*
X161621287Y-90103448D01*
X161596257Y-90116706D01*
X161555588Y-90149769D01*
X161512755Y-90179968D01*
X161493220Y-90200472D01*
X161471246Y-90218336D01*
X161437775Y-90258667D01*
X161401622Y-90296612D01*
X161386443Y-90320518D01*
X161368356Y-90342311D01*
X161343354Y-90388377D01*
X161315262Y-90432620D01*
X161305015Y-90459020D01*
X161291506Y-90483910D01*
X161275930Y-90533949D01*
X161256964Y-90582811D01*
X161252039Y-90610703D01*
X161243623Y-90637740D01*
X161238062Y-90689855D01*
X161228949Y-90741466D01*
X161229535Y-90769776D01*
X161226530Y-90797939D01*
X158585829Y-90797939D01*
X158861948Y-90406516D01*
X159104060Y-89862725D01*
X159235937Y-89282265D01*
X159245431Y-88602373D01*
X159129812Y-88018457D01*
X158902979Y-87468118D01*
X158573571Y-86972319D01*
X158154135Y-86549945D01*
X157660648Y-86217083D01*
X157111906Y-85986413D01*
X156528810Y-85866721D01*
X155933572Y-85862566D01*
X155348862Y-85974105D01*
X154796953Y-86197091D01*
X154298867Y-86523029D01*
X153873574Y-86939506D01*
X153537276Y-87430658D01*
X153302781Y-87977776D01*
X153179021Y-88560021D01*
X153170710Y-89155216D01*
X153278164Y-89740690D01*
X153497292Y-90294143D01*
X153819745Y-90794493D01*
X153961832Y-90941628D01*
X149999700Y-90941628D01*
X149898579Y-90949692D01*
X149727066Y-91002806D01*
X149577141Y-91101600D01*
X149460675Y-91238250D01*
X149386890Y-91401937D01*
X149361628Y-91579700D01*
X149361628Y-93410023D01*
X149330154Y-93435148D01*
X149324594Y-93440631D01*
X149324478Y-93440726D01*
X149324389Y-93440834D01*
X149322599Y-93442599D01*
X147811638Y-94953560D01*
X147805671Y-94951052D01*
X147491677Y-94886598D01*
X147171145Y-94884360D01*
X146856283Y-94944424D01*
X146559083Y-95064500D01*
X146290867Y-95240016D01*
X146061849Y-95464286D01*
X145880755Y-95728768D01*
X145754481Y-96023388D01*
X145687837Y-96336924D01*
X145683361Y-96657432D01*
X141330403Y-96657432D01*
X141334560Y-96359730D01*
X141272301Y-96045294D01*
X141150152Y-95748940D01*
X140972768Y-95481956D01*
X140746905Y-95254510D01*
X140481165Y-95075266D01*
X140185671Y-94951052D01*
X139871677Y-94886598D01*
X139551145Y-94884360D01*
X139236283Y-94944424D01*
X138939083Y-95064500D01*
X138670867Y-95240016D01*
X138441849Y-95464286D01*
X138260755Y-95728768D01*
X138134481Y-96023388D01*
X138067837Y-96336924D01*
X138063361Y-96657432D01*
X138121225Y-96972707D01*
X138135766Y-97009432D01*
X137864222Y-97280976D01*
X137819655Y-97335232D01*
X137774537Y-97389002D01*
X137772612Y-97392503D01*
X137770075Y-97395592D01*
X137736910Y-97457444D01*
X137703080Y-97518981D01*
X137701871Y-97522793D01*
X137699984Y-97526312D01*
X137679471Y-97593408D01*
X137658231Y-97660364D01*
X137657785Y-97664336D01*
X137656617Y-97668158D01*
X137649520Y-97738026D01*
X137641697Y-97807766D01*
X137641643Y-97815571D01*
X137641627Y-97815724D01*
X137641641Y-97815867D01*
X137641623Y-97818377D01*
X136600000Y-97818377D01*
X136600000Y-91091000D01*
X146650668Y-91091000D01*
X146650668Y-88576000D01*
X151788000Y-88576000D01*
X151788000Y-85800000D01*
X160973572Y-85800000D01*
X160973572Y-88576000D01*
X160973572Y-88576000D01*
G37*
X160973572Y-88576000D02*
X165660000Y-88576000D01*
X165660000Y-106880249D01*
X165642951Y-106823780D01*
X165506888Y-106567884D01*
X165323713Y-106343288D01*
X165100401Y-106158549D01*
X164845461Y-106020703D01*
X164568601Y-105935001D01*
X164280367Y-105904706D01*
X163991739Y-105930973D01*
X163713709Y-106012802D01*
X163456869Y-106147075D01*
X163231000Y-106328678D01*
X163044706Y-106550694D01*
X162932999Y-106753888D01*
X162777512Y-106649011D01*
X162490965Y-106528558D01*
X162186479Y-106466056D01*
X161875652Y-106463886D01*
X161570324Y-106522130D01*
X161282123Y-106638571D01*
X161022028Y-106808773D01*
X160799945Y-107026252D01*
X160624334Y-107282726D01*
X160501883Y-107568425D01*
X160437257Y-107872467D01*
X160432917Y-108183271D01*
X160489028Y-108488999D01*
X160603454Y-108778006D01*
X160771836Y-109039283D01*
X160987760Y-109262878D01*
X161243001Y-109440276D01*
X161527838Y-109564718D01*
X161831422Y-109631465D01*
X162142188Y-109637975D01*
X162281849Y-109613349D01*
X162153287Y-109741911D01*
X160643089Y-109741911D01*
X160573208Y-109748763D01*
X160503286Y-109754880D01*
X160499448Y-109755995D01*
X160495471Y-109756385D01*
X160428301Y-109776665D01*
X160360850Y-109796261D01*
X160357299Y-109798102D01*
X160353476Y-109799256D01*
X160291515Y-109832201D01*
X160229164Y-109864521D01*
X160226041Y-109867014D01*
X160222511Y-109868891D01*
X160168102Y-109913266D01*
X160113243Y-109957059D01*
X160107683Y-109962542D01*
X160107567Y-109962637D01*
X160107478Y-109962745D01*
X160105688Y-109964510D01*
X157577599Y-112492599D01*
X157533032Y-112546855D01*
X157487914Y-112600625D01*
X157485989Y-112604126D01*
X157483452Y-112607215D01*
X157450287Y-112669067D01*
X157416457Y-112730604D01*
X157415248Y-112734416D01*
X157413361Y-112737935D01*
X157392848Y-112805031D01*
X157371608Y-112871987D01*
X157371162Y-112875959D01*
X157369994Y-112879781D01*
X157362897Y-112949649D01*
X157355074Y-113019389D01*
X157355020Y-113027194D01*
X157355004Y-113027347D01*
X157355018Y-113027490D01*
X157355000Y-113030000D01*
X157355000Y-115570000D01*
X157361851Y-115639877D01*
X157367969Y-115709803D01*
X157369084Y-115713641D01*
X157369474Y-115717618D01*
X157389764Y-115784821D01*
X157409351Y-115852240D01*
X157411190Y-115855788D01*
X157412345Y-115859613D01*
X157445299Y-115921591D01*
X157477610Y-115983925D01*
X157480103Y-115987048D01*
X157481980Y-115990578D01*
X157526355Y-116044987D01*
X157570148Y-116099846D01*
X157575631Y-116105406D01*
X157575726Y-116105522D01*
X157575834Y-116105611D01*
X157577599Y-116107401D01*
X157990000Y-116519802D01*
X157990000Y-120463580D01*
X157988846Y-120464046D01*
X157720546Y-120639617D01*
X157491457Y-120863957D01*
X157310306Y-121128522D01*
X157183993Y-121423233D01*
X157117328Y-121736866D01*
X157112851Y-122057475D01*
X157170733Y-122372848D01*
X157288768Y-122670971D01*
X157439004Y-122904093D01*
X157345211Y-122966763D01*
X157256763Y-123055211D01*
X157187270Y-123159215D01*
X157139403Y-123274777D01*
X157115000Y-123397458D01*
X157115000Y-124174250D01*
X157273750Y-124333000D01*
X158623000Y-124333000D01*
X158623000Y-124313000D01*
X158877000Y-124313000D01*
X158877000Y-124333000D01*
X158897000Y-124333000D01*
X158897000Y-124587000D01*
X158877000Y-124587000D01*
X158877000Y-125936250D01*
X159035750Y-126095000D01*
X159475079Y-126095000D01*
X159438032Y-126140101D01*
X159392914Y-126193871D01*
X159390989Y-126197372D01*
X159388452Y-126200461D01*
X159355287Y-126262313D01*
X159321457Y-126323850D01*
X159320248Y-126327662D01*
X159318361Y-126331181D01*
X159297848Y-126398277D01*
X159276608Y-126465233D01*
X159276162Y-126469205D01*
X159274994Y-126473027D01*
X159267897Y-126542895D01*
X159260074Y-126612635D01*
X159260020Y-126620440D01*
X159260004Y-126620593D01*
X159260018Y-126620736D01*
X159260000Y-126623246D01*
X159260000Y-130633968D01*
X159199422Y-130665637D01*
X158971485Y-130848903D01*
X158783485Y-131072952D01*
X158750701Y-131132587D01*
X158728216Y-131090299D01*
X158543363Y-130863647D01*
X158318006Y-130677216D01*
X158060731Y-130538108D01*
X157781335Y-130451621D01*
X157490462Y-130421049D01*
X157199190Y-130447556D01*
X156918615Y-130530134D01*
X156659422Y-130665637D01*
X156431485Y-130848903D01*
X156243485Y-131072952D01*
X156209444Y-131134872D01*
X156058486Y-130928271D01*
X155842035Y-130729267D01*
X155590919Y-130576314D01*
X155314789Y-130475291D01*
X155299026Y-130472642D01*
X155067000Y-130593783D01*
X155067000Y-131953000D01*
X155087000Y-131953000D01*
X155087000Y-132207000D01*
X155067000Y-132207000D01*
X155067000Y-133566217D01*
X155299026Y-133687358D01*
X155314789Y-133684709D01*
X155590919Y-133583686D01*
X155842035Y-133430733D01*
X156058486Y-133231729D01*
X156208657Y-133026205D01*
X156231784Y-133069701D01*
X156416637Y-133296353D01*
X156641994Y-133482784D01*
X156899269Y-133621892D01*
X157178665Y-133708379D01*
X157469538Y-133738951D01*
X157760810Y-133712444D01*
X158041385Y-133629866D01*
X158300578Y-133494363D01*
X158528515Y-133311097D01*
X158716515Y-133087048D01*
X158749299Y-133027413D01*
X158771784Y-133069701D01*
X158956637Y-133296353D01*
X159181994Y-133482784D01*
X159439269Y-133621892D01*
X159718665Y-133708379D01*
X160009538Y-133738951D01*
X160300810Y-133712444D01*
X160581385Y-133629866D01*
X160840578Y-133494363D01*
X161068515Y-133311097D01*
X161092745Y-133282220D01*
X161119506Y-133368634D01*
X161218300Y-133518559D01*
X161354950Y-133635025D01*
X161518637Y-133708810D01*
X161696400Y-133734072D01*
X163423600Y-133734072D01*
X163524721Y-133726008D01*
X163696234Y-133672894D01*
X163846159Y-133574100D01*
X163962625Y-133437450D01*
X164036410Y-133273763D01*
X164061672Y-133096000D01*
X164061672Y-131064000D01*
X164053608Y-130962879D01*
X164000494Y-130791366D01*
X163901700Y-130641441D01*
X163765050Y-130524975D01*
X163601363Y-130451190D01*
X163423600Y-130425928D01*
X163320000Y-130425928D01*
X163320000Y-128453620D01*
X163571162Y-128294228D01*
X163803288Y-128073177D01*
X163988058Y-127811250D01*
X164118433Y-127518422D01*
X164189448Y-127205847D01*
X164194560Y-126839730D01*
X164132301Y-126525294D01*
X164010152Y-126228940D01*
X163832768Y-125961956D01*
X163606905Y-125734510D01*
X163341165Y-125555266D01*
X163045671Y-125431052D01*
X162731677Y-125366598D01*
X162411145Y-125364360D01*
X162096283Y-125424424D01*
X161799083Y-125544500D01*
X161530867Y-125720016D01*
X161384325Y-125863520D01*
X161384325Y-125152000D01*
X164829143Y-125152000D01*
X164829143Y-121182000D01*
X161384325Y-121182000D01*
X161384325Y-121083589D01*
X161377473Y-121013708D01*
X161371356Y-120943786D01*
X161370241Y-120939948D01*
X161369851Y-120935971D01*
X161349571Y-120868801D01*
X161329975Y-120801350D01*
X161328134Y-120797799D01*
X161326980Y-120793976D01*
X161294035Y-120732015D01*
X161261715Y-120669664D01*
X161259222Y-120666541D01*
X161257345Y-120663011D01*
X161212970Y-120608602D01*
X161169177Y-120553743D01*
X161163694Y-120548183D01*
X161163599Y-120548067D01*
X161163491Y-120547978D01*
X161161726Y-120546188D01*
X160700000Y-120084462D01*
X160700000Y-116298313D01*
X160840578Y-116224821D01*
X161068515Y-116041555D01*
X161256515Y-115817506D01*
X161397416Y-115561207D01*
X161485852Y-115282422D01*
X161518454Y-114991770D01*
X161518600Y-114970846D01*
X161518600Y-113629154D01*
X161490059Y-113338074D01*
X161405525Y-113058082D01*
X161268216Y-112799841D01*
X161083363Y-112573189D01*
X160858006Y-112386758D01*
X160600731Y-112247650D01*
X160321335Y-112161163D01*
X160083623Y-112136179D01*
X160957891Y-111261911D01*
X161800000Y-111261911D01*
X161800000Y-117924130D01*
X161799083Y-117924500D01*
X161530867Y-118100016D01*
X161301849Y-118324286D01*
X161120755Y-118588768D01*
X160994481Y-118883388D01*
X160927837Y-119196924D01*
X160923361Y-119517432D01*
X160981225Y-119832707D01*
X161099223Y-120130737D01*
X161272863Y-120400172D01*
X161495529Y-120630750D01*
X161758740Y-120813686D01*
X162052471Y-120942014D01*
X162365533Y-121010846D01*
X162686003Y-121017558D01*
X163001674Y-120961897D01*
X163300521Y-120845982D01*
X163571162Y-120674228D01*
X163803288Y-120453177D01*
X163988058Y-120191250D01*
X164118433Y-119898422D01*
X164189448Y-119585847D01*
X164194560Y-119219730D01*
X164132301Y-118905294D01*
X164010152Y-118608940D01*
X163832768Y-118341956D01*
X163606905Y-118114510D01*
X163341165Y-117935266D01*
X163320000Y-117926369D01*
X163320000Y-110724802D01*
X163901454Y-110143348D01*
X163971399Y-110164999D01*
X164259633Y-110195294D01*
X164548261Y-110169027D01*
X164826291Y-110087198D01*
X165083131Y-109952925D01*
X165309000Y-109771322D01*
X165495294Y-109549306D01*
X165634916Y-109295334D01*
X165660000Y-109216259D01*
X165660000Y-133910000D01*
X136600000Y-133910000D01*
X136600000Y-97818377D01*
X137641623Y-97818377D01*
X137641623Y-110571578D01*
X137648474Y-110641455D01*
X137654592Y-110711381D01*
X137655707Y-110715219D01*
X137656097Y-110719196D01*
X137676387Y-110786399D01*
X137695974Y-110853818D01*
X137697813Y-110857366D01*
X137698968Y-110861191D01*
X137731922Y-110923169D01*
X137764233Y-110985503D01*
X137766726Y-110988626D01*
X137768603Y-110992156D01*
X137812978Y-111046565D01*
X137856771Y-111101424D01*
X137862254Y-111106984D01*
X137862349Y-111107100D01*
X137862457Y-111107189D01*
X137864222Y-111108979D01*
X138940000Y-112184757D01*
X138940000Y-112727143D01*
X138914247Y-112740606D01*
X138695983Y-112916095D01*
X138515962Y-113130635D01*
X138381041Y-113376056D01*
X138296358Y-113643010D01*
X138265140Y-113921327D01*
X138265000Y-113941363D01*
X138265000Y-114658637D01*
X138292329Y-114937363D01*
X138298862Y-114959000D01*
X138200715Y-114959000D01*
X138200715Y-118929000D01*
X139092864Y-118929000D01*
X139072914Y-118952776D01*
X139070989Y-118956277D01*
X139068452Y-118959366D01*
X139035287Y-119021218D01*
X139001457Y-119082755D01*
X139000248Y-119086567D01*
X138998361Y-119090086D01*
X138977848Y-119157182D01*
X138956608Y-119224138D01*
X138956162Y-119228110D01*
X138954994Y-119231932D01*
X138947897Y-119301800D01*
X138940074Y-119371540D01*
X138940020Y-119379345D01*
X138940004Y-119379498D01*
X138940018Y-119379641D01*
X138940000Y-119382151D01*
X138940000Y-130633968D01*
X138879422Y-130665637D01*
X138651485Y-130848903D01*
X138463485Y-131072952D01*
X138322584Y-131329251D01*
X138234148Y-131608036D01*
X138201546Y-131898688D01*
X138201400Y-131919612D01*
X138201400Y-132240388D01*
X138229941Y-132531468D01*
X138314475Y-132811460D01*
X138451784Y-133069701D01*
X138636637Y-133296353D01*
X138861994Y-133482784D01*
X139119269Y-133621892D01*
X139398665Y-133708379D01*
X139689538Y-133738951D01*
X139980810Y-133712444D01*
X140261385Y-133629866D01*
X140520578Y-133494363D01*
X140748515Y-133311097D01*
X140936515Y-133087048D01*
X140969299Y-133027413D01*
X140991784Y-133069701D01*
X141176637Y-133296353D01*
X141401994Y-133482784D01*
X141659269Y-133621892D01*
X141938665Y-133708379D01*
X142229538Y-133738951D01*
X142520810Y-133712444D01*
X142801385Y-133629866D01*
X143060578Y-133494363D01*
X143288515Y-133311097D01*
X143476515Y-133087048D01*
X143509299Y-133027413D01*
X143531784Y-133069701D01*
X143716637Y-133296353D01*
X143941994Y-133482784D01*
X144199269Y-133621892D01*
X144478665Y-133708379D01*
X144769538Y-133738951D01*
X145060810Y-133712444D01*
X145341385Y-133629866D01*
X145600578Y-133494363D01*
X145828515Y-133311097D01*
X146016515Y-133087048D01*
X146049299Y-133027413D01*
X146071784Y-133069701D01*
X146256637Y-133296353D01*
X146481994Y-133482784D01*
X146739269Y-133621892D01*
X147018665Y-133708379D01*
X147309538Y-133738951D01*
X147600810Y-133712444D01*
X147881385Y-133629866D01*
X148140578Y-133494363D01*
X148368515Y-133311097D01*
X148556515Y-133087048D01*
X148589299Y-133027413D01*
X148611784Y-133069701D01*
X148796637Y-133296353D01*
X149021994Y-133482784D01*
X149279269Y-133621892D01*
X149558665Y-133708379D01*
X149849538Y-133738951D01*
X150140810Y-133712444D01*
X150421385Y-133629866D01*
X150680578Y-133494363D01*
X150908515Y-133311097D01*
X151096515Y-133087048D01*
X151129299Y-133027413D01*
X151151784Y-133069701D01*
X151336637Y-133296353D01*
X151561994Y-133482784D01*
X151819269Y-133621892D01*
X152098665Y-133708379D01*
X152389538Y-133738951D01*
X152680810Y-133712444D01*
X152961385Y-133629866D01*
X153220578Y-133494363D01*
X153448515Y-133311097D01*
X153636515Y-133087048D01*
X153670556Y-133025128D01*
X153821514Y-133231729D01*
X154037965Y-133430733D01*
X154289081Y-133583686D01*
X154565211Y-133684709D01*
X154580974Y-133687358D01*
X154813000Y-133566217D01*
X154813000Y-132207000D01*
X154793000Y-132207000D01*
X154793000Y-131953000D01*
X154813000Y-131953000D01*
X154813000Y-130593783D01*
X154580974Y-130472642D01*
X154565211Y-130475291D01*
X154289081Y-130576314D01*
X154037965Y-130729267D01*
X153821514Y-130928271D01*
X153671343Y-131133795D01*
X153648216Y-131090299D01*
X153463363Y-130863647D01*
X153238006Y-130677216D01*
X153160000Y-130635038D01*
X153160000Y-129854802D01*
X154449126Y-128565676D01*
X154745533Y-128630846D01*
X155066003Y-128637558D01*
X155381674Y-128581897D01*
X155680521Y-128465982D01*
X155951162Y-128294228D01*
X156183288Y-128073177D01*
X156368058Y-127811250D01*
X156498433Y-127518422D01*
X156569448Y-127205847D01*
X156574560Y-126839730D01*
X156512301Y-126525294D01*
X156390152Y-126228940D01*
X156212768Y-125961956D01*
X155986905Y-125734510D01*
X155721165Y-125555266D01*
X155425671Y-125431052D01*
X155111677Y-125366598D01*
X154791145Y-125364360D01*
X154476283Y-125424424D01*
X154179083Y-125544500D01*
X153910867Y-125720016D01*
X153681849Y-125944286D01*
X153670982Y-125960157D01*
X153446905Y-125734510D01*
X153181165Y-125555266D01*
X152885671Y-125431052D01*
X152571677Y-125366598D01*
X152251145Y-125364360D01*
X151936283Y-125424424D01*
X151639083Y-125544500D01*
X151370867Y-125720016D01*
X151141849Y-125944286D01*
X150960755Y-126208768D01*
X150834481Y-126503388D01*
X150767837Y-126816924D01*
X150763361Y-127137432D01*
X150821225Y-127452707D01*
X150835766Y-127489432D01*
X149322599Y-129002599D01*
X149278032Y-129056855D01*
X149232914Y-129110625D01*
X149230989Y-129114126D01*
X149228452Y-129117215D01*
X149195287Y-129179067D01*
X149161457Y-129240604D01*
X149160248Y-129244416D01*
X149158361Y-129247935D01*
X149137848Y-129315031D01*
X149116608Y-129381987D01*
X149116162Y-129385959D01*
X149114994Y-129389781D01*
X149107897Y-129459649D01*
X149100074Y-129529389D01*
X149100020Y-129537194D01*
X149100004Y-129537347D01*
X149100018Y-129537490D01*
X149100000Y-129540000D01*
X149100000Y-130633968D01*
X149039422Y-130665637D01*
X148811485Y-130848903D01*
X148623485Y-131072952D01*
X148590701Y-131132587D01*
X148568216Y-131090299D01*
X148383363Y-130863647D01*
X148158006Y-130677216D01*
X148080000Y-130635038D01*
X148080000Y-128453620D01*
X148331162Y-128294228D01*
X148563288Y-128073177D01*
X148748058Y-127811250D01*
X148878433Y-127518422D01*
X148949448Y-127205847D01*
X148954560Y-126839730D01*
X148892301Y-126525294D01*
X148770152Y-126228940D01*
X148592768Y-125961956D01*
X148366905Y-125734510D01*
X148101165Y-125555266D01*
X147805671Y-125431052D01*
X147491677Y-125366598D01*
X147171145Y-125364360D01*
X146856283Y-125424424D01*
X146559083Y-125544500D01*
X146290867Y-125720016D01*
X146061849Y-125944286D01*
X146050982Y-125960157D01*
X145826905Y-125734510D01*
X145561165Y-125555266D01*
X145265671Y-125431052D01*
X144951677Y-125366598D01*
X144631145Y-125364360D01*
X144316283Y-125424424D01*
X144019083Y-125544500D01*
X143750867Y-125720016D01*
X143521849Y-125944286D01*
X143510982Y-125960157D01*
X143286905Y-125734510D01*
X143021165Y-125555266D01*
X142725671Y-125431052D01*
X142411677Y-125366598D01*
X142091145Y-125364360D01*
X141776283Y-125424424D01*
X141479083Y-125544500D01*
X141210867Y-125720016D01*
X140981849Y-125944286D01*
X140800755Y-126208768D01*
X140674481Y-126503388D01*
X140607837Y-126816924D01*
X140603361Y-127137432D01*
X140661225Y-127452707D01*
X140779223Y-127750737D01*
X140952863Y-128020172D01*
X141175529Y-128250750D01*
X141438740Y-128433686D01*
X141480000Y-128451712D01*
X141480000Y-130633968D01*
X141419422Y-130665637D01*
X141191485Y-130848903D01*
X141003485Y-131072952D01*
X140970701Y-131132587D01*
X140948216Y-131090299D01*
X140763363Y-130863647D01*
X140538006Y-130677216D01*
X140460000Y-130635038D01*
X140460000Y-121182000D01*
X141816429Y-121182000D01*
X141816429Y-125152000D01*
X147743571Y-125152000D01*
X147743571Y-124745750D01*
X157115000Y-124745750D01*
X157115000Y-125522542D01*
X157139403Y-125645223D01*
X157187270Y-125760785D01*
X157256763Y-125864789D01*
X157345211Y-125953237D01*
X157449215Y-126022730D01*
X157564777Y-126070597D01*
X157687458Y-126095000D01*
X158464250Y-126095000D01*
X158623000Y-125936250D01*
X158623000Y-124587000D01*
X157273750Y-124587000D01*
X157115000Y-124745750D01*
X147743571Y-124745750D01*
X147743571Y-121182000D01*
X141816429Y-121182000D01*
X140460000Y-121182000D01*
X140460000Y-119696953D01*
X140608968Y-119547985D01*
X140661225Y-119832707D01*
X140779223Y-120130737D01*
X140952863Y-120400172D01*
X141175529Y-120630750D01*
X141438740Y-120813686D01*
X141732471Y-120942014D01*
X142045533Y-121010846D01*
X142366003Y-121017558D01*
X142681674Y-120961897D01*
X142980521Y-120845982D01*
X143251162Y-120674228D01*
X143483288Y-120453177D01*
X143508937Y-120416817D01*
X143715529Y-120630750D01*
X143978740Y-120813686D01*
X144272471Y-120942014D01*
X144585533Y-121010846D01*
X144906003Y-121017558D01*
X145221674Y-120961897D01*
X145520521Y-120845982D01*
X145791162Y-120674228D01*
X146023288Y-120453177D01*
X146048937Y-120416817D01*
X146255529Y-120630750D01*
X146518740Y-120813686D01*
X146812471Y-120942014D01*
X147125533Y-121010846D01*
X147446003Y-121017558D01*
X147761674Y-120961897D01*
X148060521Y-120845982D01*
X148331162Y-120674228D01*
X148563288Y-120453177D01*
X148748058Y-120191250D01*
X148878433Y-119898422D01*
X148949448Y-119585847D01*
X148954560Y-119219730D01*
X148892301Y-118905294D01*
X148770152Y-118608940D01*
X148592768Y-118341956D01*
X148366905Y-118114510D01*
X148101165Y-117935266D01*
X147805671Y-117811052D01*
X147491677Y-117746598D01*
X147171145Y-117744360D01*
X146856283Y-117804424D01*
X146829890Y-117815088D01*
X146808449Y-117793647D01*
X146808449Y-115990411D01*
X146888182Y-116024367D01*
X146970961Y-116041904D01*
X147193000Y-115919915D01*
X147193000Y-114427000D01*
X147447000Y-114427000D01*
X147447000Y-115919915D01*
X147669039Y-116041904D01*
X147751818Y-116024367D01*
X148011646Y-115913715D01*
X148244895Y-115754500D01*
X148442601Y-115552839D01*
X148597166Y-115316483D01*
X148702650Y-115054514D01*
X148755000Y-114777000D01*
X148755000Y-114427000D01*
X147447000Y-114427000D01*
X147193000Y-114427000D01*
X147173000Y-114427000D01*
X147173000Y-114173000D01*
X147193000Y-114173000D01*
X147193000Y-112680085D01*
X147447000Y-112680085D01*
X147447000Y-114173000D01*
X148755000Y-114173000D01*
X148755000Y-113823000D01*
X148702650Y-113545486D01*
X148597166Y-113283517D01*
X148442601Y-113047161D01*
X148244895Y-112845500D01*
X148011646Y-112686285D01*
X147751818Y-112575633D01*
X147669039Y-112558096D01*
X147447000Y-112680085D01*
X147193000Y-112680085D01*
X146970961Y-112558096D01*
X146888182Y-112575633D01*
X146808449Y-112609589D01*
X146808449Y-111354771D01*
X146801597Y-111284890D01*
X146795480Y-111214968D01*
X146794365Y-111211130D01*
X146793975Y-111207153D01*
X146773695Y-111139983D01*
X146754099Y-111072532D01*
X146752258Y-111068981D01*
X146751104Y-111065158D01*
X146718159Y-111003197D01*
X146685839Y-110940846D01*
X146683346Y-110937723D01*
X146681469Y-110934193D01*
X146637094Y-110879784D01*
X146593301Y-110824925D01*
X146587818Y-110819365D01*
X146587723Y-110819249D01*
X146587615Y-110819160D01*
X146585850Y-110817370D01*
X145540000Y-109771520D01*
X145540000Y-108252857D01*
X145565753Y-108239394D01*
X145784017Y-108063905D01*
X145964038Y-107849365D01*
X146050228Y-107692585D01*
X146124758Y-107832754D01*
X146301766Y-108049787D01*
X146517558Y-108228306D01*
X146585826Y-108265219D01*
X146594764Y-108294821D01*
X146614351Y-108362240D01*
X146616190Y-108365788D01*
X146617345Y-108369613D01*
X146650299Y-108431591D01*
X146682610Y-108493925D01*
X146685103Y-108497048D01*
X146686980Y-108500578D01*
X146731353Y-108554985D01*
X146775148Y-108609846D01*
X146780631Y-108615406D01*
X146780726Y-108615522D01*
X146780834Y-108615611D01*
X146782599Y-108617401D01*
X147511455Y-109346257D01*
X147511455Y-111453403D01*
X147518306Y-111523280D01*
X147524424Y-111593206D01*
X147525539Y-111597044D01*
X147525929Y-111601021D01*
X147546219Y-111668224D01*
X147565806Y-111735643D01*
X147567645Y-111739191D01*
X147568800Y-111743016D01*
X147601754Y-111804994D01*
X147634065Y-111867328D01*
X147636558Y-111870451D01*
X147638435Y-111873981D01*
X147682810Y-111928390D01*
X147726603Y-111983249D01*
X147732086Y-111988809D01*
X147732181Y-111988925D01*
X147732289Y-111989014D01*
X147734054Y-111990804D01*
X150373642Y-114630392D01*
X150373642Y-115663418D01*
X150380493Y-115733295D01*
X150386611Y-115803221D01*
X150387726Y-115807059D01*
X150388116Y-115811036D01*
X150408406Y-115878239D01*
X150427993Y-115945658D01*
X150429832Y-115949206D01*
X150430987Y-115953031D01*
X150463941Y-116015009D01*
X150496252Y-116077343D01*
X150498745Y-116080466D01*
X150500622Y-116083996D01*
X150544997Y-116138405D01*
X150588790Y-116193264D01*
X150594273Y-116198824D01*
X150594368Y-116198940D01*
X150594476Y-116199029D01*
X150596241Y-116200819D01*
X151640000Y-117244578D01*
X151640000Y-117924130D01*
X151639083Y-117924500D01*
X151370867Y-118100016D01*
X151141849Y-118324286D01*
X150960755Y-118588768D01*
X150834481Y-118883388D01*
X150767837Y-119196924D01*
X150763361Y-119517432D01*
X150821225Y-119832707D01*
X150939223Y-120130737D01*
X151112863Y-120400172D01*
X151335529Y-120630750D01*
X151598740Y-120813686D01*
X151892471Y-120942014D01*
X152205533Y-121010846D01*
X152526003Y-121017558D01*
X152841674Y-120961897D01*
X153140521Y-120845982D01*
X153411162Y-120674228D01*
X153643288Y-120453177D01*
X153668937Y-120416817D01*
X153875529Y-120630750D01*
X154138740Y-120813686D01*
X154432471Y-120942014D01*
X154745533Y-121010846D01*
X155066003Y-121017558D01*
X155381674Y-120961897D01*
X155680521Y-120845982D01*
X155951162Y-120674228D01*
X156183288Y-120453177D01*
X156368058Y-120191250D01*
X156498433Y-119898422D01*
X156569448Y-119585847D01*
X156574560Y-119219730D01*
X156512301Y-118905294D01*
X156390152Y-118608940D01*
X156212768Y-118341956D01*
X155986905Y-118114510D01*
X155721165Y-117935266D01*
X155652071Y-117906221D01*
X155645649Y-117884118D01*
X155643810Y-117880570D01*
X155642655Y-117876745D01*
X155609701Y-117814767D01*
X155577390Y-117752433D01*
X155574897Y-117749310D01*
X155573020Y-117745780D01*
X155528645Y-117691371D01*
X155484852Y-117636512D01*
X155479369Y-117630952D01*
X155479274Y-117630836D01*
X155479166Y-117630747D01*
X155477401Y-117628957D01*
X152724139Y-114875695D01*
X152724139Y-114427000D01*
X153521400Y-114427000D01*
X153521400Y-115087400D01*
X153574972Y-115377322D01*
X153684075Y-115651222D01*
X153844517Y-115898574D01*
X154050132Y-116109873D01*
X154293019Y-116276998D01*
X154563843Y-116393527D01*
X154660974Y-116415358D01*
X154893000Y-116294217D01*
X154893000Y-114427000D01*
X155147000Y-114427000D01*
X155147000Y-116294217D01*
X155379026Y-116415358D01*
X155476157Y-116393527D01*
X155746981Y-116276998D01*
X155989868Y-116109873D01*
X156195483Y-115898574D01*
X156355925Y-115651222D01*
X156465028Y-115377322D01*
X156518600Y-115087400D01*
X156518600Y-114427000D01*
X155147000Y-114427000D01*
X154893000Y-114427000D01*
X153521400Y-114427000D01*
X152724139Y-114427000D01*
X152724139Y-114045855D01*
X152717288Y-113975978D01*
X152711170Y-113906052D01*
X152710055Y-113902214D01*
X152709665Y-113898237D01*
X152689375Y-113831034D01*
X152669788Y-113763615D01*
X152667949Y-113760067D01*
X152666794Y-113756242D01*
X152633830Y-113694245D01*
X152601528Y-113631929D01*
X152599036Y-113628808D01*
X152597159Y-113625277D01*
X152552780Y-113570862D01*
X152508991Y-113516009D01*
X152505630Y-113512600D01*
X153521400Y-113512600D01*
X153521400Y-114173000D01*
X154893000Y-114173000D01*
X154893000Y-112305783D01*
X155147000Y-112305783D01*
X155147000Y-114173000D01*
X156518600Y-114173000D01*
X156518600Y-113512600D01*
X156465028Y-113222678D01*
X156355925Y-112948778D01*
X156195483Y-112701426D01*
X155989868Y-112490127D01*
X155746981Y-112323002D01*
X155476157Y-112206473D01*
X155379026Y-112184642D01*
X155147000Y-112305783D01*
X154893000Y-112305783D01*
X154660974Y-112184642D01*
X154563843Y-112206473D01*
X154293019Y-112323002D01*
X154050132Y-112490127D01*
X153844517Y-112701426D01*
X153684075Y-112948778D01*
X153574972Y-113222678D01*
X153521400Y-113512600D01*
X152505630Y-113512600D01*
X152503508Y-113510449D01*
X152503413Y-113510333D01*
X152503305Y-113510244D01*
X152501540Y-113508454D01*
X149873971Y-110880885D01*
X149873971Y-109883975D01*
X150050574Y-110005291D01*
X150319047Y-110120563D01*
X150413110Y-110141476D01*
X150643000Y-110020155D01*
X150643000Y-108177000D01*
X150623000Y-108177000D01*
X150623000Y-107923000D01*
X150643000Y-107923000D01*
X150643000Y-106079845D01*
X150897000Y-106079845D01*
X150897000Y-107923000D01*
X150917000Y-107923000D01*
X150917000Y-108177000D01*
X150897000Y-108177000D01*
X150897000Y-110020155D01*
X151126890Y-110141476D01*
X151220953Y-110120563D01*
X151489426Y-110005291D01*
X151730252Y-109839857D01*
X151934176Y-109630619D01*
X152093361Y-109385618D01*
X152108782Y-109346991D01*
X152243001Y-109440276D01*
X152527838Y-109564718D01*
X152831422Y-109631465D01*
X153142188Y-109637975D01*
X153448300Y-109583999D01*
X153738099Y-109471594D01*
X154000545Y-109305040D01*
X154225643Y-109090683D01*
X154404818Y-108836686D01*
X154531245Y-108552724D01*
X154600110Y-108249614D01*
X154605068Y-107894583D01*
X154544693Y-107589668D01*
X154426243Y-107302287D01*
X154254230Y-107043387D01*
X154035205Y-106822827D01*
X153777512Y-106649011D01*
X153490965Y-106528558D01*
X153186479Y-106466056D01*
X152875652Y-106463886D01*
X152570324Y-106522130D01*
X152282123Y-106638571D01*
X152108463Y-106752211D01*
X152093361Y-106714382D01*
X151934176Y-106469381D01*
X151730252Y-106260143D01*
X151489426Y-106094709D01*
X151220953Y-105979437D01*
X151126890Y-105958524D01*
X150897000Y-106079845D01*
X150643000Y-106079845D01*
X150413110Y-105958524D01*
X150319047Y-105979437D01*
X150050574Y-106094709D01*
X149873971Y-106216025D01*
X149873971Y-105933971D01*
X149867120Y-105864094D01*
X149861002Y-105794168D01*
X149859887Y-105790330D01*
X149859497Y-105786353D01*
X149839207Y-105719150D01*
X149819620Y-105651731D01*
X149817781Y-105648183D01*
X149816626Y-105644358D01*
X149783662Y-105582361D01*
X149751360Y-105520045D01*
X149748868Y-105516924D01*
X149746991Y-105513393D01*
X149702612Y-105458978D01*
X149658823Y-105404125D01*
X149653340Y-105398565D01*
X149653245Y-105398449D01*
X149653137Y-105398360D01*
X149651372Y-105396570D01*
X147136729Y-102881927D01*
X147082473Y-102837360D01*
X147028703Y-102792242D01*
X147025202Y-102790317D01*
X147022113Y-102787780D01*
X146960261Y-102754615D01*
X146898724Y-102720785D01*
X146894912Y-102719576D01*
X146891393Y-102717689D01*
X146824297Y-102697176D01*
X146757341Y-102675936D01*
X146753369Y-102675490D01*
X146749547Y-102674322D01*
X146679679Y-102667225D01*
X146609939Y-102659402D01*
X146602134Y-102659348D01*
X146601981Y-102659332D01*
X146601838Y-102659346D01*
X146599328Y-102659328D01*
X145693437Y-102659328D01*
X145842639Y-102517245D01*
X146000561Y-102293375D01*
X146111993Y-102043095D01*
X146138369Y-101927000D01*
X153521400Y-101927000D01*
X153521400Y-102587400D01*
X153574972Y-102877322D01*
X153684075Y-103151222D01*
X153844517Y-103398574D01*
X154050132Y-103609873D01*
X154293019Y-103776998D01*
X154563843Y-103893527D01*
X154660974Y-103915358D01*
X154893000Y-103794217D01*
X154893000Y-101927000D01*
X155147000Y-101927000D01*
X155147000Y-103794217D01*
X155379026Y-103915358D01*
X155476157Y-103893527D01*
X155746981Y-103776998D01*
X155989868Y-103609873D01*
X156195483Y-103398574D01*
X156355925Y-103151222D01*
X156465028Y-102877322D01*
X156518600Y-102587400D01*
X156518600Y-101927000D01*
X155147000Y-101927000D01*
X154893000Y-101927000D01*
X153521400Y-101927000D01*
X146138369Y-101927000D01*
X146172690Y-101775938D01*
X146177059Y-101463017D01*
X146123846Y-101194269D01*
X146048968Y-101012600D01*
X153521400Y-101012600D01*
X153521400Y-101673000D01*
X154893000Y-101673000D01*
X154893000Y-99805783D01*
X155147000Y-99805783D01*
X155147000Y-101673000D01*
X156518600Y-101673000D01*
X156518600Y-101129154D01*
X158521400Y-101129154D01*
X158521400Y-102470846D01*
X158549941Y-102761926D01*
X158634475Y-103041918D01*
X158771784Y-103300159D01*
X158956637Y-103526811D01*
X159181994Y-103713242D01*
X159439269Y-103852350D01*
X159718665Y-103938837D01*
X160009538Y-103969409D01*
X160300810Y-103942902D01*
X160581385Y-103860324D01*
X160840578Y-103724821D01*
X161068515Y-103541555D01*
X161256515Y-103317506D01*
X161397416Y-103061207D01*
X161485852Y-102782422D01*
X161518454Y-102491770D01*
X161518600Y-102470846D01*
X161518600Y-101129154D01*
X161490059Y-100838074D01*
X161405525Y-100558082D01*
X161268216Y-100299841D01*
X161083363Y-100073189D01*
X160858006Y-99886758D01*
X160600731Y-99747650D01*
X160321335Y-99661163D01*
X160030462Y-99630591D01*
X159739190Y-99657098D01*
X159458615Y-99739676D01*
X159199422Y-99875179D01*
X158971485Y-100058445D01*
X158783485Y-100282494D01*
X158642584Y-100538793D01*
X158554148Y-100817578D01*
X158521546Y-101108230D01*
X158521400Y-101129154D01*
X156518600Y-101129154D01*
X156518600Y-101012600D01*
X156465028Y-100722678D01*
X156355925Y-100448778D01*
X156195483Y-100201426D01*
X155989868Y-99990127D01*
X155746981Y-99823002D01*
X155476157Y-99706473D01*
X155379026Y-99684642D01*
X155147000Y-99805783D01*
X154893000Y-99805783D01*
X154660974Y-99684642D01*
X154563843Y-99706473D01*
X154293019Y-99823002D01*
X154050132Y-99990127D01*
X153844517Y-100201426D01*
X153684075Y-100448778D01*
X153574972Y-100722678D01*
X153521400Y-101012600D01*
X146048968Y-101012600D01*
X146019446Y-100940975D01*
X145867835Y-100712783D01*
X145674790Y-100518385D01*
X145447662Y-100365185D01*
X145195103Y-100259019D01*
X144926733Y-100203931D01*
X144652774Y-100202018D01*
X144488212Y-100233410D01*
X141264874Y-97010072D01*
X141329448Y-96725847D01*
X141330403Y-96657432D01*
X145683361Y-96657432D01*
X145741225Y-96972707D01*
X145859223Y-97270737D01*
X146032863Y-97540172D01*
X146255529Y-97770750D01*
X146518740Y-97953686D01*
X146812471Y-98082014D01*
X147125533Y-98150846D01*
X147446003Y-98157558D01*
X147761674Y-98101897D01*
X148060521Y-97985982D01*
X148331162Y-97814228D01*
X148563288Y-97593177D01*
X148748058Y-97331250D01*
X148878433Y-97038422D01*
X148949448Y-96725847D01*
X148954560Y-96359730D01*
X148892301Y-96045294D01*
X148885648Y-96029154D01*
X149361628Y-95553174D01*
X149361628Y-96380300D01*
X149369692Y-96481421D01*
X149422806Y-96652934D01*
X149521600Y-96802859D01*
X149658250Y-96919325D01*
X149821937Y-96993110D01*
X149999700Y-97018372D01*
X154800300Y-97018372D01*
X154901421Y-97010308D01*
X155072934Y-96957194D01*
X155222859Y-96858400D01*
X155339325Y-96721750D01*
X155413110Y-96558063D01*
X155438372Y-96380300D01*
X155438372Y-96112242D01*
X156543363Y-96112242D01*
X156807563Y-96520000D01*
X157335535Y-96800593D01*
X157908104Y-96972792D01*
X158503265Y-97029979D01*
X159098147Y-96969957D01*
X159669888Y-96795033D01*
X160184437Y-96520000D01*
X160448637Y-96112242D01*
X158496000Y-94159605D01*
X156543363Y-96112242D01*
X155438372Y-96112242D01*
X155438372Y-91838278D01*
X155848869Y-91928532D01*
X156273826Y-91937434D01*
X156363756Y-92027364D01*
X155956000Y-92291563D01*
X155675407Y-92819535D01*
X155503208Y-93392104D01*
X155446021Y-93987265D01*
X155506043Y-94582147D01*
X155680967Y-95153888D01*
X155956000Y-95668437D01*
X156363758Y-95932637D01*
X158316395Y-93980000D01*
X158675605Y-93980000D01*
X160628242Y-95932637D01*
X161036000Y-95668437D01*
X161316593Y-95140465D01*
X161488792Y-94567896D01*
X161545979Y-93972735D01*
X161485957Y-93377853D01*
X161311033Y-92806112D01*
X161036000Y-92291563D01*
X160628242Y-92027363D01*
X158675605Y-93980000D01*
X158316395Y-93980000D01*
X158302253Y-93965858D01*
X158481858Y-93786253D01*
X158496000Y-93800395D01*
X160448637Y-91847758D01*
X160184437Y-91440000D01*
X159656465Y-91159407D01*
X159083896Y-90987208D01*
X158488735Y-90930021D01*
X158478819Y-90931022D01*
X158518825Y-90892924D01*
X158585829Y-90797939D01*
X161226530Y-90797939D01*
X161231198Y-90850144D01*
X161232283Y-90902541D01*
X161238358Y-90930203D01*
X161240880Y-90958408D01*
X161255596Y-91008702D01*
X161266840Y-91059901D01*
X161278174Y-91085860D01*
X161286125Y-91113034D01*
X161310330Y-91159512D01*
X161331304Y-91207551D01*
X161347463Y-91230814D01*
X161360542Y-91255927D01*
X161393309Y-91296812D01*
X161423218Y-91339869D01*
X161430748Y-91348596D01*
X162121288Y-92137784D01*
X162112931Y-92144237D01*
X162103175Y-92149424D01*
X162049246Y-92193407D01*
X161994159Y-92235939D01*
X161986891Y-92244262D01*
X161978324Y-92251249D01*
X161933947Y-92304891D01*
X161888189Y-92357292D01*
X161882677Y-92366866D01*
X161875629Y-92375386D01*
X161842521Y-92436619D01*
X161807808Y-92496916D01*
X161804259Y-92507383D01*
X161799002Y-92517106D01*
X161778424Y-92583584D01*
X161756077Y-92649495D01*
X161754629Y-92660454D01*
X161751361Y-92671010D01*
X161744086Y-92740223D01*
X161734968Y-92809216D01*
X161735676Y-92820243D01*
X161734520Y-92831237D01*
X161740827Y-92900534D01*
X161745284Y-92969994D01*
X161748120Y-92980675D01*
X161749122Y-92991683D01*
X161768771Y-93058445D01*
X161786632Y-93125708D01*
X161791490Y-93135637D01*
X161794610Y-93146238D01*
X161826844Y-93207895D01*
X161857437Y-93270424D01*
X161863557Y-93280191D01*
X163042320Y-95132532D01*
X163040925Y-95138983D01*
X163035552Y-95152717D01*
X163023918Y-95217606D01*
X163009980Y-95282039D01*
X163009721Y-95296784D01*
X163007119Y-95311298D01*
X163008310Y-95377211D01*
X163007153Y-95443124D01*
X163009763Y-95457636D01*
X163010029Y-95472380D01*
X163024003Y-95536823D01*
X163035668Y-95601690D01*
X163041045Y-95615414D01*
X163044171Y-95629831D01*
X163070398Y-95690336D01*
X163094438Y-95751697D01*
X163102380Y-95764119D01*
X163108246Y-95777651D01*
X163145711Y-95831889D01*
X163181225Y-95887433D01*
X163191433Y-95898080D01*
X163199812Y-95910210D01*
X163247089Y-95956128D01*
X163292724Y-96003726D01*
X163301528Y-96011167D01*
X164063528Y-96646167D01*
X164073869Y-96653196D01*
X164082920Y-96661838D01*
X164140452Y-96698455D01*
X164196770Y-96736736D01*
X164208273Y-96741620D01*
X164218836Y-96748343D01*
X164282374Y-96773083D01*
X164345066Y-96799702D01*
X164357308Y-96802261D01*
X164368966Y-96806800D01*
X164436061Y-96818721D01*
X164502767Y-96832663D01*
X164515277Y-96832795D01*
X164527591Y-96834983D01*
X164595720Y-96833646D01*
X164663867Y-96834366D01*
X164676161Y-96832067D01*
X164688670Y-96831821D01*
X164755229Y-96817278D01*
X164822231Y-96804746D01*
X164833854Y-96800098D01*
X164846066Y-96797430D01*
X164908522Y-96770241D01*
X164971824Y-96744929D01*
X164982316Y-96738117D01*
X164993785Y-96733124D01*
X165049796Y-96694304D01*
X165106950Y-96657195D01*
X165115919Y-96648475D01*
X165126199Y-96641350D01*
X165173594Y-96592400D01*
X165222462Y-96544887D01*
X165229568Y-96534589D01*
X165238267Y-96525604D01*
X165275250Y-96468383D01*
X165313960Y-96412281D01*
X165318930Y-96400800D01*
X165325719Y-96390295D01*
X165350889Y-96326966D01*
X165377958Y-96264428D01*
X165380602Y-96252203D01*
X165385223Y-96240577D01*
X165397613Y-96173562D01*
X165412020Y-96106961D01*
X165412239Y-96094455D01*
X165414514Y-96082153D01*
X165413652Y-96013988D01*
X165414847Y-95945876D01*
X165412634Y-95933571D01*
X165412476Y-95921057D01*
X165411125Y-95909610D01*
X165284125Y-94893609D01*
X165282153Y-94884877D01*
X165281721Y-94875925D01*
X165264418Y-94806342D01*
X165248637Y-94736458D01*
X165245005Y-94728271D01*
X165242843Y-94719577D01*
X165212364Y-94654699D01*
X165183301Y-94589190D01*
X165178148Y-94581865D01*
X165174339Y-94573757D01*
X165131830Y-94516023D01*
X165090604Y-94457419D01*
X165084128Y-94451236D01*
X165078816Y-94444021D01*
X165025937Y-94395675D01*
X164974080Y-94346162D01*
X164966516Y-94341348D01*
X164959912Y-94335310D01*
X164898682Y-94298175D01*
X164838164Y-94259658D01*
X164829811Y-94256406D01*
X164822158Y-94251764D01*
X164754848Y-94227217D01*
X164688034Y-94201201D01*
X164679214Y-94199634D01*
X164670799Y-94196565D01*
X164601862Y-94185848D01*
X164530687Y-94043500D01*
X164592000Y-94043500D01*
X164669897Y-94035862D01*
X164747958Y-94028634D01*
X164750111Y-94027997D01*
X164752340Y-94027778D01*
X164827330Y-94005138D01*
X164902440Y-93982903D01*
X164904423Y-93981862D01*
X164906574Y-93981213D01*
X164975737Y-93944438D01*
X165045099Y-93908038D01*
X165046848Y-93906627D01*
X165048825Y-93905576D01*
X165109513Y-93856080D01*
X165170498Y-93806889D01*
X165171935Y-93805171D01*
X165173676Y-93803751D01*
X165223654Y-93743338D01*
X165273864Y-93683309D01*
X165274941Y-93681343D01*
X165276371Y-93679614D01*
X165313647Y-93610674D01*
X165351256Y-93542006D01*
X165351930Y-93539869D01*
X165352998Y-93537894D01*
X165376186Y-93462987D01*
X165399729Y-93388361D01*
X165399975Y-93386134D01*
X165400639Y-93383990D01*
X165408838Y-93305984D01*
X165417436Y-93228228D01*
X165417245Y-93225997D01*
X165417480Y-93223763D01*
X165410376Y-93145703D01*
X165403703Y-93067705D01*
X165403081Y-93065549D01*
X165402878Y-93063317D01*
X165380778Y-92988227D01*
X165359052Y-92912907D01*
X165358023Y-92910912D01*
X165357390Y-92908762D01*
X165321113Y-92839371D01*
X165285184Y-92769730D01*
X165282838Y-92766158D01*
X165282749Y-92765987D01*
X165282624Y-92765832D01*
X165278857Y-92760095D01*
X163754858Y-90474095D01*
X163652835Y-90349405D01*
X163583969Y-90292615D01*
X163554816Y-90253021D01*
X163435912Y-90144310D01*
X163298158Y-90060764D01*
X163146799Y-90005565D01*
X162987602Y-89980817D01*
X162826629Y-89987462D01*
X162670014Y-90025246D01*
X162523720Y-90092731D01*
X162497686Y-90111621D01*
X162463664Y-90093462D01*
X162419228Y-90065680D01*
X162392755Y-90055617D01*
X162367773Y-90042283D01*
X162317622Y-90027055D01*
X162268632Y-90008432D01*
X162240713Y-90003703D01*
X162213613Y-89995474D01*
X162161465Y-89990278D01*
X162109786Y-89981524D01*
X162081470Y-89982308D01*
X162053297Y-89979501D01*
X162001140Y-89984532D01*
X161948738Y-89985983D01*
X161921118Y-89992251D01*
X161892933Y-89994970D01*
X161842732Y-90010040D01*
X161791624Y-90021639D01*
X161765757Y-90033148D01*
X161738626Y-90041293D01*
X161692300Y-90065832D01*
X161644428Y-90087132D01*
X161621287Y-90103448D01*
X161596257Y-90116706D01*
X161555588Y-90149769D01*
X161512755Y-90179968D01*
X161493220Y-90200472D01*
X161471246Y-90218336D01*
X161437775Y-90258667D01*
X161401622Y-90296612D01*
X161386443Y-90320518D01*
X161368356Y-90342311D01*
X161343354Y-90388377D01*
X161315262Y-90432620D01*
X161305015Y-90459020D01*
X161291506Y-90483910D01*
X161275930Y-90533949D01*
X161256964Y-90582811D01*
X161252039Y-90610703D01*
X161243623Y-90637740D01*
X161238062Y-90689855D01*
X161228949Y-90741466D01*
X161229535Y-90769776D01*
X161226530Y-90797939D01*
X158585829Y-90797939D01*
X158861948Y-90406516D01*
X159104060Y-89862725D01*
X159235937Y-89282265D01*
X159245431Y-88602373D01*
X159129812Y-88018457D01*
X158902979Y-87468118D01*
X158573571Y-86972319D01*
X158154135Y-86549945D01*
X157660648Y-86217083D01*
X157111906Y-85986413D01*
X156528810Y-85866721D01*
X155933572Y-85862566D01*
X155348862Y-85974105D01*
X154796953Y-86197091D01*
X154298867Y-86523029D01*
X153873574Y-86939506D01*
X153537276Y-87430658D01*
X153302781Y-87977776D01*
X153179021Y-88560021D01*
X153170710Y-89155216D01*
X153278164Y-89740690D01*
X153497292Y-90294143D01*
X153819745Y-90794493D01*
X153961832Y-90941628D01*
X149999700Y-90941628D01*
X149898579Y-90949692D01*
X149727066Y-91002806D01*
X149577141Y-91101600D01*
X149460675Y-91238250D01*
X149386890Y-91401937D01*
X149361628Y-91579700D01*
X149361628Y-93410023D01*
X149330154Y-93435148D01*
X149324594Y-93440631D01*
X149324478Y-93440726D01*
X149324389Y-93440834D01*
X149322599Y-93442599D01*
X147811638Y-94953560D01*
X147805671Y-94951052D01*
X147491677Y-94886598D01*
X147171145Y-94884360D01*
X146856283Y-94944424D01*
X146559083Y-95064500D01*
X146290867Y-95240016D01*
X146061849Y-95464286D01*
X145880755Y-95728768D01*
X145754481Y-96023388D01*
X145687837Y-96336924D01*
X145683361Y-96657432D01*
X141330403Y-96657432D01*
X141334560Y-96359730D01*
X141272301Y-96045294D01*
X141150152Y-95748940D01*
X140972768Y-95481956D01*
X140746905Y-95254510D01*
X140481165Y-95075266D01*
X140185671Y-94951052D01*
X139871677Y-94886598D01*
X139551145Y-94884360D01*
X139236283Y-94944424D01*
X138939083Y-95064500D01*
X138670867Y-95240016D01*
X138441849Y-95464286D01*
X138260755Y-95728768D01*
X138134481Y-96023388D01*
X138067837Y-96336924D01*
X138063361Y-96657432D01*
X138121225Y-96972707D01*
X138135766Y-97009432D01*
X137864222Y-97280976D01*
X137819655Y-97335232D01*
X137774537Y-97389002D01*
X137772612Y-97392503D01*
X137770075Y-97395592D01*
X137736910Y-97457444D01*
X137703080Y-97518981D01*
X137701871Y-97522793D01*
X137699984Y-97526312D01*
X137679471Y-97593408D01*
X137658231Y-97660364D01*
X137657785Y-97664336D01*
X137656617Y-97668158D01*
X137649520Y-97738026D01*
X137641697Y-97807766D01*
X137641643Y-97815571D01*
X137641627Y-97815724D01*
X137641641Y-97815867D01*
X137641623Y-97818377D01*
X136600000Y-97818377D01*
X136600000Y-91091000D01*
X146650668Y-91091000D01*
X146650668Y-88576000D01*
X151788000Y-88576000D01*
X151788000Y-85800000D01*
X160973572Y-85800000D01*
X160973572Y-88576000D01*
G36*
X142308583Y-100203385D02*
X142112774Y-100202018D01*
X141843661Y-100253354D01*
X141589644Y-100355984D01*
X141360399Y-100505997D01*
X141164658Y-100697681D01*
X141009877Y-100923734D01*
X140972591Y-101010728D01*
X140967636Y-100996977D01*
X140905656Y-100881020D01*
X140665565Y-100814040D01*
X139879605Y-101600000D01*
X140665565Y-102385960D01*
X140905656Y-102318980D01*
X140968866Y-102184555D01*
X140991474Y-102241655D01*
X141139883Y-102471942D01*
X141330196Y-102669016D01*
X141555163Y-102825372D01*
X141806215Y-102935054D01*
X142073789Y-102993884D01*
X142347695Y-102999622D01*
X142532274Y-102967076D01*
X143521927Y-103956729D01*
X143576183Y-104001296D01*
X143629953Y-104046414D01*
X143633454Y-104048339D01*
X143636543Y-104050876D01*
X143698395Y-104084041D01*
X143759932Y-104117871D01*
X143763744Y-104119080D01*
X143767263Y-104120967D01*
X143834359Y-104141480D01*
X143901315Y-104162720D01*
X143905287Y-104163166D01*
X143909109Y-104164334D01*
X143978933Y-104171426D01*
X144048717Y-104179254D01*
X144056532Y-104179309D01*
X144056675Y-104179323D01*
X144056808Y-104179310D01*
X144059328Y-104179328D01*
X146284526Y-104179328D01*
X147024740Y-104919542D01*
X146782440Y-104990854D01*
X146534247Y-105120606D01*
X146315983Y-105296095D01*
X146135962Y-105510635D01*
X146049772Y-105667415D01*
X145975242Y-105527246D01*
X145798234Y-105310213D01*
X145582442Y-105131694D01*
X145336085Y-104998489D01*
X145068547Y-104915673D01*
X144790018Y-104886398D01*
X144511108Y-104911781D01*
X144242440Y-104990854D01*
X143994247Y-105120606D01*
X143775983Y-105296095D01*
X143595962Y-105510635D01*
X143509772Y-105667415D01*
X143435242Y-105527246D01*
X143258234Y-105310213D01*
X143042442Y-105131694D01*
X142796085Y-104998489D01*
X142528547Y-104915673D01*
X142250018Y-104886398D01*
X141971108Y-104911781D01*
X141702440Y-104990854D01*
X141454247Y-105120606D01*
X141235983Y-105296095D01*
X141055962Y-105510635D01*
X140969772Y-105667415D01*
X140895242Y-105527246D01*
X140718234Y-105310213D01*
X140502442Y-105131694D01*
X140256085Y-104998489D01*
X139988547Y-104915673D01*
X139710018Y-104886398D01*
X139431108Y-104911781D01*
X139162440Y-104990854D01*
X139161623Y-104991281D01*
X139161623Y-102890581D01*
X139230048Y-102922756D01*
X139497135Y-102989023D01*
X139772017Y-103001910D01*
X140044133Y-102960922D01*
X140303023Y-102867636D01*
X140418980Y-102805656D01*
X140485960Y-102565565D01*
X139700000Y-101779605D01*
X139685858Y-101793748D01*
X139506253Y-101614143D01*
X139520395Y-101600000D01*
X139506253Y-101585858D01*
X139685858Y-101406253D01*
X139700000Y-101420395D01*
X140485960Y-100634435D01*
X140418980Y-100394344D01*
X140169952Y-100277244D01*
X139902865Y-100210977D01*
X139627983Y-100198090D01*
X139355867Y-100239078D01*
X139161623Y-100309070D01*
X139161623Y-98133179D01*
X139209126Y-98085676D01*
X139505533Y-98150846D01*
X139826003Y-98157558D01*
X140141674Y-98101897D01*
X140188812Y-98083614D01*
X142308583Y-100203385D01*
X142308583Y-100203385D01*
G37*
X142308583Y-100203385D02*
X142112774Y-100202018D01*
X141843661Y-100253354D01*
X141589644Y-100355984D01*
X141360399Y-100505997D01*
X141164658Y-100697681D01*
X141009877Y-100923734D01*
X140972591Y-101010728D01*
X140967636Y-100996977D01*
X140905656Y-100881020D01*
X140665565Y-100814040D01*
X139879605Y-101600000D01*
X140665565Y-102385960D01*
X140905656Y-102318980D01*
X140968866Y-102184555D01*
X140991474Y-102241655D01*
X141139883Y-102471942D01*
X141330196Y-102669016D01*
X141555163Y-102825372D01*
X141806215Y-102935054D01*
X142073789Y-102993884D01*
X142347695Y-102999622D01*
X142532274Y-102967076D01*
X143521927Y-103956729D01*
X143576183Y-104001296D01*
X143629953Y-104046414D01*
X143633454Y-104048339D01*
X143636543Y-104050876D01*
X143698395Y-104084041D01*
X143759932Y-104117871D01*
X143763744Y-104119080D01*
X143767263Y-104120967D01*
X143834359Y-104141480D01*
X143901315Y-104162720D01*
X143905287Y-104163166D01*
X143909109Y-104164334D01*
X143978933Y-104171426D01*
X144048717Y-104179254D01*
X144056532Y-104179309D01*
X144056675Y-104179323D01*
X144056808Y-104179310D01*
X144059328Y-104179328D01*
X146284526Y-104179328D01*
X147024740Y-104919542D01*
X146782440Y-104990854D01*
X146534247Y-105120606D01*
X146315983Y-105296095D01*
X146135962Y-105510635D01*
X146049772Y-105667415D01*
X145975242Y-105527246D01*
X145798234Y-105310213D01*
X145582442Y-105131694D01*
X145336085Y-104998489D01*
X145068547Y-104915673D01*
X144790018Y-104886398D01*
X144511108Y-104911781D01*
X144242440Y-104990854D01*
X143994247Y-105120606D01*
X143775983Y-105296095D01*
X143595962Y-105510635D01*
X143509772Y-105667415D01*
X143435242Y-105527246D01*
X143258234Y-105310213D01*
X143042442Y-105131694D01*
X142796085Y-104998489D01*
X142528547Y-104915673D01*
X142250018Y-104886398D01*
X141971108Y-104911781D01*
X141702440Y-104990854D01*
X141454247Y-105120606D01*
X141235983Y-105296095D01*
X141055962Y-105510635D01*
X140969772Y-105667415D01*
X140895242Y-105527246D01*
X140718234Y-105310213D01*
X140502442Y-105131694D01*
X140256085Y-104998489D01*
X139988547Y-104915673D01*
X139710018Y-104886398D01*
X139431108Y-104911781D01*
X139162440Y-104990854D01*
X139161623Y-104991281D01*
X139161623Y-102890581D01*
X139230048Y-102922756D01*
X139497135Y-102989023D01*
X139772017Y-103001910D01*
X140044133Y-102960922D01*
X140303023Y-102867636D01*
X140418980Y-102805656D01*
X140485960Y-102565565D01*
X139700000Y-101779605D01*
X139685858Y-101793748D01*
X139506253Y-101614143D01*
X139520395Y-101600000D01*
X139506253Y-101585858D01*
X139685858Y-101406253D01*
X139700000Y-101420395D01*
X140485960Y-100634435D01*
X140418980Y-100394344D01*
X140169952Y-100277244D01*
X139902865Y-100210977D01*
X139627983Y-100198090D01*
X139355867Y-100239078D01*
X139161623Y-100309070D01*
X139161623Y-98133179D01*
X139209126Y-98085676D01*
X139505533Y-98150846D01*
X139826003Y-98157558D01*
X140141674Y-98101897D01*
X140188812Y-98083614D01*
X142308583Y-100203385D01*
M02*
